<?xml version="1.0" standalone="no"?>
<!DOCTYPE svg PUBLIC "-//W3C//DTD SVG 1.1//EN" "http://www.w3.org/Graphics/SVG/1.1/DTD/svg11.dtd" >
<svg xmlns="http://www.w3.org/2000/svg" xmlns:xlink="http://www.w3.org/1999/xlink" version="1.1">
<metadata>
Created by FontForge 20170910 at Wed Jul 30 20:59:02 2014
 By Jimmy Wärting
Copyright (c) 1990 Esselte Letraset, Ltd.
</metadata>
<defs>
<font id="SavoyeLetPlain" horiz-adv-x="0" >
  <font-face 
    font-family="Savoye LET"
    font-weight="400"
    font-stretch="normal"
    units-per-em="2048"
    panose-1="0 0 0 0 0 0 0 0 0 0"
    ascent="1638"
    descent="-410"
    x-height="568"
    cap-height="1351"
    bbox="-735 -763 2661 1962"
    underline-thickness="0"
    underline-position="0"
    unicode-range="U+0020-FB04"
  />
<missing-glyph horiz-adv-x="1024" 
d="M78 1365h860v-1365h-860v1365zM119 1324v-1283h778v1283h-778z" />
    <glyph glyph-name=".notdef" horiz-adv-x="1024" 
d="M78 1365h860v-1365h-860v1365zM119 1324v-1283h778v1283h-778z" />
    <glyph glyph-name=".null" 
 />
    <glyph glyph-name="nonmarkingreturn" horiz-adv-x="682" 
 />
    <glyph glyph-name="space" unicode=" " horiz-adv-x="355" 
 />
    <glyph glyph-name="exclam" unicode="!" horiz-adv-x="540" 
d="M437 1266l-253 -1020l-28 -13l148 973zM143 151q35 0 58 -23t23 -58t-23 -58t-58 -23q-34 0 -58 23t-24 58t24 58t58 23z" />
    <glyph glyph-name="quotedbl" unicode="&#x22;" horiz-adv-x="250" 
d="M68 625h-17l8 130l2 21q4 49 33 49t29 -29q0 -16 -15 -57zM165 625h-16l8 130l2 21q4 49 32 49q14 0 22 -8t8 -21q0 -12 -15 -57z" />
    <glyph glyph-name="numbersign" unicode="#" horiz-adv-x="1504" 
d="M1146 1323l-79 -376h389l10 -64h-413l-79 -376h367l10 -64h-390l-86 -410l-38 24l81 386h-457l-86 -410l-38 24l81 386h-350l-10 64h373l79 376h-328l-10 64h351l84 399l39 -23l-79 -376h456l84 399zM474 507h457l79 376h-457z" />
    <glyph glyph-name="dollar" unicode="$" horiz-adv-x="582" 
d="M312 820h10q15 0 25 -1l21 102h24l-22 -106q89 -18 143 -90l-49 -53q-46 67 -104 94l-68 -331l4 -4q60 -57 86.5 -107t26.5 -106q0 -87 -57.5 -150.5t-150.5 -76.5l-22 -106h-24l22 104h-14q-12 0 -21 1l-22 -105h-24l22 108q-54 8 -100 35t-76 68l60 64q38 -82 127 -116
l75 368l-4 4q-57 60 -79 103.5t-22 91.5q0 77 55 137t134 70l21 103h24zM304 782l-61 -299l29 -29l66 321q-12 4 -34 7zM224 391l-73 -354l6 -1q15 -4 28 -5l68 330q-1 1 -25 27zM223 502l57 280q-55 -3 -94.5 -40.5t-39.5 -89.5q0 -71 70 -142zM273 341l-64 -311
q43 1 78.5 21t54.5 53t19 72q0 72 -84 160z" />
    <glyph glyph-name="percent" unicode="%" horiz-adv-x="886" 
d="M398 766q29 -46 29 -116q0 -76 -31.5 -145t-83.5 -111t-109 -42q-71 0 -113 48t-42 129q0 119 69.5 210t160.5 91q30 0 91 -26q55 -24 86 -33t65 -9q59 0 108.5 32t75.5 86l28 -20l-628 -897l-23 17l561 798q-56 -41 -123 -41q-55 0 -121 29zM749 283q0 -76 -31 -146.5
t-84 -112.5t-109 -42q-71 0 -113 47.5t-42 129.5q0 78 32 146.5t86 111t113 42.5q68 0 108 -47t40 -129zM355 697q0 50 -19.5 79.5t-54.5 29.5q-62 0 -102 -81q-59 -118 -59 -229q0 -121 79 -121q40 0 76 46.5t58 120t22 155.5zM678 326q0 52 -19 80.5t-55 28.5
q-62 0 -103 -80q-59 -118 -59 -230q0 -120 79 -120q40 0 76 46t58.5 119.5t22.5 155.5z" />
    <glyph glyph-name="ampersand" unicode="&#x26;" horiz-adv-x="1535" 
d="M825 52q-3 -1 -3 -2l-8 -4q-139 -72 -295 -72q-123 0 -218.5 44t-147 125t-51.5 188q0 243 322 426l7 4v4v2q0 108 33 211.5t87 169.5q98 119 215 119q63 0 102.5 -36.5t39.5 -90.5q0 -121 -181 -237q-30 -20 -112 -66q-89 -49 -117 -63q4 -90 46.5 -206t103.5 -205
q93 -136 234 -239q70 50 125 116.5t86.5 137t31.5 132.5q0 64 -33.5 103.5t-86.5 39.5q-140 0 -208 -245l-52 77q19 65 56.5 116t87 79t102.5 28q48 0 87 -24t61.5 -67t22.5 -95q0 -51 -19 -106.5t-52 -109.5t-82.5 -108t-100.5 -91l5 -3q102 -64 206 -64q80 0 136.5 31
t114.5 105l14 -16q-119 -181 -310 -181q-128 0 -249 73zM794 71q-153 100 -250 274.5t-112 379.5l-1 5q-224 -143 -224 -348q0 -153 107 -254.5t268 -101.5q111 0 212 45zM498 802q143 76 216 133q55 41 88 96.5t33 105.5q0 43 -26.5 67t-70.5 24q-64 0 -119.5 -52.5
t-88.5 -141t-33 -189.5v-26z" />
    <glyph glyph-name="quotesingle" unicode="'" horiz-adv-x="153" 
d="M68 625h-17l8 130l2 21q4 49 33 49t29 -29q0 -16 -15 -57z" />
    <glyph glyph-name="parenleft" unicode="(" horiz-adv-x="683" 
d="M744 1456l-6 -25q-82 -24 -143 -84.5t-118 -172.5q-45 -92 -84.5 -214.5t-70.5 -259.5t-49.5 -269t-18.5 -232q0 -97 16.5 -163t52 -111t92.5 -71l-5 -24q-111 42 -170 169.5t-59 329.5q0 142 35.5 308.5t99 324.5t143.5 276q68 98 141.5 154.5t143.5 63.5z" />
    <glyph glyph-name="parenright" unicode=")" horiz-adv-x="683" 
d="M-78 -170l5 25q82 24 144.5 85t117.5 172q57 114 108.5 292.5t83 364t31.5 318.5q0 143 -38.5 225.5t-122.5 118.5l5 25q111 -41 169.5 -169t58.5 -331q0 -141 -35.5 -307.5t-99.5 -326t-142 -274.5q-66 -96 -139.5 -152.5t-145.5 -65.5z" />
    <glyph glyph-name="asterisk" unicode="*" horiz-adv-x="476" 
d="M389 1337l-33 -139l107 97l19 -26l-114 -90l122 5l-8 -38l-126 7l73 -97l-28 -25l-59 100l-28 -145h-33l31 135l-94 -99l-20 34l114 97l-121 -7l8 38l114 -5l-69 90l31 26l54 -97l27 139h33z" />
    <glyph glyph-name="plus" unicode="+" horiz-adv-x="621" 
d="M106 442h170v170h44v-170h170v-44h-170v-170h-44v170h-170v44z" />
    <glyph glyph-name="comma" unicode="," horiz-adv-x="475" 
d="M6 -165l-15 23q63 40 103.5 81t53.5 78q-28 -22 -52 -22q-27 0 -42 17.5t-15 45.5q0 41 26 70.5t64 29.5q31 0 52 -23.5t21 -58.5q0 -60 -55.5 -128t-140.5 -113z" />
    <glyph glyph-name="hyphen" unicode="-" horiz-adv-x="485" 
d="M301 327l-9 -45h-244l9 45h244z" />
    <glyph glyph-name="period" unicode="." horiz-adv-x="475" 
d="M202 86q0 -40 -25.5 -68.5t-60.5 -28.5q-70 0 -70 70q0 28 12 50t31.5 35.5t42.5 13.5q32 0 51 -20t19 -52z" />
    <glyph glyph-name="slash" unicode="/" horiz-adv-x="775" 
d="M850 1433l-845 -1590l-25 14l844 1589z" />
    <glyph glyph-name="zero" unicode="0" horiz-adv-x="695" 
d="M600 551q0 -109 -42.5 -229.5t-112.5 -205.5q-110 -133 -233 -133q-95 0 -153.5 76.5t-58.5 204.5q0 116 48.5 241t130.5 217q92 103 204 103q96 0 156.5 -75.5t60.5 -198.5zM513 606q0 94 -34.5 145t-96.5 51q-129 0 -220 -230q-37 -95 -58 -194.5t-21 -173.5
q0 -94 35 -146t97 -52q60 0 110 50t98 157q42 92 66 198.5t24 194.5z" />
    <glyph glyph-name="one" unicode="1" horiz-adv-x="394" 
d="M236 0h-304l5 26h28q49 0 68 15.5t28 61.5l8 37l86 418l6 35q6 26 6 40q0 26 -21 26q-16 0 -47 -16l-83 -45l-5 22l19 14l112 78q74 52 127 95h26q-25 -82 -57 -240l-88 -427q-10 -52 -10 -73q0 -25 12.5 -33t52.5 -8h36z" />
    <glyph glyph-name="two" unicode="2" horiz-adv-x="604" 
d="M472 183l-61 -182q-46 -9 -98 -9q-50 0 -112 7q-112 12 -164 12q-69 0 -146 -19v28q65 44 141 103t160 132q84 75 132.5 134t71 114.5t22.5 114.5q0 81 -41.5 129.5t-110.5 48.5q-68 0 -119 -45t-51 -106q0 -30 16.5 -53.5t42.5 -31.5q-16 -28 -50 -28q-33 0 -54.5 23
t-21.5 58q0 79 83 146t180 67q96 0 154.5 -56t58.5 -148q0 -71 -33.5 -133t-112.5 -138q-71 -69 -240 -193q-77 -58 -99 -75q42 7 87 7q36 0 69 -3l81 -6q34 -2 50 -2q55 0 89 24t61 80h15z" />
    <glyph glyph-name="three" unicode="3" horiz-adv-x="631" 
d="M536 780l-237 -256q58 -15 99 -48t63.5 -81.5t22.5 -104.5q0 -82 -44 -153t-118.5 -113.5t-158.5 -42.5q-93 0 -159 49.5t-66 120.5q0 38 20.5 64t54.5 29q-5 -20 -5 -38q0 -53 25 -97.5t68 -70.5t96 -26q56 0 108.5 31t83.5 83.5t31 108.5t-26.5 105t-73 82.5
t-105.5 45.5l235 259h-171h-50q-64 0 -91 -17t-55 -73h-21l75 187q26 -11 56 -13q41 -4 106 -4h230z" />
    <glyph glyph-name="four" unicode="4" horiz-adv-x="626" 
d="M335 310l6 -1q51 -10 87 -10q27 0 45 3.5t54 19.5l-35 -89q-35 -9 -74 -9q-45 0 -94 10l-36 -234h-90l64 247l-5 1q-88 19 -150 19q-85 0 -147 -34l-15 16q64 60 145 199q41 69 65 142.5t24 134.5q0 29 -7 53l104 61q2 -28 2 -29q0 -62 -19.5 -120t-75.5 -157
q-31 -53 -84.5 -129.5t-101.5 -129.5l16 6q129 46 204 46q28 0 51 -4q8 -1 14 -2l65 248l31 18z" />
    <glyph glyph-name="five" unicode="5" horiz-adv-x="586" 
d="M52 461l116 347q34 6 67 6q40 0 100 -6q54 -4 77 -4q42 0 67.5 13.5t38.5 41.5h20l-48 -138q-26 -6 -68 -6q-47 0 -92 3l-77 6q-13 1 -37 1q-21 0 -48 -4l-57 -165q42 14 85 14q71 0 129.5 -34t92 -92.5t33.5 -130.5q0 -69 -26 -129.5t-71.5 -106t-107 -72t-128.5 -26.5
q-84 0 -135 39.5t-51 103.5q0 39 20.5 65.5t52.5 26.5q-11 -27 -11 -52q0 -64 46.5 -108t117.5 -44q65 0 119 34t85.5 93t31.5 125q0 63 -28 113.5t-78 80.5t-107 30q-51 0 -106 -31z" />
    <glyph glyph-name="six" unicode="6" horiz-adv-x="636" 
d="M105 371q88 171 230 171q80 0 128 -55t48 -148q0 -68 -26 -132.5t-69 -114t-99.5 -80t-114.5 -30.5q-95 0 -148.5 69.5t-53.5 194.5q0 102 37 207.5t98 188t139 132t155 49.5q55 0 90 -28t35 -72q0 -31 -22 -55.5t-54 -24.5q-9 0 -16 1q20 35 20 69q0 40 -21 60t-61 20
q-64 0 -123.5 -53.5t-105.5 -151.5q-27 -57 -44.5 -116t-21.5 -101zM81 170q0 -165 119 -165q55 0 106.5 49t82.5 132t31 169q0 71 -28.5 108.5t-83.5 37.5q-88 0 -151 -89q-31 -45 -53.5 -116.5t-22.5 -125.5z" />
    <glyph glyph-name="seven" unicode="7" horiz-adv-x="484" 
d="M140 44l-147 -74l10 21q104 213 170 330q145 255 262 406h-201h-50q-63 0 -93 -17.5t-59 -72.5h-18l75 189q32 -12 66.5 -15.5t97.5 -3.5h262v-20l-13 -17q-96 -122 -149.5 -206t-103.5 -192q-42 -89 -68 -167t-41 -161z" />
    <glyph glyph-name="eight" unicode="8" horiz-adv-x="666" 
d="M207 447q-47 44 -65.5 81t-18.5 82q0 59 31 107t85.5 76t121.5 28q62 0 111.5 -23.5t77 -63t27.5 -90.5q0 -48 -23.5 -91t-67.5 -78.5t-102 -56.5l10 -8q71 -56 96.5 -95.5t25.5 -94.5q0 -99 -79.5 -166.5t-197.5 -67.5q-115 0 -187 58.5t-72 151.5q0 80 61 148t166 103z
M226 431q-77 -23 -124 -81t-47 -133q0 -56 28 -103t75.5 -74.5t104.5 -27.5q77 0 128 48t51 121q0 78 -79 145q-61 54 -137 105zM363 435q39 13 73 44.5t53 73t19 83.5q0 69 -46.5 114.5t-112.5 45.5q-44 0 -82.5 -19t-61 -52t-22.5 -71q0 -100 180 -219z" />
    <glyph glyph-name="nine" unicode="9" horiz-adv-x="627" 
d="M52 -39l-16 18q139 93 234 202.5t125 212.5q-72 -86 -176 -86q-81 0 -133 56.5t-52 147.5q0 81 41.5 153.5t109 115.5t143.5 43q95 0 149 -63t54 -174q0 -75 -25 -150t-74 -148.5t-115 -136.5q-133 -127 -265 -191zM125 491q0 -72 31.5 -113.5t83.5 -41.5
q53 0 102.5 42.5t79 112.5t29.5 149q0 50 -15 86t-42.5 55t-65.5 19q-52 0 -99 -44t-75.5 -116t-28.5 -149z" />
    <glyph glyph-name="colon" unicode=":" horiz-adv-x="475" 
d="M286 496q0 -40 -25.5 -68.5t-60.5 -28.5q-30 0 -50 19t-20 51q0 28 12 50t31.5 35.5t42.5 13.5q32 0 51 -20t19 -52zM202 86q0 -40 -25.5 -68.5t-60.5 -28.5q-70 0 -70 70q0 28 12 50t31.5 35.5t42.5 13.5q32 0 51 -20t19 -52z" />
    <glyph glyph-name="semicolon" unicode=";" horiz-adv-x="475" 
d="M289 496q0 -26 -12 -49t-32 -35.5t-43 -12.5q-31 0 -50 19t-19 51q0 28 11.5 50t31 35.5t42.5 13.5q33 0 52 -20t19 -52zM6 -165l-15 23q63 40 103.5 81t53.5 78q-28 -22 -52 -22q-27 0 -42 17.5t-15 45.5q0 41 26 70.5t64 29.5q31 0 52 -23.5t21 -58.5q0 -60 -55.5 -128
t-140.5 -113z" />
    <glyph glyph-name="less" unicode="&#x3c;" horiz-adv-x="449" 
d="M364 71l-258 233l256 255h17l-180 -255l183 -233h-18z" />
    <glyph glyph-name="equal" unicode="=" horiz-adv-x="621" 
d="M106 502h384v-44h-384v44zM107 372h384v-44h-384v44z" />
    <glyph glyph-name="greater" unicode="&#x3e;" horiz-adv-x="449" 
d="M106 71l183 233l-180 255h17l256 -255l-258 -233h-18z" />
    <glyph glyph-name="question" unicode="?" horiz-adv-x="687" 
d="M349 290l-27 -67h-11q-64 0 -104 41t-40 106q0 81 62 180q18 28 44.5 63.5t106.5 136.5q96 118 130 164q57 77 81 125t24 85q0 30 -14 54t-38 37t-53 13q-75 0 -170 -77.5t-158 -190.5l-29 104q65 89 156 144t175 55q77 0 123 -46t46 -123q0 -51 -23 -111.5t-71.5 -135.5
t-120.5 -161l-89 -108q-85 -103 -115.5 -153t-30.5 -87q0 -31 19.5 -48t53.5 -17q25 0 73 17zM211 151q35 0 58 -23t23 -58t-23 -58t-58 -23q-22 0 -40.5 11t-29.5 29.5t-11 40.5q0 35 23 58t58 23z" />
    <glyph glyph-name="at" unicode="@" horiz-adv-x="1456" 
d="M1302 726q-1 -43 -19.5 -90t-46.5 -91.5t-62 -84.5t-67 -70q-87 -80 -118.5 -95.5t-52.5 -15.5q-32 0 -55.5 33.5t-23.5 77.5q0 32 24 145l8 38q-37 -86 -99 -165q-104 -132 -199 -132q-57 0 -90 41t-33 110q0 94 53.5 197t133 169.5t154.5 66.5q79 0 118 -58l11 38
l94 39l-94 -366q-15 -60 -15 -94q0 -30 13 -52t35 -26q28 0 75 38q31 25 61 70t53.5 97.5t37.5 106t13 95.5q-2 88 -37 159t-95.5 120.5t-143 74.5t-180.5 21q-53 -2 -108 -14.5t-106.5 -38.5t-98.5 -67t-85.5 -100t-65.5 -137t-39 -179q-6 -50 -4 -110.5t19 -122.5t52 -120
t96 -104t150.5 -75.5t215.5 -32.5q65 2 134.5 18t134 46t120.5 73.5t93 99.5q1 0 5.5 -6t9 -13.5t8.5 -14t5 -6.5q-43 -60 -102.5 -101.5t-128 -67t-141 -38t-142.5 -15.5q-75 -3 -155 9t-155.5 41.5t-141.5 78t-112.5 118t-68.5 161.5t-9 208q10 89 41.5 163t78 133.5
t105.5 104.5t122.5 75.5t129 47t126.5 18.5q118 4 206 -11.5t151 -45.5t104 -72.5t64.5 -91.5t32 -102.5t6.5 -105.5zM917 751q-12 38 -40.5 59.5t-65.5 21.5q-44 0 -93 -40.5t-90 -112.5q-32 -57 -53.5 -126t-21.5 -114q0 -51 19.5 -80t55.5 -29q46 0 96 43t99 123
q30 46 47 92t38 128z" />
    <glyph glyph-name="A" unicode="A" horiz-adv-x="1336" 
d="M1165 443l-95 -443h-64q-37 118 -118.5 229t-184.5 183q-68 -106 -152 -190t-178.5 -144t-196.5 -93t-200 -33q-27 0 -58 5l32 76q53 -6 80 -6q274 0 488 214q44 44 89.5 101.5t94.5 134.5q109 171 186 320l94 181q111 213 171 288.5t119 75.5q19 0 33.5 -8t22.5 -23.5
t8 -34.5q0 -14 -5 -41q-5 -36 -6 -39l-153 -719h71l-7 -34h-71zM1071 443h-349l4 -3q89 -68 153 -140t125 -172zM749 477h329l142 680q7 33 7 34q6 20 6 36q0 25 -22 25q-27 0 -65 -57t-132 -234q-14 -27 -57 -109q-36 -65 -39 -72l-96 -175q-60 -109 -73 -128z" />
    <glyph glyph-name="B" unicode="B" horiz-adv-x="1021" 
d="M385 1245l103 48l-3 -26q-3 -30 -5 -49.5t-4 -30.5l-12 -80q0 -1 -4 -26q83 83 165.5 147t149.5 95t123 31q59 0 93.5 -40t34.5 -110q0 -79 -53.5 -177.5t-152.5 -202.5q-107 -113 -195 -172q32 2 36 2q108 0 177 -64t69 -166t-59 -201t-163 -170q-115 -79 -268 -79
q-128 0 -181 50l49 64q32 -34 80 -55.5t99 -21.5q90 0 167.5 54.5t124 145t46.5 193.5q0 65 -23.5 111.5t-66.5 72t-101 25.5q-28 0 -67 -10l10 49q89 51 174 131.5t143 168.5q77 116 77 212q0 58 -30.5 93t-80.5 35q-90 0 -232 -117q-97 -81 -154 -153l-3 -18
q-16 -109 -45.5 -236.5t-71 -268t-82.5 -255.5q-48 -134 -93 -198.5t-89 -64.5q-68 0 -68 114q0 76 28.5 195.5t71.5 228.5q103 263 254 437q9 59 18 140q10 98 14 149zM343 895q-76 -93 -145.5 -227t-112.5 -273q-26 -84 -42.5 -166t-16.5 -126q0 -63 31 -63q22 1 42 31.5
t50 105.5q16 40 37 101t38.5 117.5t38 132.5t30.5 118q36 149 50 249z" />
    <glyph glyph-name="C" unicode="C" horiz-adv-x="986" 
d="M577 787l-28 76q93 27 176 83t130.5 124t47.5 134q0 49 -31.5 77t-84.5 28q-63 0 -138 -33t-148.5 -92t-140.5 -142q-73 -91 -122 -190t-74 -201.5t-25 -212.5q0 -187 86 -296.5t235 -109.5q96 0 186.5 43t207.5 144l16 13l12 -22q-119 -118 -239 -177t-242 -59
q-110 0 -195.5 52.5t-132 147t-46.5 221.5q0 92 27 192t80.5 202.5t126.5 198.5q77 102 171 182.5t188.5 124.5t169.5 44q71 0 113.5 -40.5t42.5 -109.5q0 -77 -51 -160.5t-136 -149t-182 -92.5z" />
    <glyph glyph-name="D" unicode="D" horiz-adv-x="1451" 
d="M891 1289l109 48q-12 -86 -25 -141l-20 -85l-7 -31q89 -66 157 -141t118 -159t74.5 -166t24.5 -162q0 -104 -37 -191t-106.5 -152t-164 -101t-202.5 -36q-167 0 -362 68l-25 9q-74 -42 -143 -62t-141 -20q-75 0 -121.5 28.5t-46.5 74.5q0 36 25.5 62.5t71.5 41.5t107 15
q86 0 278 -53l23 -7q64 62 124 173q88 163 175 474q45 155 69 270q-73 57 -164 103t-180 72t-159 26q-83 0 -132.5 -38.5t-49.5 -103.5q0 -41 25.5 -82.5t71.5 -78.5t115 -68l-62 -61q-88 46 -137.5 117t-49.5 150q0 66 35 116.5t98 78.5t142 28q203 0 466 -165
q21 76 26 149zM518 115l27 -9q125 -38 206 -54t155 -16q104 0 188.5 50t134 139t49.5 195q0 276 -352 568q-9 -42 -44 -164q-57 -192 -96 -288q-115 -288 -268 -421zM389 62q-179 55 -283 55q-44 0 -68.5 -14.5t-24.5 -40.5q0 -28 39 -48t97 -20q117 0 240 68z" />
    <glyph glyph-name="E" unicode="E" horiz-adv-x="1025" 
d="M855 218l-24 -119q-127 -60 -249.5 -92t-222.5 -32q-110 0 -191 31.5t-124.5 91.5t-43.5 141q0 135 122 268.5t348 246.5q-108 18 -108 112q0 134 232 301q72 52 146.5 91.5t140 60.5t115.5 21q52 0 81.5 -28.5t29.5 -77.5q0 -45 -22.5 -103t-65.5 -121t-96 -114l-53 58
q156 172 156 274q0 69 -82 69q-52 0 -128 -31t-151 -83q-100 -68 -158.5 -145t-58.5 -137q0 -29 18.5 -55t45.5 -37q28 -10 97 -13h17l-13 -64q-151 -65 -303 -177q-252 -186 -252 -350q0 -82 63.5 -133.5t162.5 -51.5q69 0 152.5 21t185.5 64t233 113z" />
    <glyph glyph-name="F" unicode="F" horiz-adv-x="1117" 
d="M994 443h-249l-2 -5q-63 -151 -160.5 -259t-221 -162.5t-268.5 -54.5q-99 0 -175 25l32 77q117 -59 227 -59q172 0 308 132q57 56 95.5 120.5t83.5 180.5l2 5h-101l7 34h106l2 6l7 17q34 95 61 186t66 247q37 146 53 236l104 47q-8 2 -13 2.5t-12 1.5q-252 28 -432 28
q-114 0 -187.5 -14.5t-120.5 -44.5q-70 -45 -70 -113q0 -141 352 -160l-67 -71q-143 9 -229.5 68.5t-86.5 152.5q0 123 155 198q131 63 386 63q68 0 175.5 -8t222.5 -20.5t191 -26.5l18 -3l-45 -90l-18 3q-89 16 -208 33l-7 1l-1 -6q-5 -25 -27.5 -119.5t-39.5 -156.5
t-36 -128.5t-41 -132.5q-38 -117 -71 -196h242z" />
    <glyph glyph-name="G" unicode="G" horiz-adv-x="969" 
d="M712 169l-2 -2q-85 -89 -178 -135t-188 -46q-90 0 -163 47t-113.5 131t-40.5 192q0 107 32.5 219.5t95 226.5t151.5 221q121 146 259.5 232.5t247.5 86.5q46 0 82.5 -18.5t55.5 -54t19 -82.5q0 -123 -104 -237.5t-259 -162.5l-33 76q153 48 254 146t101 197q0 28 -16 54
t-43 39t-62 13q-94 0 -208 -71t-212 -188q-75 -90 -132 -199t-88 -225t-31 -219q0 -80 18 -146.5t55 -116t88 -74.5t111 -25q143 0 309 165l4 5l36 171l104 59l-62 -299q-22 -109 -37.5 -157.5t-45.5 -103.5q-48 -88 -123.5 -154.5t-171 -102.5t-192.5 -36q-114 0 -189 35
l32 71q109 -62 227 -62q59 0 111 15.5t95.5 45.5t74.5 72q27 37 45 75t34 94.5t36 150.5z" />
    <glyph glyph-name="H" unicode="H" horiz-adv-x="1410" 
d="M738 477h420l171 818l105 52l-284 -1347h-62q-23 69 -60.5 135t-88.5 128.5t-105.5 110.5t-108.5 74l-3 -5q-57 -131 -138.5 -233.5t-167.5 -155.5q-50 -31 -114.5 -54t-135 -35t-142.5 -12q-49 0 -106 10l32 79q115 -37 203 -37q110 0 210 57t165 155q91 137 167 373
q13 39 39 132t47.5 179t33.5 143l35 178l3 19l113 56q-10 -80 -35 -189t-57.5 -225t-68.5 -226.5t-65 -174.5zM1150 443h-342q70 -54 151 -142.5t128 -163.5z" />
    <glyph glyph-name="I" unicode="I" horiz-adv-x="873" 
d="M-68 -24l30 77q89 -39 195 -39q129 0 235 86q62 49 104.5 110t90.5 166l8 16q-83 53 -122.5 144.5t-39.5 227.5q0 94 29 202.5t80 202.5q43 84 93 131.5t94 47.5q60 0 92 -72t32 -205q0 -101 -22.5 -224.5t-63.5 -247.5t-86 -207q29 -11 61 -11t67 11l-9 -27
q-26 -8 -64 -8q-39 0 -72 8q-81 -138 -175.5 -227.5t-206 -132.5t-244.5 -43q-64 0 -106 14zM610 424q38 86 74 226q38 143 64 293.5t26 230.5q0 68 -16 105t-48 37q-46 0 -93.5 -90.5t-78 -232.5t-30.5 -277q0 -221 102 -292z" />
    <glyph glyph-name="J" unicode="J" horiz-adv-x="884" 
d="M591 647l-72 -60q-32 49 -45.5 99t-13.5 123q0 176 93 364q40 82 90 127t97 45q62 0 93 -72.5t31 -212.5q0 -125 -33 -285t-89 -306q57 7 88 7q8 0 15 -1l-6 -29q-51 0 -108 -8q-81 -203 -196 -376t-234.5 -270t-218.5 -97q-70 0 -110 42t-40 115q0 56 30 122.5t84 133
t126 123.5q65 53 136 93.5t152.5 72t171.5 54.5l7 19q84 254 116 452q21 139 21 226q0 71 -17 110.5t-47 39.5q-43 0 -87 -61.5t-72 -157t-28 -187.5q0 -148 66 -245zM617 416q-119 -29 -229.5 -85t-190.5 -127q-92 -83 -145.5 -179.5t-53.5 -180.5q0 -53 27 -87t69 -34
q128 0 291 224q39 52 80.5 129.5t94.5 196.5q30 69 57 143z" />
    <glyph glyph-name="K" unicode="K" horiz-adv-x="1436" 
d="M1600 1303l-732 -799q33 -77 89 -163.5t118.5 -159t133.5 -130.5l-71 -67q-214 193 -348 484l703 835h107zM877 1297l109 51q-15 -95 -41.5 -217.5t-61.5 -252.5t-65 -217q-33 -101 -70.5 -190.5t-76.5 -155t-85 -120t-97 -95.5q-178 -147 -452 -147q-68 0 -105 12l30 74
q115 -33 212 -33q223 0 383 235q46 68 83.5 157t83.5 249q22 76 43.5 158.5t40 160t38 168t27.5 138.5z" />
    <glyph glyph-name="L" unicode="L" horiz-adv-x="1189" 
d="M1100 77l-43 -97q-29 -5 -51 -5q-44 0 -119 13q-54 10 -107.5 24.5t-138.5 41.5q-69 22 -137 41q-62 -59 -146 -91.5t-168 -32.5q-98 0 -157.5 35.5t-59.5 93.5q0 62 67 97t181 35q130 0 291 -47q30 52 48.5 109t39.5 158l71 334q31 145 57.5 226t61.5 140q33 56 76 99
t89 66t90 23q48 0 84 -22.5t54.5 -65t18.5 -98.5q0 -51 -19 -129t-49 -144l-93 -14q42 78 70 168.5t28 153.5q0 59 -25 91t-73 32q-103 0 -172 -136q-22 -44 -36 -89.5t-37 -150.5l-89 -417q-29 -134 -60 -213t-79 -139l25 -8q151 -50 242.5 -71.5t158.5 -21.5q47 0 106 11z
M457 110l-24 7q-179 54 -274 54q-151 0 -151 -79q0 -40 52 -67.5t131 -27.5q76 0 146 30t120 83z" />
    <glyph glyph-name="M" unicode="M" horiz-adv-x="1421" 
d="M1163 0h-96l211 1009l7 35q7 37 7 51q0 19 -10 31.5t-28 12.5q-28 0 -63 -34t-88 -114q-82 -122 -179 -339q-76 -171 -129.5 -332.5t-87.5 -319.5h-83l232 1086q11 51 11 80q0 13 -5 25t-13.5 18t-19.5 6q-47 0 -115 -91.5t-161 -284.5q-44 -87 -85 -182t-73 -177
t-72 -200q-58 -172 -84 -280h-84l3 14l43 171q23 98 40 174q79 358 116 585q31 178 31 257q0 58 -17.5 89.5t-48.5 31.5q-76 0 -135 -202q-37 -127 -57 -274l-75 49q17 129 56.5 233t94 164.5t110.5 60.5q64 0 100.5 -68t36.5 -186q0 -99 -18 -225q-5 -37 -32 -188l-40 -218
l6 19q72 196 209 462q86 165 159.5 249.5t133.5 84.5q38 0 63 -29.5t25 -75.5q0 -47 -19 -136l-116 -554q13 37 60 142q137 304 234 438.5t179 134.5q41 0 65.5 -28.5t24.5 -75.5q0 -38 -17 -115z" />
    <glyph glyph-name="N" unicode="N" horiz-adv-x="1051" 
d="M782 0h-96l229 1040q14 62 14 92q0 34 -16.5 54t-45.5 20q-89 0 -211 -198q-48 -77 -102.5 -184t-97.5 -202.5t-87 -210.5t-78 -223l-53 -169l-6 -19h-85l6 20q66 228 149 635q32 153 56 288q33 181 33 252q0 37 -8 66.5t-22.5 44.5t-34.5 15q-81 0 -136 -200
q-43 -153 -57 -277l-78 54q20 125 62 230.5t95 164t107 58.5q64 0 100.5 -69t36.5 -191q0 -100 -19 -220q-13 -82 -28 -163l-51 -246l9 22q87 212 166.5 367t148.5 251q124 169 230 169q49 0 80.5 -34.5t31.5 -89.5q0 -47 -17 -124z" />
    <glyph glyph-name="O" unicode="O" horiz-adv-x="1224" 
d="M1183 858q0 -138 -46 -278.5t-129 -263.5q-71 -105 -160.5 -180.5t-189.5 -113.5t-206 -38q-93 0 -172.5 33t-136 94.5t-86.5 149t-30 190.5q0 167 61 328t164 286.5t234.5 198.5t268.5 73q127 0 224 -60t150.5 -169t53.5 -250zM1068 900q0 93 -23 167.5t-66 126t-104 79
t-141 27.5q-83 0 -164.5 -36.5t-153 -107t-128.5 -171.5q-64 -112 -105 -268.5t-41 -289.5q0 -125 40.5 -217t116.5 -142t175 -50q93 0 184.5 47t168.5 133t130 200q47 101 79 242.5t32 259.5z" />
    <glyph glyph-name="P" unicode="P" horiz-adv-x="974" 
d="M68 0l125 577q32 147 51.5 306.5t19.5 294.5q0 31 -1 55l110 50v-28q0 -66 -12 -213t-25 -226q61 143 152 265.5t186.5 193.5t173.5 71t125.5 -62.5t47.5 -167.5q0 -132 -57 -265t-155.5 -245t-216 -176.5t-232.5 -64.5q-26 0 -61 7l53 71q49 -16 100 -16
q83 0 166.5 55.5t149.5 156.5q61 93 104 231.5t43 239.5q0 84 -28.5 131t-79.5 47q-72 0 -166 -82.5t-184 -223.5q-65 -100 -108.5 -216t-77.5 -269l-108 -497h-95z" />
    <glyph glyph-name="Q" unicode="Q" horiz-adv-x="1224" 
d="M644 17l-5 -1q-94 -32 -191 -32q-91 0 -170.5 33t-135.5 95.5t-85.5 149.5t-29.5 189q0 167 61 328t164 286.5t234.5 198.5t268.5 73q127 0 224 -59.5t151 -169.5t54 -253q0 -159 -61.5 -320t-168 -290.5t-236.5 -195.5l14 -9l14 -9q81 -53 141 -83.5t108 -44t100 -16.5
l-74 -75q-38 3 -81 20.5t-102 53.5t-135 90l-29 20zM609 42q-100 73 -174 73q-73 0 -104 -66q67 -31 146 -31q71 0 132 24zM311 60q29 51 67.5 76.5t83.5 25.5q84 0 202 -78l7 -4q1 -1 2.5 -1.5t4.5 -3.5q90 56 160.5 136.5t118.5 186.5q34 74 58.5 160t38.5 175t14 164
q0 94 -23 170t-65 126.5t-104 78.5t-142 28q-83 0 -164.5 -36.5t-153 -107t-128.5 -171.5q-65 -115 -105.5 -270t-40.5 -288q0 -84 20.5 -156.5t58.5 -126.5t90 -84z" />
    <glyph glyph-name="R" unicode="R" horiz-adv-x="952" 
d="M68 -1l119 576q67 326 67 577q0 18 -0.5 29.5t-0.5 25.5l-1 24l110 50v-17q0 -69 -5 -148q-9 -136 -27 -284l-4 -28q45 125 138 259q59 85 125 150.5t128.5 98t118.5 32.5q79 0 125 -57t46 -154q0 -134 -79.5 -278t-212 -253t-281.5 -152q48 -83 103.5 -155t118.5 -137
t130 -117l-73 -71q-80 62 -162.5 152.5t-144 183t-87.5 167.5q8 -1 18 -1q94 0 199.5 55t187.5 148q80 91 129.5 215t49.5 231q0 74 -31 116t-85 42q-52 0 -110.5 -36.5t-116 -101t-115.5 -160.5q-64 -109 -105 -222t-75 -272l-103 -488h-94z" />
    <glyph glyph-name="S" unicode="S" horiz-adv-x="971" 
d="M-27 26l55 100q169 -93 328 -93q106 0 193.5 38.5t138 105t50.5 144.5q0 77 -46 137t-166 139q-117 78 -142.5 96t-66.5 51q-73 64 -73 151q0 157 204 302q57 41 130.5 74t144.5 50t133 17q91 0 143 -34t52 -95q0 -75 -63 -160.5t-172 -157.5l-80 45q74 50 125 100
t79 97.5t28 86.5q0 27 -15 46t-43 29t-70 10q-78 0 -167.5 -30.5t-168.5 -80.5q-176 -111 -176 -247q0 -38 21 -71.5t73.5 -75.5t153.5 -108q75 -49 113.5 -80t63.5 -65q56 -71 56 -159q0 -68 -35.5 -138t-100.5 -131q-152 -143 -422 -143q-176 0 -278 50z" />
    <glyph glyph-name="T" unicode="T" horiz-adv-x="1075" 
d="M-68 -39l37 90q94 -40 206 -40q131 0 232.5 70.5t181.5 215.5q26 48 51 109.5t62 172.5q31 92 60.5 198.5t50 194.5t39.5 196l107 48l-7 1l-20 3q-227 28 -436 28q-107 0 -180 -14t-124 -45q-70 -44 -70 -113q0 -141 352 -160l-68 -71q-96 6 -167 35t-109.5 77t-38.5 109
q0 123 155 198q131 63 385 63q69 0 176.5 -8t222.5 -20.5t191 -26.5l18 -3l-45 -90l-18 3q-88 16 -205 33l-7 1l-3 -14l-3 -14q-79 -361 -163 -594.5t-189 -373.5t-244.5 -203t-329.5 -63q-50 0 -100 7z" />
    <glyph glyph-name="U" unicode="U" horiz-adv-x="1043" 
d="M789 0h-96l4 24q18 126 42 251.5t55 247.5l92 365q-6 -12 -9.5 -20.5t-4.5 -10.5l-37 -93q-37 -90 -98 -218.5t-107 -213.5q-193 -352 -349 -352q-51 0 -81.5 34.5t-30.5 91.5q0 35 22 131l160 703l26 115q20 94 20 147q0 103 -60 103q-70 0 -116 -133q-54 -153 -82 -338
l-78 54q33 200 107 322t162 122q61 0 95 -60.5t34 -168.5q0 -109 -49 -322l-123 -537l-10 -46q-12 -47 -12 -81q0 -33 17.5 -53.5t43.5 -20.5q46 0 103 54t124 162.5t156 291.5q111 230 200 495q51 149 71 235l87 36l-197 -871q-51 -224 -81 -446z" />
    <glyph glyph-name="V" unicode="V" horiz-adv-x="1087" 
d="M1071 1255l112 49q-78 -478 -385 -955q-125 -195 -221 -287q-84 -83 -156 -83q-49 0 -70.5 29.5t-21.5 95.5q0 21 2 63l55 920q4 79 4 110q0 112 -61 112q-38 0 -65 -36t-59 -126q-51 -146 -75 -312l-75 53q28 174 103 314q76 138 167 138q70 0 110.5 -61.5t40.5 -168.5
q0 -47 -3 -107l-46 -824q-2 -38 -2 -54q0 -67 43 -67q73 0 191 153q90 115 164 245.5t126 262.5t84 272t38 264z" />
    <glyph glyph-name="W" unicode="W" horiz-adv-x="1553" 
d="M1517 1267l90 38q-3 -374 -218 -829q-65 -137 -136 -252.5t-128 -174.5q-37 -39 -64 -55t-53 -16q-47 0 -64.5 40t-17.5 148q0 86 1 128q0 92 8 289q8 188 17 286l2 31q-73 -286 -228 -567q-98 -180 -197 -292q-56 -65 -107 -65q-60 0 -75 62q-4 20 -4 85v30l36 938
q3 56 3 91q0 126 -64 126q-39 0 -66 -37t-55 -129q-43 -142 -67 -309l-75 50q22 143 60.5 247t90 156t111.5 52q152 0 152 -269q0 -47 -1 -76l-32 -811q-1 -11 -1 -35q0 -47 7.5 -66t26.5 -19q26 0 61 35.5t88 116.5q65 98 132.5 234.5t115.5 270.5q23 63 46 145.5
t36.5 151.5t31.5 198l3 24l97 42l-2 -23l-32 -315q-4 -49 -10 -142t-8.5 -168.5t-5.5 -162.5q-5 -183 -5 -272q0 -81 7.5 -109.5t29.5 -28.5q23 0 55.5 31t79.5 98q103 147 177 314t113.5 344.5t39.5 336.5q0 10 -2 84z" />
    <glyph glyph-name="X" unicode="X" horiz-adv-x="1070" 
d="M627 699l8 -35l8 -34q35 -148 76 -257.5t91 -191t113 -141.5l-76 -67q-84 82 -153 221q-41 84 -68 166.5t-61 227.5l-2 6l-39 -66q-96 -162 -170 -257.5t-154 -161.5q-143 -117 -268 -129l25 127q8 -1 17 -1q50 0 119.5 27.5t121.5 66.5q124 94 248 292l88 141l3 4l-2 6
q-51 235 -109 381.5t-126 208.5l76 81q124 -138 205 -489l9 -40l10 -41l20 35l21 36q131 218 195 304q160 217 320 219l-24 -114q-24 2 -28 2q-93 0 -195 -96q-44 -43 -98.5 -117t-134.5 -205l-33 -55z" />
    <glyph glyph-name="Y" unicode="Y" horiz-adv-x="1040" 
d="M41 -18l34 77q98 -35 198 -35q86 0 158 26t130 77.5t113 138.5q75 118 137 297q16 47 28 87t58 207l8 28l-14 -27q-44 -88 -88.5 -155.5t-109.5 -146.5q-47 -55 -81 -84.5t-66.5 -44.5t-62.5 -15q-74 0 -104 73q-13 36 -13 121v44l18 512q1 11 1 33q0 120 -64 120
q-39 0 -74 -53t-63.5 -154.5t-48.5 -246.5l-3 -25l-77 49q10 84 40 179.5t63 152.5q75 129 163 129q74 0 113.5 -71.5t39.5 -211.5q0 -39 -1 -59l-13 -337q0 -20 -0.5 -31.5t-0.5 -25.5q0 -125 76 -125q36 0 76 30.5t95 98.5q68 84 126 191t96 222.5t56 232.5l111 50l-6 -30
q-58 -309 -148 -580t-180 -406q-110 -165 -258.5 -244t-350.5 -79q-66 0 -111 11z" />
    <glyph glyph-name="Z" unicode="Z" horiz-adv-x="1169" 
d="M1071 79l-52 -97q-46 -4 -53 -4q-118 0 -276 55l-155 55l-117 41l-19 7q-96 -76 -170.5 -111t-144.5 -35q-54 0 -89.5 29.5t-35.5 74.5q0 67 68.5 107.5t185.5 40.5q54 0 107 -7t111 -23l15 13q230 208 407 458.5t276 508.5l-18 4q-95 22 -174.5 36.5t-156.5 25.5
t-135.5 16t-110.5 5q-166 0 -239 -47q-32 -21 -53 -53.5t-21 -63.5q0 -67 84 -109.5t264 -64.5l-75 -70q-144 21 -223 80.5t-79 147.5q0 98 97 166q61 44 139 63t190 19q98 0 195.5 -9.5t195 -28t189.5 -44.5l12 -3q-36 -100 -105.5 -237t-147.5 -257q-99 -153 -213.5 -288
t-252.5 -263l-17 -16l26 -7q53 -16 102 -33q105 -34 141.5 -45.5t69.5 -18.5q103 -23 181 -23q35 0 77 5zM351 147q-114 35 -203 35q-64 0 -103 -26t-39 -66q0 -27 24 -45t58 -18q52 0 107.5 24t136.5 83z" />
    <glyph glyph-name="bracketleft" unicode="[" horiz-adv-x="683" 
d="M138 -157l328 1600h177l-6 -30h-30q-34 0 -50.5 -4.5t-25 -18.5t-14.5 -45l-6 -36l-275 -1336l-7 -34q-4 -22 -4 -31q0 -19 13.5 -27t48.5 -8h34l-6 -30h-177z" />
    <glyph glyph-name="backslash" unicode="\" horiz-adv-x="775" 
d="M239 1441l28 5l310 -1597l-28 -6z" />
    <glyph glyph-name="bracketright" unicode="]" horiz-adv-x="683" 
d="M534 1443l-328 -1600h-177l6 30h30q51 0 66.5 12.5t22.5 55.5l7 36l275 1336l7 34q4 22 4 31q0 22 -13 28.5t-49 6.5h-34l6 30h177z" />
    <glyph glyph-name="asciicircum" unicode="^" horiz-adv-x="481" 
d="M257 884l-135 -47l-7 15l154 98l115 -98l-11 -15z" />
    <glyph glyph-name="underscore" unicode="_" horiz-adv-x="1024" 
d="M0 -273h1024v-44h-1024v44z" />
    <glyph glyph-name="grave" unicode="`" horiz-adv-x="392" 
d="M196 832l59 -167l-19 -5l-99 155z" />
    <glyph glyph-name="a" unicode="a" horiz-adv-x="666" 
d="M537 591l-94 -366q-15 -60 -15 -94q0 -30 13 -52t32 -22q29 0 96 71l14 -14l-11 -13q-53 -61 -81.5 -85.5t-49.5 -24.5q-32 0 -55.5 33.5t-23.5 77.5q0 32 24 145l8 38q-37 -86 -99 -165q-104 -132 -199 -132q-57 0 -90 41t-33 110q0 94 53.5 197t133 169.5t154.5 66.5
q79 0 118 -58l11 38zM422 463q-12 38 -40.5 59.5t-65.5 21.5q-44 0 -93 -40.5t-90 -112.5q-32 -57 -53.5 -126t-21.5 -114q0 -51 19.5 -80t55.5 -29q46 0 96 43t99 123q30 46 47 92t38 128z" />
    <glyph glyph-name="b" unicode="b" horiz-adv-x="638" 
d="M237 1358l106 51l-288 -1233q180 402 353 402q35 0 62.5 -18.5t43 -54.5t15.5 -76q0 -76 -36 -168.5t-91 -158.5q-98 -119 -216 -119q-37 0 -71 12.5t-76 41.5l-70 -42zM55 102q45 -94 129 -94q60 0 111.5 52t91.5 151q23 56 38 121.5t15 104.5q0 94 -66 94
q-44 0 -100 -54t-112.5 -150.5t-106.5 -224.5z" />
    <glyph glyph-name="c" unicode="c" horiz-adv-x="489" 
d="M393 150q-61 -86 -118.5 -125.5t-127.5 -39.5q-77 0 -125.5 54t-48.5 140q0 90 47 183t120.5 154t141.5 61q46 0 74 -25.5t28 -68.5q0 -39 -29.5 -74.5t-63.5 -35.5q-15 0 -27 12q65 29 65 108q0 28 -14.5 43.5t-38.5 15.5q-37 0 -74.5 -30t-70.5 -83.5t-51.5 -114
t-18.5 -122.5q0 -74 35 -120t92 -46q49 0 95 31t96 95z" />
    <glyph glyph-name="d" unicode="d" horiz-adv-x="651" 
d="M699 1409l-265 -1153q-21 -92 -21 -128q0 -32 11.5 -52t31.5 -20q26 0 63 39l29 29l2 2t3 2l15 -14l-8 -9q-38 -42 -39 -43l-33 -33q-25 -25 -36.5 -31.5t-25.5 -6.5q-33 0 -55 34t-22 78q0 26 14 95l11 57q-26 -63 -82 -137q-101 -130 -196 -130q-57 0 -90 41.5
t-33 112.5q0 99 52 200.5t132.5 167.5t160.5 66q59 0 110 -35l163 817zM419 491q-9 27 -37 43.5t-60 16.5q-47 0 -96.5 -42t-93.5 -119q-32 -57 -52.5 -124.5t-20.5 -122.5q0 -48 20.5 -77t56.5 -29q42 0 90.5 43t97.5 124q33 55 52 114q23 76 33 122z" />
    <glyph glyph-name="e" unicode="e" horiz-adv-x="496" 
d="M382 155l18 -15q-62 -82 -121 -118.5t-127 -36.5q-81 0 -130 54t-49 143q0 90 47.5 182.5t119 153t141.5 60.5q41 0 67.5 -24t26.5 -62q0 -77 -84 -154t-229 -131q-1 -8 -1 -18q0 -69 38 -112.5t98 -43.5q47 0 91 29.5t94 92.5zM62 231q108 48 166 107q39 40 63 86t24 83
q0 47 -43 47q-65 0 -131.5 -102.5t-78.5 -220.5z" />
    <glyph glyph-name="f" unicode="f" horiz-adv-x="328" 
d="M97 534h-98l7 34h99l94 439q24 109 49 174t60 112q86 115 214 115q43 0 79 -14l-36 -91q-40 56 -102 56q-47 0 -76.5 -36.5t-50.5 -120.5l-153 -634h161l-7 -34h-162l-137 -568q-27 -114 -52.5 -170t-69.5 -104q-80 -87 -175 -87q-46 0 -82 16l49 72q42 -34 91 -34
q74 0 111 78q27 58 57 192z" />
    <glyph glyph-name="g" unicode="g" horiz-adv-x="620" 
d="M532 591l-153 -609q-23 -98 -40.5 -144t-42.5 -84q-47 -72 -114.5 -110.5t-145.5 -38.5q-71 0 -125 40l51 66q65 -62 129 -62q41 0 83 26t62 64q26 46 54 167l77 330q-134 -250 -272 -250q-56 0 -90.5 42.5t-34.5 108.5q0 94 53 196t133.5 169.5t156.5 67.5q71 0 118 -53
l9 35zM420 467q-39 75 -103 75q-67 0 -132 -74q-53 -62 -90.5 -155.5t-37.5 -167.5q0 -50 21.5 -78.5t60.5 -28.5q40 0 88.5 44t96.5 124q55 91 85 216z" />
    <glyph glyph-name="h" unicode="h" horiz-adv-x="638" 
d="M-31 -10l266 1368l105 51l-277 -1218q4 7 4 9l23 52q59 134 148 232q84 91 155 91q38 0 61 -24.5t23 -65.5q0 -23 -11 -65l-10 -42l-31 -122l-9 -39q-15 -60 -15 -92t11 -51.5t29 -19.5q31 0 99 74l15 -14l-9 -11q-57 -67 -84.5 -90.5t-49.5 -23.5q-31 0 -53 33t-22 77
q0 27 13 95l38 212q9 47 9 70q0 21 -11 32t-30 11q-37 0 -85 -43.5t-96.5 -120.5t-84.5 -164.5t-54 -179.5z" />
    <glyph glyph-name="i" unicode="i" horiz-adv-x="295" 
d="M202 977q26 0 42 -16t16 -42q0 -25 -17 -42t-41 -17q-23 0 -41 18t-18 41q0 24 17 41t42 17zM173 585l-88 -329q-22 -81 -22 -130q0 -32 11 -52t29 -20q31 0 99 74l16 -14l-10 -11q-57 -67 -84 -90.5t-50 -23.5q-31 0 -52.5 31.5t-21.5 78.5q0 30 12 95l63 350z" />
    <glyph glyph-name="j" unicode="j" horiz-adv-x="273" 
d="M172 585l-158 -671q-19 -83 -35 -124.5t-43 -77.5q-37 -50 -91.5 -77.5t-115.5 -27.5q-40 0 -67 12l48 70q41 -31 86 -31q37 0 70 23.5t52 65.5q14 30 29 113l128 684zM201 977q26 0 42 -16t16 -42q0 -25 -17 -42t-41 -17q-23 0 -41 18t-18 41q0 24 17 41t42 17z" />
    <glyph glyph-name="k" unicode="k" horiz-adv-x="593" 
d="M345 1409l-272 -1183q23 54 55 104t73 97.5t79 77.5q49 39 98.5 58t111.5 22l-18 -80q-30 6 -45 6q-118 0 -220 -119q41 -110 87 -198q26 -51 45.5 -81.5t36 -44.5t32.5 -14q38 0 96 61l8 9l13 -15q-101 -122 -147 -122q-31 0 -58 27t-63 93q-63 115 -103 218
q-94 -155 -120 -313l-65 -21l268 1367z" />
    <glyph glyph-name="l" unicode="l" horiz-adv-x="295" 
d="M348 1409l-263 -1153l-9 -39q-13 -55 -13 -93q0 -31 11.5 -50.5t28.5 -19.5q31 0 99 74l16 -14l-10 -11q-57 -67 -84 -90.5t-50 -23.5q-30 0 -52.5 33.5t-22.5 76.5q0 30 13 95l231 1164z" />
    <glyph glyph-name="m" unicode="m" horiz-adv-x="969" 
d="M376 11l-66 -21l79 407l7 35q6 29 6 48q0 44 -35 44q-33 0 -80 -44.5t-99 -128.5q-34 -54 -58.5 -104t-45 -106.5t-39.5 -129.5l-62 -21l103 554l96 41l-87 -363q67 155 153.5 254.5t155.5 99.5q75 0 75 -85q0 -29 -15 -103l-33 -149q97 186 164 262.5t133 76.5
q37 0 58 -22t21 -63q0 -33 -20 -114l-31 -123l-10 -39q-14 -62 -14 -92q0 -32 11 -51.5t28 -19.5q32 0 100 74l15 -14l-9 -11q-57 -67 -84.5 -90.5t-50.5 -23.5q-31 0 -52.5 31.5t-21.5 78.5q0 29 13 95l37 207l6 36q6 30 6 48t-11 29t-30 11q-22 0 -48.5 -18.5t-56.5 -56.5
t-67 -100q-50 -85 -81 -158.5t-60 -180.5z" />
    <glyph glyph-name="n" unicode="n" horiz-adv-x="664" 
d="M-17 -10l106 554l95 41l-86 -367q83 175 165 266t157 91q37 0 60 -24.5t23 -65.5q0 -23 -11 -65l-10 -42l-30 -122l-10 -39q-15 -60 -15 -92t11 -51.5t29 -19.5q31 0 99 74l16 -14l-10 -11q-57 -67 -84 -90.5t-50 -23.5q-31 0 -52.5 31.5t-21.5 78.5q0 32 12 95l39 212
q8 50 8 70q0 21 -11 32t-30 11q-69 0 -170 -148q-49 -71 -81 -140.5t-72 -192.5l-9 -27z" />
    <glyph glyph-name="o" unicode="o" horiz-adv-x="600" 
d="M-27 192q0 90 48.5 179.5t125.5 145.5t157 56q84 0 135.5 -55.5t51.5 -143.5q0 -96 -47.5 -186t-125 -147.5t-156.5 -57.5q-85 0 -137 57.5t-52 151.5zM401 412q0 60 -29.5 99t-75.5 39q-42 0 -80.5 -27t-70.5 -79q-36 -60 -59.5 -140t-23.5 -142q0 -74 29 -114t83 -40
q87 0 153 121q34 62 54 139t20 144z" />
    <glyph glyph-name="p" unicode="p" horiz-adv-x="646" 
d="M-96 -397l189 941l96 41l-66 -287q74 149 139.5 214.5t143.5 65.5q60 0 95 -44t35 -121q0 -78 -31.5 -160t-88.5 -149q-103 -124 -227 -124q-78 0 -128 41l-103 -418h-54zM76 87q42 -82 118 -82q110 0 192 179q67 144 67 242q0 53 -20 82t-57 29q-60 0 -126 -79
q-63 -78 -107 -174q-17 -38 -31.5 -81t-27.5 -88z" />
    <glyph glyph-name="q" unicode="q" horiz-adv-x="617" 
d="M535 591l-249 -988h-53l139 635q-37 -77 -103 -155q-83 -99 -165 -99q-60 0 -95.5 43.5t-35.5 112.5q0 138 107 280q57 75 115.5 111.5t119.5 36.5q74 0 120 -51l8 35zM423 467q-30 73 -102 73q-42 0 -87.5 -33.5t-77.5 -85.5q-43 -69 -69.5 -148t-26.5 -137
q0 -47 22 -74.5t59 -27.5q47 0 103.5 57t104 150t66.5 188z" />
    <glyph glyph-name="r" unicode="r" horiz-adv-x="443" 
d="M-27 284q86 104 115 194q-81 45 -81 129q0 40 19 65t48 25q30 0 49 -27.5t19 -71.5q0 -31 -11 -69q27 -7 49 -7q62 0 102 36h48l-7 -14q-72 -132 -118.5 -259.5t-46.5 -190.5q0 -23 12 -38.5t29 -15.5q41 0 132 87l16 -18q-28 -31 -87 -77q-53 -42 -99 -42
q-39 0 -61.5 26t-22.5 71q0 75 58 190q21 43 54 98t83 131l10 14q-33 -30 -63.5 -42.5t-69.5 -12.5q-18 0 -38 5q-32 -98 -120 -202zM110 538q4 25 4 42q0 35 -11.5 55t-29.5 20q-10 0 -17.5 -9.5t-7.5 -23.5q0 -47 62 -84z" />
    <glyph glyph-name="s" unicode="s" horiz-adv-x="436" 
d="M-82 64l56 66q44 -104 140 -104q50 0 85.5 32.5t35.5 75.5q0 31 -17 53t-81 74q-59 48 -79.5 75.5t-20.5 63.5q0 47 27.5 87t73.5 64.5t97 24.5q45 0 75.5 -22.5t30.5 -57.5q0 -46 -39 -63q-6 47 -35.5 73.5t-75.5 26.5q-41 0 -71.5 -26.5t-30.5 -60.5q0 -42 52 -83
l58 -47q85 -67 85 -137q0 -52 -29.5 -97.5t-80 -72.5t-106.5 -27q-89 0 -150 82z" />
    <glyph glyph-name="t" unicode="t" horiz-adv-x="367" 
d="M164 534l-76 -333q-12 -55 -12 -78q0 -36 17 -58t45 -22q27 0 49.5 15.5t68.5 64.5l12 12l15 -15q-59 -72 -98.5 -101.5t-77.5 -29.5q-48 0 -76.5 31.5t-28.5 82.5q0 38 15 110l65 321h-96l7 34h96l56 270l96 38l-70 -308h162l-7 -34h-162z" />
    <glyph glyph-name="u" unicode="u" horiz-adv-x="617" 
d="M176 585l-97 -387q-13 -52 -13 -88q0 -35 22 -56t57 -21q85 0 177 139l4 6q2 10 3 16l63 350l98 41l-88 -329q-22 -81 -22 -130q0 -32 11 -52t29 -20q31 0 99 74l16 -14l-10 -11q-57 -67 -84 -90.5t-50 -23.5q-31 0 -52.5 31.5t-21.5 78.5q0 15 1 28q-104 -138 -206 -138
q-51 0 -81.5 29.5t-30.5 78.5q0 38 11 93l68 354z" />
    <glyph glyph-name="v" unicode="v" horiz-adv-x="523" 
d="M0 544l90 41v-26q3 -146 17 -307q8 -84 14 -124.5t14 -54.5t22 -14q37 0 132 141q85 124 85 229q0 37 -9 61.5t-34 49.5l75 70q35 -46 35 -112q0 -133 -158 -351q-48 -66 -102 -118q-25 -23 -40.5 -32.5t-30.5 -9.5q-24 0 -35 19t-17 72z" />
    <glyph glyph-name="w" unicode="w" horiz-adv-x="798" 
d="M0 544l90 41v-18v-8q0 -71 4 -132t15 -174q14 -132 21 -161t24 -29q22 0 72 70.5t98 170.5l-31 240l91 41l1 -25q8 -214 17 -307q3 -24 6 -50.5t4.5 -41.5t4.5 -34.5t4 -25.5q8 -33 26 -33q36 0 124 143q83 132 83 223q0 73 -48 106l76 70q35 -40 35 -104q0 -70 -39 -159
t-116 -199q-48 -67 -88 -111q-44 -50 -72 -50q-22 0 -33 20.5t-17 69.5l-22 179q-44 -89 -101 -166q-75 -103 -120 -103q-21 0 -31 18.5t-18 68.5z" />
    <glyph glyph-name="x" unicode="x" horiz-adv-x="488" 
d="M211 336l18 21l18 21q27 31 80 95l67 83l10 13h70l-10 -11q-79 -83 -131 -141q-80 -87 -102 -112l-3 -4l142 -302h-91l-109 236l-3 -4q-15 -16 -57 -68l-61 -74q-57 -71 -75 -90h-70l16 16q85 86 195 211l39 44l-131 284l71 29z" />
    <glyph glyph-name="y" unicode="y" horiz-adv-x="598" 
d="M-116 -355l49 66q58 -62 131 -62q77 0 124 61t77 200l46 207q-110 -129 -199 -129q-52 0 -81.5 32t-29.5 86q0 36 9 79l68 359l97 41l-97 -403q-12 -49 -12 -73q0 -34 20.5 -55.5t54.5 -21.5q37 0 81.5 32.5t99.5 97.5l86 382l94 41l-146 -588q-26 -106 -49.5 -166
t-54.5 -100q-98 -126 -239 -126q-82 0 -129 40z" />
    <glyph glyph-name="z" unicode="z" horiz-adv-x="473" 
d="M70 568h327l8 -24l-15 -18l-114 -137q-127 -154 -168 -205.5t-78 -105.5q50 -5 126 -5q66 0 132 2q19 0 62 3l-10 -79h-396l-12 26l14 16q16 18 40 46t59 69.5t56.5 67.5t33.5 41l92 117q52 66 87 113h-259z" />
    <glyph glyph-name="bar" unicode="|" horiz-adv-x="479" 
d="M229 1389h29v-1488h-29v1488z" />
    <glyph glyph-name="asciitilde" unicode="~" horiz-adv-x="571" 
d="M436 1269q-69 -67 -113 -67q-20 0 -40 16l-23 18q-22 18 -37 18q-27 0 -72 -44l-14 13q28 31 58.5 49.5t52.5 18.5q21 0 64 -32q26 -18 39 -18q30 0 71 43z" />
    <glyph glyph-name="nonbreakingspace" unicode="&#xa0;" horiz-adv-x="355" 
 />
    <glyph glyph-name="exclamdown" unicode="&#xa1;" horiz-adv-x="540" 
d="M61 -11l253 1020l28 12l-147 -973zM356 1104q-22 0 -40.5 11t-29.5 29.5t-11 40.5q0 35 23 58t58 23t58 -23t23 -58t-23 -58t-58 -23z" />
    <glyph glyph-name="cent" unicode="&#xa2;" horiz-adv-x="521" 
d="M312 712l19 95h24l-19 -96q42 -6 66 -31t24 -61q0 -34 -17 -53.5t-49 -21.5q26 34 26 67q0 60 -56 73l-108 -525q6 -1 13 -1q37 0 79 25.5t69 64.5l17 -13q-79 -121 -188 -126l-22 -109h-24l22 110q-14 1 -34 6l-23 -116h-24l25 124l-3 1q-109 55 -109 197q0 72 32 151
t85.5 140t112.5 85l22 109h24l-20 -100q22 5 36 5zM306 685q-16 -1 -37 -9l-102 -498q17 -10 32 -15zM243 662q-57 -35 -99.5 -132t-42.5 -196q0 -94 46 -139z" />
    <glyph glyph-name="sterling" unicode="&#xa3;" horiz-adv-x="606" 
d="M186 375q0 -5 -1 -12.5t-2 -16.5l-1 -5h202l-4 -23h-203q-30 -117 -146 -233q48 6 88 6q29 0 42 -1l77 -7q42 -2 63 -2q57 0 92.5 24t57.5 78h19l-62 -183q-46 -9 -103 -9q-46 0 -135 10q-90 9 -128 9q-51 0 -76 -5l-35 -7q-4 -1 -6.5 -1.5l-12.5 -2.5l-8 17
q101 69 149.5 141.5t54.5 165.5h-106l4 23h103v4q0 7 -1 22v8h-95l5 23h88l-1 10q-7 75 -7 109q0 140 105 235q73 67 162 67q62 0 102.5 -34.5t40.5 -86.5q0 -33 -20.5 -58.5t-48.5 -25.5q-2 0 -16 2q18 31 18 61q0 52 -28 83.5t-76 31.5q-76 0 -119.5 -60.5t-43.5 -162.5
q0 -28 5 -81q6 -48 8 -90h209l-5 -23h-205z" />
    <glyph glyph-name="currency" unicode="&#xa4;" horiz-adv-x="1024" 
d="M481 950q-111 0 -189.5 -79.5t-78.5 -190.5t78.5 -189.5t189.5 -78.5t189.5 78.5t78.5 189.5t-78.5 190.5t-189.5 79.5zM127 828q17 39 57 96l-118 118l52 53l121 -114q43 32 85 50q75 33 159 33q82 0 146 -29q39 -17 93 -59l119 119l57 -53l-121 -118q40 -51 56 -89
q32 -67 32 -162q0 -62 -19 -117t-69 -118l121 -119l-57 -56l-119 118q-54 -42 -110.5 -62.5t-130.5 -20.5q-93 0 -163 32q-39 19 -79 53l-121 -120l-52 56l118 119q-43 55 -65 114t-22 123q0 84 30 153z" />
    <glyph glyph-name="yen" unicode="&#xa5;" horiz-adv-x="652" 
d="M314 396h149l-5 -24h-163l-7 -33h163l-5 -26h-163l-64 -312h-77l64 312h-165l5 26h165l7 33h-165l5 24h152l-73 231q-32 101 -75 162l99 28l125 -414q102 127 177.5 237t101.5 164h74z" />
    <glyph glyph-name="brokenbar" unicode="&#xa6;" horiz-adv-x="479" 
d="M229 1389h29v-638h-29v638zM229 539h29v-638h-29v638z" />
    <glyph glyph-name="dieresis" unicode="&#xa8;" horiz-adv-x="523" 
d="M183 793q14 0 24.5 -6t16.5 -16.5t6 -24.5q0 -19 -14 -33t-33 -14q-18 0 -32 14t-14 33q0 21 13 34t33 13zM340 793q13 0 23.5 -6t16.5 -16.5t6 -24.5q0 -19 -14 -33t-32 -14q-19 0 -33 14t-14 33q0 21 13 34t34 13z" />
    <glyph glyph-name="ordfeminine" unicode="&#xaa;" horiz-adv-x="666" 
d="M537 1491l-94 -366q-15 -60 -15 -94q0 -30 13 -52t32 -22q29 0 96 71l14 -14l-11 -13q-53 -61 -81.5 -85.5t-49.5 -24.5q-32 0 -55.5 33.5t-23.5 77.5q0 32 24 145l8 38q-37 -86 -99 -165q-104 -132 -199 -132q-57 0 -90 41t-33 110q0 94 53.5 197t133 169.5t154.5 66.5
q79 0 118 -58l11 38zM422 1363q-12 38 -40.5 59.5t-65.5 21.5q-44 0 -93 -40.5t-90 -112.5q-32 -57 -53.5 -126t-21.5 -114q0 -51 19.5 -80t55.5 -29q46 0 96 43t99 123q30 46 47 92t38 128zM501 727l-9 -45h-544l9 45h544z" />
    <glyph glyph-name="guillemotleft" unicode="&#xab;" horiz-adv-x="538" 
d="M237 508l-123 -203l32 -204h-18q-28 117 -108 204q112 95 199 203h18zM381 508l-123 -203l32 -204h-17q-30 117 -108 204q109 92 198 203h18z" />
    <glyph glyph-name="logicalnot" unicode="&#xac;" horiz-adv-x="1460" 
d="M1163 270h-139v287h-811v139h950v-426z" />
    <glyph glyph-name="softhyphen" unicode="&#xad;" horiz-adv-x="250" 
d="M68 625h-17l8 130l2 21q4 49 33 49t29 -29q0 -16 -15 -57zM165 625h-16l8 130l2 21q4 49 32 49q14 0 22 -8t8 -21q0 -12 -15 -57z" />
    <glyph glyph-name="macron" unicode="&#xaf;" horiz-adv-x="428" 
d="M340 1350l-9 -45h-244l9 45h244z" />
    <glyph glyph-name="degree" unicode="&#xb0;" horiz-adv-x="864" 
d="M432 1240q64 0 112 -48t48 -112q0 -66 -48 -112t-112 -46q-66 0 -112 46t-46 112q0 64 46 112t112 48zM432 1178q-42 0 -70 -30t-28 -68t30 -68t68 -30t68 28t30 70t-28 70t-70 28z" />
    <glyph glyph-name="plusminus" unicode="&#xb1;" horiz-adv-x="621" 
d="M106 172h384v-44h-384v44zM106 442h170v170h44v-170h170v-44h-170v-170h-44v170h-170v44z" />
    <glyph glyph-name="twosuperior" unicode="&#xb2;" horiz-adv-x="302" 
d="M236 992l-30 -91q-23 -5 -49 -5q-25 0 -56 3q-56 7 -82 7q-35 0 -74 -10v14q33 22 71 51.5t80 66.5t66.5 66.5t35.5 57.5t11 57q0 41 -20.5 65t-55.5 24q-34 0 -59.5 -22.5t-25.5 -52.5q0 -15 8.5 -27t21.5 -16q-8 -14 -25 -14t-27.5 11.5t-10.5 29.5q0 39 41.5 72.5
t89.5 33.5t77.5 -28t29.5 -74q0 -35 -17 -66t-56 -69q-36 -35 -120 -97q-39 -29 -50 -37q21 3 44 3q18 0 34 -1l41 -3q17 -1 25 -1q27 0 44 12t31 40h7z" />
    <glyph glyph-name="threesuperior" unicode="&#xb3;" horiz-adv-x="316" 
d="M268 1290l-118 -128q29 -7 49.5 -23.5t31.5 -41t11 -52.5q0 -41 -22 -76.5t-59 -57t-79 -21.5q-47 0 -80 25t-33 61q0 19 10 32t28 14q-3 -10 -3 -19q0 -26 12.5 -48.5t34 -35.5t48.5 -13q28 0 54 15.5t41.5 42t15.5 54.5t-13 52.5t-36.5 41t-52.5 22.5l117 130h-85h-25
q-32 0 -45.5 -8.5t-27.5 -36.5h-11l38 93q13 -5 28 -6q20 -2 53 -2h115z" />
    <glyph glyph-name="acute" unicode="&#xb4;" horiz-adv-x="502" 
d="M366 814l-209 -154l-20 7l164 165z" />
    <glyph glyph-name="micro" unicode="&#xb5;" horiz-adv-x="617" 
d="M176 585l-97 -387q-5 -18 -6.5 -39t-1.5 -39q1 -45 20 -66t54 -21q43 0 89.5 35t91.5 110l66 366l98 41l-88 -329q-22 -79 -22 -130q0 -32 11 -52t29 -20q31 0 99 74l16 -14l-10 -11q-29 -34 -49.5 -56.5t-34.5 -34.5q-28 -23 -50 -23q-31 0 -52.5 31t-21.5 79v14.5
t1 13.5q-104 -138 -206 -138q-51 0 -73 27t-28 78l-86 -493l-95 -16q86 280 131 430.5t50 174.5l68 354z" />
    <glyph glyph-name="periodcentered" unicode="&#xb7;" horiz-adv-x="333" 
d="M197 433q0 -40 -25.5 -68.5t-60.5 -28.5q-70 0 -70 70q0 28 12 50t31.5 35.5t42.5 13.5q32 0 51 -20t19 -52z" />
    <glyph glyph-name="cedilla" unicode="&#xb8;" horiz-adv-x="309" 
d="M167 -14l25 -1l-36 -66q15 4 24 4q26 0 41.5 -17.5t15.5 -43.5q0 -40 -29.5 -67t-75.5 -27q-42 0 -71 22l11 18q17 -17 44 -17q28 0 51 22t23 49q0 32 -28 32q-12 0 -26 -8l-19 9z" />
    <glyph glyph-name="onesuperior" unicode="&#xb9;" horiz-adv-x="197" 
d="M118 900h-152l2 13h14q25 0 34.5 8t14.5 31l4 18l43 209l3 18q3 13 3 20q0 13 -11 13q-8 0 -23 -8l-42 -23l-2 11l9 7l56 39q37 26 64 48h13q-13 -41 -29 -120l-44 -214q-5 -26 -5 -36q0 -13 6.5 -17t26.5 -4h18z" />
    <glyph glyph-name="ordmasculine" unicode="&#xba;" horiz-adv-x="600" 
d="M-27 1092q0 90 48.5 179.5t125.5 145.5t157 56q84 0 135.5 -55.5t51.5 -143.5q0 -96 -47.5 -186t-125 -147.5t-156.5 -57.5q-85 0 -137 57.5t-52 151.5zM401 1312q0 60 -29.5 99t-75.5 39q-42 0 -80.5 -27t-70.5 -79q-36 -60 -59.5 -140t-23.5 -142q0 -74 29 -114t83 -40
q87 0 153 121q34 62 54 139t20 144zM401 727l-9 -45h-444l9 45h444z" />
    <glyph glyph-name="guillemotright" unicode="&#xbb;" horiz-adv-x="538" 
d="M165 101l123 203l-32 204h17q29 -116 108 -204q-49 -40 -100 -93t-98 -110h-18zM20 101l124 203l-32 204h17q30 -118 108 -204q-49 -40 -100 -93t-98 -110h-19z" />
    <glyph glyph-name="onequarter" unicode="&#xbc;" horiz-adv-x="900" 
d="M878 1433l-845 -1590l-25 14l844 1589zM246 900h-152l2 13h14q25 0 34.5 8t14.5 31l4 18l43 209l3 18q3 13 3 20q0 13 -11 13q-8 0 -23 -8l-42 -23l-2 11l9 7l56 39q37 26 64 48h13q-13 -41 -29 -120l-44 -214q-5 -26 -5 -36q0 -13 6.5 -17t26.5 -4h18zM796 146h3
q25 -5 43 -5q14 0 23 1.5t27 9.5l-18 -44q-17 -5 -37 -5q-22 0 -47 5l-18 -117h-45l32 124h-2q-44 10 -75 10q-43 0 -74 -17l-8 8q33 30 73 99q21 35 33 71.5t12 67.5q0 14 -4 26l52 31q1 -14 1 -15q0 -31 -9.5 -60t-37.5 -78q-16 -27 -42.5 -65t-51.5 -65l9 3q64 23 102 23
q14 0 25 -2q4 0 7 -1l33 124l15 9z" />
    <glyph glyph-name="onehalf" unicode="&#xbd;" horiz-adv-x="900" 
d="M883 1433l-845 -1590l-25 14l844 1589zM251 900h-152l2 13h14q25 0 34.5 8t14.5 31l4 18l43 209l3 18q3 13 3 20q0 13 -11 13q-8 0 -23 -8l-42 -23l-2 11l9 7l56 39q37 26 64 48h13q-13 -41 -29 -120l-44 -214q-5 -26 -5 -36q0 -13 6.5 -17t26.5 -4h18zM869 92l-30 -91
q-23 -5 -49 -5q-25 0 -56 3q-56 7 -82 7q-35 0 -74 -10v14q33 22 71 51.5t80 66.5t66.5 66.5t35.5 57.5t11 57q0 41 -20.5 65t-55.5 24q-34 0 -59.5 -22.5t-25.5 -52.5q0 -15 8.5 -27t21.5 -16q-8 -14 -25 -14t-27.5 11.5t-10.5 29.5q0 39 41.5 72.5t89.5 33.5t77.5 -28
t29.5 -74q0 -35 -17 -66t-56 -69q-36 -35 -120 -97q-39 -29 -50 -37q21 3 44 3q18 0 34 -1l41 -3q17 -1 25 -1q27 0 44 12t31 40h7z" />
    <glyph glyph-name="threequarters" unicode="&#xbe;" horiz-adv-x="900" 
d="M878 1433l-845 -1590l-25 14l844 1589zM396 1290l-118 -128q29 -7 49.5 -23.5t31.5 -41t11 -52.5q0 -41 -22 -76.5t-59 -57t-79 -21.5q-47 0 -80 25t-33 61q0 19 10 32t28 14q-3 -10 -3 -19q0 -26 12.5 -48.5t34 -35.5t48.5 -13q28 0 54 15.5t41.5 42t15.5 54.5t-13 52.5
t-36.5 41t-52.5 22.5l117 130h-85h-25q-32 0 -45.5 -8.5t-27.5 -36.5h-11l38 93q13 -5 28 -6q20 -2 53 -2h115zM796 146h3q25 -5 43 -5q14 0 23 1.5t27 9.5l-18 -44q-17 -5 -37 -5q-22 0 -47 5l-18 -117h-45l32 124h-2q-44 10 -75 10q-43 0 -74 -17l-8 8q33 30 73 99
q21 35 33 71.5t12 67.5q0 14 -4 26l52 31q1 -14 1 -15q0 -31 -9.5 -60t-37.5 -78q-16 -27 -42.5 -65t-51.5 -65l9 3q64 23 102 23q14 0 25 -2q4 0 7 -1l33 124l15 9z" />
    <glyph glyph-name="questiondown" unicode="&#xbf;" horiz-adv-x="728" 
d="M365 961l27 68h11q42 0 75 -18.5t51.5 -53t18.5 -76.5q0 -78 -63 -179q-29 -47 -151 -200q-48 -61 -76 -95q-89 -113 -124 -174.5t-35 -105.5q0 -43 30 -73t75 -30q104 0 230 135q60 63 99 132l28 -103q-63 -88 -154.5 -143.5t-176.5 -55.5q-76 0 -122.5 46.5
t-46.5 122.5q0 74 51.5 173t163.5 235l89 108q93 113 119.5 157t26.5 82q0 31 -19 48.5t-54 17.5q-24 0 -73 -18zM504 1101q-34 0 -58 23t-24 58t24 58t58 23q33 0 57 -23t24 -58t-24 -58t-57 -23z" />
    <glyph glyph-name="Agrave" unicode="&#xc0;" horiz-adv-x="1336" 
d="M1168 383l-96 -389h-64q-37 104 -118.5 201.5t-184.5 160.5q-68 -93 -152.5 -167t-179 -126.5t-197 -81.5t-200.5 -29q-27 0 -58 4l32 67q53 -5 80 -5q275 0 489 188q44 38 90 88.5t95 118.5q109 150 186 281l94 159q111 187 171.5 253.5t119.5 66.5q19 0 33.5 -7
t22.5 -20.5t8 -30.5q0 -12 -5 -36q-5 -32 -6 -34l-153 -632h71l-7 -30h-71zM1073 383h-349l4 -2q89 -60 153 -123.5t125 -150.5zM751 413h329l143 597q7 29 7 30q6 18 6 32q0 22 -22 22q-27 0 -65 -50t-133 -206q-14 -24 -57 -96q-36 -57 -39 -63l-96 -153q-60 -96 -73 -113
zM1230 1380l59 -147l-19 -4l-99 136z" />
    <glyph glyph-name="Aacute" unicode="&#xc1;" horiz-adv-x="1336" 
d="M1165 443l-95 -443h-64q-37 118 -118.5 229t-184.5 183q-68 -106 -152 -190t-178.5 -144t-196.5 -93t-200 -33q-27 0 -58 5l32 76q53 -6 80 -6q274 0 488 214q44 44 89.5 101.5t94.5 134.5q109 171 186 320l94 181q111 213 171 288.5t119 75.5q19 0 33.5 -8t22.5 -23.5
t8 -34.5q0 -14 -5 -41q-5 -36 -6 -39l-153 -719h71l-7 -34h-71zM1071 443h-349l4 -3q89 -68 153 -140t125 -172zM749 477h329l142 680q7 33 7 34q6 20 6 36q0 25 -22 25q-27 0 -65 -57t-132 -234q-14 -27 -57 -109q-36 -65 -39 -72l-96 -175q-60 -109 -73 -128zM1438 1565
l-209 -154l-20 7l164 165z" />
    <glyph glyph-name="Acircumflex" unicode="&#xc2;" horiz-adv-x="1336" 
d="M1165 443l-95 -443h-64q-37 118 -118.5 229t-184.5 183q-68 -106 -152 -190t-178.5 -144t-196.5 -93t-200 -33q-27 0 -58 5l32 76q53 -6 80 -6q274 0 488 214q44 44 89.5 101.5t94.5 134.5q109 171 186 320l94 181q111 213 171 288.5t119 75.5q19 0 33.5 -8t22.5 -23.5
t8 -34.5q0 -14 -5 -41q-5 -36 -6 -39l-153 -719h71l-7 -34h-71zM1071 443h-349l4 -3q89 -68 153 -140t125 -172zM749 477h329l142 680q7 33 7 34q6 20 6 36q0 25 -22 25q-27 0 -65 -57t-132 -234q-14 -27 -57 -109q-36 -65 -39 -72l-96 -175q-60 -109 -73 -128zM1281 1478
l-135 -47l-7 15l154 98l115 -98l-11 -15z" />
    <glyph glyph-name="Atilde" unicode="&#xc3;" horiz-adv-x="1335" 
d="M1467 1470q-69 -67 -113 -67q-20 0 -40 16l-23 18q-22 18 -37 18q-27 0 -72 -44l-14 13q28 31 58.5 49.5t52.5 18.5q21 0 64 -32q26 -18 39 -18q30 0 71 43zM1165 443l-95 -443h-64q-37 118 -118.5 229t-184.5 183q-68 -106 -152 -190t-178.5 -144t-196.5 -93t-200 -33
q-27 0 -58 5l32 76q53 -6 80 -6q274 0 488 214q44 44 89.5 101.5t94.5 134.5q109 171 186 320l94 181q111 213 171 288.5t119 75.5q19 0 33.5 -8t22.5 -23.5t8 -34.5q0 -14 -5 -41q-5 -36 -6 -39l-153 -719h71l-7 -34h-71zM1071 443h-349l4 -3q89 -68 153 -140t125 -172z
M749 477h329l142 680q7 33 7 34q6 20 6 36q0 25 -22 25q-27 0 -65 -57t-132 -234q-14 -27 -57 -109q-36 -65 -39 -72l-96 -175q-60 -109 -73 -128z" />
    <glyph glyph-name="Adieresis" unicode="&#xc4;" horiz-adv-x="1336" 
d="M1165 443l-95 -443h-64q-37 118 -118.5 229t-184.5 183q-68 -106 -152 -190t-178.5 -144t-196.5 -93t-200 -33q-27 0 -58 5l32 76q53 -6 80 -6q274 0 488 214q44 44 89.5 101.5t94.5 134.5q109 171 186 320l94 181q111 213 171 288.5t119 75.5q19 0 33.5 -8t22.5 -23.5
t8 -34.5q0 -14 -5 -41q-5 -36 -6 -39l-153 -719h71l-7 -34h-71zM1071 443h-349l4 -3q89 -68 153 -140t125 -172zM749 477h329l142 680q7 33 7 34q6 20 6 36q0 25 -22 25q-27 0 -65 -57t-132 -234q-14 -27 -57 -109q-36 -65 -39 -72l-96 -175q-60 -109 -73 -128zM1198 1497
q14 0 24.5 -6t16.5 -16.5t6 -24.5q0 -19 -14 -33t-33 -14q-18 0 -32 14t-14 33q0 21 13 34t33 13zM1355 1497q13 0 23.5 -6t16.5 -16.5t6 -24.5q0 -19 -14 -33t-32 -14q-19 0 -33 14t-14 33q0 21 13 34t34 13z" />
    <glyph glyph-name="Aring" unicode="&#xc5;" horiz-adv-x="1336" 
d="M1165 443l-95 -443h-64q-37 118 -118.5 229t-184.5 183q-68 -106 -152 -190t-178.5 -144t-196.5 -93t-200 -33q-27 0 -58 5l32 76q53 -6 80 -6q274 0 488 214q44 44 89.5 101.5t94.5 134.5q109 171 186 320l94 181q111 213 171 288.5t119 75.5q19 0 33.5 -8t22.5 -23.5
t8 -34.5q0 -14 -5 -41q-5 -36 -6 -39l-153 -719h71l-7 -34h-71zM1071 443h-349l4 -3q89 -68 153 -140t125 -172zM749 477h329l142 680q7 33 7 34q6 20 6 36q0 25 -22 25q-27 0 -65 -57t-132 -234q-14 -27 -57 -109q-36 -65 -39 -72l-96 -175q-60 -109 -73 -128zM1284 1565
q32 0 56 -24t24 -56q0 -33 -24 -56t-56 -23q-33 0 -56 23t-23 56q0 32 23 56t56 24zM1284 1534q-21 0 -35 -15t-14 -34t15 -34t34 -15t34 14t15 35t-14 35t-35 14z" />
    <glyph glyph-name="AE" unicode="&#xc6;" horiz-adv-x="2083" 
d="M1899 201l-24 -119q-128 -60 -250 -92t-222 -32q-83 0 -149.5 18t-113.5 52q-31 24 -53 53l-17 -81h-64q-38 120 -119 229q-82 112 -184 183q-67 -105 -152 -190t-179.5 -145t-195.5 -92.5t-200 -32.5q-14 0 -28 1.5t-30 3.5l32 76q53 -6 80 -6q274 0 488 214
q45 45 90 101.5t94 134.5q55 86 101.5 165.5t84.5 154.5l94 181q57 109 98 179.5t74 111.5t60.5 57t57.5 16q29 0 46.5 -18t17.5 -48q0 -7 -2 -21l-4 -27q-2 -13 -3.5 -23t-1.5 -9l-148 -693q57 59 136 115q88 62 201 119q-108 18 -108 112q0 135 232 301q54 39 110 71
t108.5 54.5t99.5 35t84 12.5q54 0 82.5 -30t28.5 -81q0 -32 -14 -74t-38.5 -87t-58.5 -89.5t-73 -82.5l-53 58q156 173 156 274q0 69 -82 69q-40 0 -92.5 -18t-107.5 -48.5t-108 -70t-95 -83.5t-67.5 -89.5t-25.5 -86.5q0 -29 18.5 -55t45.5 -37q14 -5 38 -8t59 -5h17
l-13 -64q-151 -64 -303 -177q-158 -117 -217 -225l-33 -154q4 -25 15 -46q17 -34 47 -58.5t71.5 -38t90.5 -13.5q53 0 112 11.5t128.5 35.5t151.5 61.5t179 89.5zM749 477h329l142 680q5 21 7 31l4 16q2 6 2 10v13q0 25 -22 25q-16 0 -32.5 -15t-43.5 -58t-69 -121.5
t-109 -205.5q-17 -32 -27.5 -49.5t-11.5 -22.5l-96 -175q-59 -108 -73 -128zM1071 443h-349l4 -3q87 -66 153 -140q32 -36 63 -78.5t62 -93.5z" />
    <glyph glyph-name="Ccedilla" unicode="&#xc7;" horiz-adv-x="986" 
d="M379 -25l-36 -67q15 4 24 4q26 0 41.5 -17.5t15.5 -43.5q0 -41 -29.5 -67.5t-75.5 -26.5q-41 0 -71 21l10 19q17 -17 45 -17t51 22t23 49q0 31 -29 31q-11 0 -25 -7l-19 9l51 93q-151 18 -239.5 130.5t-88.5 287.5q0 92 27 192t80.5 202.5t126.5 198.5q77 102 171 182.5
t188.5 124.5t169.5 44q71 0 113.5 -40.5t42.5 -109.5q0 -77 -51 -160.5t-136 -149t-182 -92.5l-28 76q93 27 176 83t130.5 124t47.5 134q0 49 -31.5 77t-84.5 28q-63 0 -138 -33t-148.5 -92t-140.5 -142q-73 -91 -122 -190t-74 -201.5t-25 -212.5q0 -187 86 -296.5
t235 -109.5q96 0 186.5 43t207.5 144l16 13l12 -22q-239 -236 -479 -236q-13 0 -24 1z" />
    <glyph glyph-name="Egrave" unicode="&#xc8;" horiz-adv-x="1025" 
d="M855 218l-24 -119q-127 -60 -249.5 -92t-222.5 -32q-110 0 -191 31.5t-124.5 91.5t-43.5 141q0 135 122 268.5t348 246.5q-108 18 -108 112q0 134 232 301q72 52 146.5 91.5t140 60.5t115.5 21q52 0 81.5 -28.5t29.5 -77.5q0 -45 -22.5 -103t-65.5 -121t-96 -114l-53 58
q156 172 156 274q0 69 -82 69q-52 0 -128 -31t-151 -83q-100 -68 -158.5 -145t-58.5 -137q0 -29 18.5 -55t45.5 -37q28 -10 97 -13h17l-13 -64q-151 -65 -303 -177q-252 -186 -252 -350q0 -82 63.5 -133.5t162.5 -51.5q69 0 152.5 21t185.5 64t233 113zM921 1564l59 -167
l-19 -5l-99 155z" />
    <glyph glyph-name="Eacute" unicode="&#xc9;" horiz-adv-x="1025" 
d="M855 218l-24 -119q-127 -60 -249.5 -92t-222.5 -32q-110 0 -191 31.5t-124.5 91.5t-43.5 141q0 135 122 268.5t348 246.5q-108 18 -108 112q0 134 232 301q72 52 146.5 91.5t140 60.5t115.5 21q52 0 81.5 -28.5t29.5 -77.5q0 -45 -22.5 -103t-65.5 -121t-96 -114l-53 58
q156 172 156 274q0 69 -82 69q-52 0 -128 -31t-151 -83q-100 -68 -158.5 -145t-58.5 -137q0 -29 18.5 -55t45.5 -37q28 -10 97 -13h17l-13 -64q-151 -65 -303 -177q-252 -186 -252 -350q0 -82 63.5 -133.5t162.5 -51.5q69 0 152.5 21t185.5 64t233 113zM1097 1565l-209 -154
l-20 7l164 165z" />
    <glyph glyph-name="Ecircumflex" unicode="&#xca;" horiz-adv-x="1025" 
d="M855 218l-24 -119q-127 -60 -249.5 -92t-222.5 -32q-110 0 -191 31.5t-124.5 91.5t-43.5 141q0 135 122 268.5t348 246.5q-108 18 -108 112q0 134 232 301q72 52 146.5 91.5t140 60.5t115.5 21q52 0 81.5 -28.5t29.5 -77.5q0 -45 -22.5 -103t-65.5 -121t-96 -114l-53 58
q156 172 156 274q0 69 -82 69q-52 0 -128 -31t-151 -83q-100 -68 -158.5 -145t-58.5 -137q0 -29 18.5 -55t45.5 -37q28 -10 97 -13h17l-13 -64q-151 -65 -303 -177q-252 -186 -252 -350q0 -82 63.5 -133.5t162.5 -51.5q69 0 152.5 21t185.5 64t233 113zM971 1478l-135 -47
l-7 15l154 98l115 -98l-11 -15z" />
    <glyph glyph-name="Edieresis" unicode="&#xcb;" horiz-adv-x="1025" 
d="M855 218l-24 -119q-127 -60 -249.5 -92t-222.5 -32q-110 0 -191 31.5t-124.5 91.5t-43.5 141q0 135 122 268.5t348 246.5q-108 18 -108 112q0 134 232 301q72 52 146.5 91.5t140 60.5t115.5 21q52 0 81.5 -28.5t29.5 -77.5q0 -45 -22.5 -103t-65.5 -121t-96 -114l-53 58
q156 172 156 274q0 69 -82 69q-52 0 -128 -31t-151 -83q-100 -68 -158.5 -145t-58.5 -137q0 -29 18.5 -55t45.5 -37q28 -10 97 -13h17l-13 -64q-151 -65 -303 -177q-252 -186 -252 -350q0 -82 63.5 -133.5t162.5 -51.5q69 0 152.5 21t185.5 64t233 113zM866 1526
q14 0 24.5 -6t16.5 -16.5t6 -24.5q0 -19 -14 -33t-33 -14q-18 0 -32 14t-14 33q0 21 13 34t33 13zM1023 1526q13 0 23.5 -6t16.5 -16.5t6 -24.5q0 -19 -14 -33t-32 -14q-19 0 -33 14t-14 33q0 21 13 34t34 13z" />
    <glyph glyph-name="Igrave" unicode="&#xcc;" horiz-adv-x="295" 
d="M348 1409l-263 -1153l-9 -39q-13 -55 -13 -93q0 -31 11.5 -50.5t28.5 -19.5q31 0 99 74l16 -14l-10 -11q-57 -67 -84 -90.5t-50 -23.5q-30 0 -52.5 33.5t-22.5 76.5q0 30 13 95l231 1164zM317 1641l59 -167l-19 -5l-99 155z" />
    <glyph glyph-name="Iacute" unicode="&#xcd;" horiz-adv-x="295" 
d="M348 1409l-263 -1153l-9 -39q-13 -55 -13 -93q0 -31 11.5 -50.5t28.5 -19.5q31 0 99 74l16 -14l-10 -11q-57 -67 -84 -90.5t-50 -23.5q-30 0 -52.5 33.5t-22.5 76.5q0 30 13 95l231 1164zM500 1587l-209 -154l-20 7l164 165z" />
    <glyph glyph-name="Icircumflex" unicode="&#xce;" horiz-adv-x="295" 
d="M348 1409l-263 -1153l-9 -39q-13 -55 -13 -93q0 -31 11.5 -50.5t28.5 -19.5q31 0 99 74l16 -14l-10 -11q-57 -67 -84 -90.5t-50 -23.5q-30 0 -52.5 33.5t-22.5 76.5q0 30 13 95l231 1164zM326 1525l-135 -47l-7 15l154 98l115 -98l-11 -15z" />
    <glyph glyph-name="Idieresis" unicode="&#xcf;" horiz-adv-x="295" 
d="M348 1409l-263 -1153l-9 -39q-13 -55 -13 -93q0 -31 11.5 -50.5t28.5 -19.5q31 0 99 74l16 -14l-10 -11q-57 -67 -84 -90.5t-50 -23.5q-30 0 -52.5 33.5t-22.5 76.5q0 30 13 95l231 1164zM237 1593q14 0 24.5 -6t16.5 -16.5t6 -24.5q0 -19 -14 -33t-33 -14q-18 0 -32 14
t-14 33q0 21 13 34t33 13zM394 1593q13 0 23.5 -6t16.5 -16.5t6 -24.5q0 -19 -14 -33t-32 -14q-19 0 -33 14t-14 33q0 21 13 34t34 13z" />
    <glyph glyph-name="Eth" unicode="&#xd0;" horiz-adv-x="1451" 
d="M891 1289l109 48q-12 -86 -25 -141l-20 -85l-7 -31q89 -66 157 -141t118 -159t74.5 -166t24.5 -162q0 -104 -37 -191t-106.5 -152t-164 -101t-202.5 -36q-167 0 -362 68l-25 9q-74 -42 -143 -62t-141 -20q-75 0 -121.5 28.5t-46.5 74.5q0 36 25.5 62.5t71.5 41.5t107 15
q86 0 278 -53l23 -7q64 62 124 173q40 74 80 180h-194l9 45h202q39 109 78 249q45 155 69 270q-73 57 -164 103t-180 72t-159 26q-83 0 -132.5 -38.5t-49.5 -103.5q0 -41 25.5 -82.5t71.5 -78.5t115 -68l-62 -61q-88 46 -137.5 117t-49.5 150q0 66 35 116.5t98 78.5t142 28
q203 0 466 -165q21 76 26 149zM941 527l-9 -45h-169q-107 -247 -245 -367l27 -9q125 -38 206 -54t155 -16q104 0 188.5 50t134 139t49.5 195q0 276 -352 568q-9 -42 -44 -164q-57 -192 -96 -288q-2 -5 -4 -9h159zM389 62q-179 55 -283 55q-44 0 -68.5 -14.5t-24.5 -40.5
q0 -28 39 -48t97 -20q117 0 240 68z" />
    <glyph glyph-name="Ntilde" unicode="&#xd1;" horiz-adv-x="1051" 
d="M860 1419q-69 -67 -113 -67q-20 0 -40 16l-23 18q-22 18 -37 18q-27 0 -72 -44l-14 13q28 31 58.5 49.5t52.5 18.5q21 0 64 -32q26 -18 39 -18q30 0 71 43zM782 0h-96l229 1040q14 62 14 92q0 34 -16.5 54t-45.5 20q-89 0 -211 -198q-48 -77 -102.5 -184t-97.5 -202.5
t-87 -210.5t-78 -223l-53 -169l-6 -19h-85l6 20q66 228 149 635q32 153 56 288q33 181 33 252q0 37 -8 66.5t-22.5 44.5t-34.5 15q-81 0 -136 -200q-43 -153 -57 -277l-78 54q20 125 62 230.5t95 164t107 58.5q64 0 100.5 -69t36.5 -191q0 -100 -19 -220q-13 -82 -28 -163
l-51 -246l9 22q87 212 166.5 367t148.5 251q124 169 230 169q49 0 80.5 -34.5t31.5 -89.5q0 -47 -17 -124z" />
    <glyph glyph-name="Ograve" unicode="&#xd2;" horiz-adv-x="1224" 
d="M1183 858q0 -138 -46 -278.5t-129 -263.5q-71 -105 -160.5 -180.5t-189.5 -113.5t-206 -38q-93 0 -172.5 33t-136 94.5t-86.5 149t-30 190.5q0 167 61 328t164 286.5t234.5 198.5t268.5 73q127 0 224 -60t150.5 -169t53.5 -250zM1068 900q0 93 -23 167.5t-66 126t-104 79
t-141 27.5q-83 0 -164.5 -36.5t-153 -107t-128.5 -171.5q-64 -112 -105 -268.5t-41 -289.5q0 -125 40.5 -217t116.5 -142t175 -50q93 0 184.5 47t168.5 133t130 200q47 101 79 242.5t32 259.5zM751 1561l59 -167l-19 -5l-99 155z" />
    <glyph glyph-name="Oacute" unicode="&#xd3;" horiz-adv-x="1224" 
d="M1183 858q0 -138 -46 -278.5t-129 -263.5q-71 -105 -160.5 -180.5t-189.5 -113.5t-206 -38q-93 0 -172.5 33t-136 94.5t-86.5 149t-30 190.5q0 167 61 328t164 286.5t234.5 198.5t268.5 73q127 0 224 -60t150.5 -169t53.5 -250zM1068 900q0 93 -23 167.5t-66 126t-104 79
t-141 27.5q-83 0 -164.5 -36.5t-153 -107t-128.5 -171.5q-64 -112 -105 -268.5t-41 -289.5q0 -125 40.5 -217t116.5 -142t175 -50q93 0 184.5 47t168.5 133t130 200q47 101 79 242.5t32 259.5zM935 1565l-209 -154l-20 7l164 165z" />
    <glyph glyph-name="Ocircumflex" unicode="&#xd4;" horiz-adv-x="1224" 
d="M1183 858q0 -138 -46 -278.5t-129 -263.5q-71 -105 -160.5 -180.5t-189.5 -113.5t-206 -38q-93 0 -172.5 33t-136 94.5t-86.5 149t-30 190.5q0 167 61 328t164 286.5t234.5 198.5t268.5 73q127 0 224 -60t150.5 -169t53.5 -250zM1068 900q0 93 -23 167.5t-66 126t-104 79
t-141 27.5q-83 0 -164.5 -36.5t-153 -107t-128.5 -171.5q-64 -112 -105 -268.5t-41 -289.5q0 -125 40.5 -217t116.5 -142t175 -50q93 0 184.5 47t168.5 133t130 200q47 101 79 242.5t32 259.5zM832 1509l-135 -47l-7 15l154 98l115 -98l-11 -15z" />
    <glyph glyph-name="Otilde" unicode="&#xd5;" horiz-adv-x="1225" 
d="M1040 1492q-69 -67 -113 -67q-20 0 -40 16l-23 18q-22 18 -37 18q-27 0 -72 -44l-14 13q28 31 58.5 49.5t52.5 18.5q21 0 64 -32q26 -18 39 -18q30 0 71 43zM1183 858q0 -138 -46 -278.5t-129 -263.5q-71 -105 -160.5 -180.5t-189.5 -113.5t-206 -38q-93 0 -172.5 33
t-136 94.5t-86.5 149t-30 190.5q0 167 61 328t164 286.5t234.5 198.5t268.5 73q127 0 224 -60t150.5 -169t53.5 -250zM1068 900q0 93 -23 167.5t-66 126t-104 79t-141 27.5q-83 0 -164.5 -36.5t-153 -107t-128.5 -171.5q-64 -112 -105 -268.5t-41 -289.5q0 -125 40.5 -217
t116.5 -142t175 -50q93 0 184.5 47t168.5 133t130 200q47 101 79 242.5t32 259.5z" />
    <glyph glyph-name="Odieresis" unicode="&#xd6;" horiz-adv-x="1224" 
d="M1183 858q0 -138 -46 -278.5t-129 -263.5q-71 -105 -160.5 -180.5t-189.5 -113.5t-206 -38q-93 0 -172.5 33t-136 94.5t-86.5 149t-30 190.5q0 167 61 328t164 286.5t234.5 198.5t268.5 73q127 0 224 -60t150.5 -169t53.5 -250zM1068 900q0 93 -23 167.5t-66 126t-104 79
t-141 27.5q-83 0 -164.5 -36.5t-153 -107t-128.5 -171.5q-64 -112 -105 -268.5t-41 -289.5q0 -125 40.5 -217t116.5 -142t175 -50q93 0 184.5 47t168.5 133t130 200q47 101 79 242.5t32 259.5zM718 1542q14 0 24.5 -6t16.5 -16.5t6 -24.5q0 -19 -14 -33t-33 -14
q-18 0 -32 14t-14 33q0 21 13 34t33 13zM875 1542q13 0 23.5 -6t16.5 -16.5t6 -24.5q0 -19 -14 -33t-32 -14q-19 0 -33 14t-14 33q0 21 13 34t34 13z" />
    <glyph glyph-name="multiply" unicode="&#xd7;" horiz-adv-x="621" 
d="M178 571l120 -120l120 120l31 -31l-120 -120l120 -120l-31 -31l-120 120l-120 -120l-31 31l120 120l-120 120z" />
    <glyph glyph-name="Oslash" unicode="&#xd8;" horiz-adv-x="1225" 
d="M1183 858q0 -138 -46 -278.5t-129 -263.5q-71 -105 -160.5 -180.5t-189.5 -113.5t-206 -38q-93 0 -172.5 33t-136 94.5t-86.5 149t-30 190.5q0 167 61 328t164 286.5t234.5 198.5t268.5 73q127 0 224 -60t150.5 -169t53.5 -250zM1068 900q0 93 -23 167.5t-66 126t-104 79
t-141 27.5q-83 0 -164.5 -36.5t-153 -107t-128.5 -171.5q-64 -112 -105 -268.5t-41 -289.5q0 -125 40.5 -217t116.5 -142t175 -50q93 0 184.5 47t168.5 133t130 200q47 101 79 242.5t32 259.5zM1106 1427l-845 -1590l-25 14l844 1589z" />
    <glyph glyph-name="Ugrave" unicode="&#xd9;" horiz-adv-x="1043" 
d="M789 0h-96l4 24q18 126 42 251.5t55 247.5l92 365q-6 -12 -9.5 -20.5t-4.5 -10.5l-37 -93q-37 -90 -98 -218.5t-107 -213.5q-193 -352 -349 -352q-51 0 -81.5 34.5t-30.5 91.5q0 35 22 131l160 703l26 115q20 94 20 147q0 103 -60 103q-70 0 -116 -133q-54 -153 -82 -338
l-78 54q33 200 107 322t162 122q61 0 95 -60.5t34 -168.5q0 -109 -49 -322l-123 -537l-10 -46q-12 -47 -12 -81q0 -33 17.5 -53.5t43.5 -20.5q46 0 103 54t124 162.5t156 291.5q111 230 200 495q51 149 71 235l87 36l-197 -871q-51 -224 -81 -446zM696 1561l59 -167l-19 -5
l-99 155z" />
    <glyph glyph-name="Uacute" unicode="&#xda;" horiz-adv-x="1043" 
d="M789 0h-96l4 24q18 126 42 251.5t55 247.5l92 365q-6 -12 -9.5 -20.5t-4.5 -10.5l-37 -93q-37 -90 -98 -218.5t-107 -213.5q-193 -352 -349 -352q-51 0 -81.5 34.5t-30.5 91.5q0 35 22 131l160 703l26 115q20 94 20 147q0 103 -60 103q-70 0 -116 -133q-54 -153 -82 -338
l-78 54q33 200 107 322t162 122q61 0 95 -60.5t34 -168.5q0 -109 -49 -322l-123 -537l-10 -46q-12 -47 -12 -81q0 -33 17.5 -53.5t43.5 -20.5q46 0 103 54t124 162.5t156 291.5q111 230 200 495q51 149 71 235l87 36l-197 -871q-51 -224 -81 -446zM932 1565l-209 -154l-20 7
l164 165z" />
    <glyph glyph-name="Ucircumflex" unicode="&#xdb;" horiz-adv-x="1043" 
d="M789 0h-96l4 24q18 126 42 251.5t55 247.5l92 365q-6 -12 -9.5 -20.5t-4.5 -10.5l-37 -93q-37 -90 -98 -218.5t-107 -213.5q-193 -352 -349 -352q-51 0 -81.5 34.5t-30.5 91.5q0 35 22 131l160 703l26 115q20 94 20 147q0 103 -60 103q-70 0 -116 -133q-54 -153 -82 -338
l-78 54q33 200 107 322t162 122q61 0 95 -60.5t34 -168.5q0 -109 -49 -322l-123 -537l-10 -46q-12 -47 -12 -81q0 -33 17.5 -53.5t43.5 -20.5q46 0 103 54t124 162.5t156 291.5q111 230 200 495q51 149 71 235l87 36l-197 -871q-51 -224 -81 -446zM746 1478l-135 -47l-7 15
l154 98l115 -98l-11 -15z" />
    <glyph glyph-name="Udieresis" unicode="&#xdc;" horiz-adv-x="1043" 
d="M789 0h-96l4 24q18 126 42 251.5t55 247.5l92 365q-6 -12 -9.5 -20.5t-4.5 -10.5l-37 -93q-37 -90 -98 -218.5t-107 -213.5q-193 -352 -349 -352q-51 0 -81.5 34.5t-30.5 91.5q0 35 22 131l160 703l26 115q20 94 20 147q0 103 -60 103q-70 0 -116 -133q-54 -153 -82 -338
l-78 54q33 200 107 322t162 122q61 0 95 -60.5t34 -168.5q0 -109 -49 -322l-123 -537l-10 -46q-12 -47 -12 -81q0 -33 17.5 -53.5t43.5 -20.5q46 0 103 54t124 162.5t156 291.5q111 230 200 495q51 149 71 235l87 36l-197 -871q-51 -224 -81 -446zM622 1497q14 0 24.5 -6
t16.5 -16.5t6 -24.5q0 -19 -14 -33t-33 -14q-18 0 -32 14t-14 33q0 21 13 34t33 13zM779 1497q13 0 23.5 -6t16.5 -16.5t6 -24.5q0 -19 -14 -33t-32 -14q-19 0 -33 14t-14 33q0 21 13 34t34 13z" />
    <glyph glyph-name="Yacute" unicode="&#xdd;" horiz-adv-x="1040" 
d="M41 -18l34 77q98 -35 198 -35q86 0 158 26t130 77.5t113 138.5q75 118 137 297q16 47 28 87t58 207l8 28l-14 -27q-44 -88 -88.5 -155.5t-109.5 -146.5q-47 -55 -81 -84.5t-66.5 -44.5t-62.5 -15q-74 0 -104 73q-13 36 -13 121v44l18 512q1 11 1 33q0 120 -64 120
q-39 0 -74 -53t-63.5 -154.5t-48.5 -246.5l-3 -25l-77 49q10 84 40 179.5t63 152.5q75 129 163 129q74 0 113.5 -71.5t39.5 -211.5q0 -39 -1 -59l-13 -337q0 -20 -0.5 -31.5t-0.5 -25.5q0 -125 76 -125q36 0 76 30.5t95 98.5q68 84 126 191t96 222.5t56 232.5l111 50l-6 -30
q-58 -309 -148 -580t-180 -406q-110 -165 -258.5 -244t-350.5 -79q-66 0 -111 11zM866 1584l-209 -154l-20 7l164 165z" />
    <glyph glyph-name="germandbls" unicode="&#xdf;" horiz-adv-x="612" 
d="M-27 -11l200 1015q18 87 28 125t21.5 67.5t30.5 62.5q40 68 95 109t106 41q58 0 94.5 -40.5t36.5 -106.5q0 -50 -25 -116.5t-74 -141t-124 -160.5q-39 -43 -53 -68.5t-14 -50.5q0 -37 46 -90q85 -96 112 -146q43 -81 43 -166t-40 -163.5t-105.5 -127.5t-136.5 -49
q-83 0 -129 59l48 60q44 -77 119 -77q49 0 93 34.5t69.5 91.5t25.5 126q0 57 -19 109t-54 92l-72 85q-50 59 -50 116q0 70 55 133l67 77q152 175 152 344q0 63 -25.5 101t-65.5 38q-50 0 -78.5 -41t-50.5 -144l-261 -1179z" />
    <glyph glyph-name="agrave" unicode="&#xe0;" horiz-adv-x="666" 
d="M537 591l-94 -366q-15 -60 -15 -94q0 -30 13 -52t32 -22q29 0 96 71l14 -14l-11 -13q-53 -61 -81.5 -85.5t-49.5 -24.5q-32 0 -55.5 33.5t-23.5 77.5q0 32 24 145l8 38q-37 -86 -99 -165q-104 -132 -199 -132q-57 0 -90 41t-33 110q0 94 53.5 197t133 169.5t154.5 66.5
q79 0 118 -58l11 38zM422 463q-12 38 -40.5 59.5t-65.5 21.5q-44 0 -93 -40.5t-90 -112.5q-32 -57 -53.5 -126t-21.5 -114q0 -51 19.5 -80t55.5 -29q46 0 96 43t99 123q30 46 47 92t38 128zM333 832l59 -167l-19 -5l-99 155z" />
    <glyph glyph-name="aacute" unicode="&#xe1;" horiz-adv-x="666" 
d="M537 591l-94 -366q-15 -60 -15 -94q0 -30 13 -52t32 -22q29 0 96 71l14 -14l-11 -13q-53 -61 -81.5 -85.5t-49.5 -24.5q-32 0 -55.5 33.5t-23.5 77.5q0 32 24 145l8 38q-37 -86 -99 -165q-104 -132 -199 -132q-57 0 -90 41t-33 110q0 94 53.5 197t133 169.5t154.5 66.5
q79 0 118 -58l11 38zM422 463q-12 38 -40.5 59.5t-65.5 21.5q-44 0 -93 -40.5t-90 -112.5q-32 -57 -53.5 -126t-21.5 -114q0 -51 19.5 -80t55.5 -29q46 0 96 43t99 123q30 46 47 92t38 128zM543 814l-209 -154l-20 7l164 165z" />
    <glyph glyph-name="acircumflex" unicode="&#xe2;" horiz-adv-x="666" 
d="M537 591l-94 -366q-15 -60 -15 -94q0 -30 13 -52t32 -22q29 0 96 71l14 -14l-11 -13q-53 -61 -81.5 -85.5t-49.5 -24.5q-32 0 -55.5 33.5t-23.5 77.5q0 32 24 145l8 38q-37 -86 -99 -165q-104 -132 -199 -132q-57 0 -90 41t-33 110q0 94 53.5 197t133 169.5t154.5 66.5
q79 0 118 -58l11 38zM422 463q-12 38 -40.5 59.5t-65.5 21.5q-44 0 -93 -40.5t-90 -112.5q-32 -57 -53.5 -126t-21.5 -114q0 -51 19.5 -80t55.5 -29q46 0 96 43t99 123q30 46 47 92t38 128zM388 737l-135 -47l-7 15l154 98l115 -98l-11 -15z" />
    <glyph glyph-name="atilde" unicode="&#xe3;" horiz-adv-x="666" 
d="M537 591l-94 -366q-15 -60 -15 -94q0 -30 13 -52t32 -22q29 0 96 71l14 -14l-11 -13q-53 -61 -81.5 -85.5t-49.5 -24.5q-32 0 -55.5 33.5t-23.5 77.5q0 32 24 145l8 38q-37 -86 -99 -165q-104 -132 -199 -132q-57 0 -90 41t-33 110q0 94 53.5 197t133 169.5t154.5 66.5
q79 0 118 -58l11 38zM422 463q-12 38 -40.5 59.5t-65.5 21.5q-44 0 -93 -40.5t-90 -112.5q-32 -57 -53.5 -126t-21.5 -114q0 -51 19.5 -80t55.5 -29q46 0 96 43t99 123q30 46 47 92t38 128zM532 770q-69 -67 -113 -67q-20 0 -40 16l-23 18q-22 18 -37 18q-27 0 -72 -44
l-14 13q28 31 58.5 49.5t52.5 18.5q21 0 64 -32q26 -18 39 -18q30 0 71 43z" />
    <glyph glyph-name="adieresis" unicode="&#xe4;" horiz-adv-x="666" 
d="M537 591l-94 -366q-15 -60 -15 -94q0 -30 13 -52t32 -22q29 0 96 71l14 -14l-11 -13q-53 -61 -81.5 -85.5t-49.5 -24.5q-32 0 -55.5 33.5t-23.5 77.5q0 32 24 145l8 38q-37 -86 -99 -165q-104 -132 -199 -132q-57 0 -90 41t-33 110q0 94 53.5 197t133 169.5t154.5 66.5
q79 0 118 -58l11 38zM422 463q-12 38 -40.5 59.5t-65.5 21.5q-44 0 -93 -40.5t-90 -112.5q-32 -57 -53.5 -126t-21.5 -114q0 -51 19.5 -80t55.5 -29q46 0 96 43t99 123q30 46 47 92t38 128zM320 793q14 0 24.5 -6t16.5 -16.5t6 -24.5q0 -19 -14 -33t-33 -14q-18 0 -32 14
t-14 33q0 21 13 34t33 13zM477 793q13 0 23.5 -6t16.5 -16.5t6 -24.5q0 -19 -14 -33t-32 -14q-19 0 -33 14t-14 33q0 21 13 34t34 13z" />
    <glyph glyph-name="aring" unicode="&#xe5;" horiz-adv-x="666" 
d="M537 591l-94 -366q-15 -60 -15 -94q0 -30 13 -52t32 -22q29 0 96 71l14 -14l-11 -13q-53 -61 -81.5 -85.5t-49.5 -24.5q-32 0 -55.5 33.5t-23.5 77.5q0 32 24 145l8 38q-37 -86 -99 -165q-104 -132 -199 -132q-57 0 -90 41t-33 110q0 94 53.5 197t133 169.5t154.5 66.5
q79 0 118 -58l11 38zM422 463q-12 38 -40.5 59.5t-65.5 21.5q-44 0 -93 -40.5t-90 -112.5q-32 -57 -53.5 -126t-21.5 -114q0 -51 19.5 -80t55.5 -29q46 0 96 43t99 123q30 46 47 92t38 128zM380 827q32 0 56 -24t24 -56q0 -33 -24 -56t-56 -23q-33 0 -56 23t-23 56
q0 32 23 56t56 24zM380 796q-21 0 -35 -15t-14 -34t15 -34t34 -15t34 14t15 35t-14 35t-35 14z" />
    <glyph glyph-name="ae" unicode="&#xe6;" horiz-adv-x="851" 
d="M736 155l20 -15q-100 -155 -244 -155q-76 0 -126 51t-50 129v8q-44 -87 -109 -137.5t-133 -50.5q-56 0 -88.5 30t-32.5 81q0 96 105 168.5t291 104.5l3.5 14t1.5 7q12 49 12 71q0 44 -21 66.5t-61 22.5q-55 0 -95.5 -39.5t-40.5 -91.5q0 -14 3 -27q-15 -3 -24 -3
q-19 0 -32 13t-13 32q0 34 28 67t74.5 53t99.5 20q124 0 142 -107q38 53 88 82t103 29q43 0 68.5 -22t25.5 -61q0 -51 -42.5 -108t-114.5 -105t-157 -75v-10q0 -71 38 -118t93 -47q101 0 188 123zM360 340q-84 -8 -178 -59q-58 -31 -92.5 -77t-34.5 -94q0 -33 22.5 -56.5
t53.5 -23.5q48 0 92 38t80 109t57 163zM417 231q59 26 91 47t70 60q92 94 92 165q0 21 -13 33.5t-37 12.5q-30 0 -63 -24.5t-59 -69.5q-33 -57 -54.5 -116.5t-26.5 -107.5z" />
    <glyph glyph-name="ccedilla" unicode="&#xe7;" horiz-adv-x="489" 
d="M152 -15l-36 -66q15 4 24 4q26 0 41.5 -17.5t15.5 -43.5q0 -40 -29.5 -67t-75.5 -27q-42 0 -71 22l11 18q17 -17 44 -17q28 0 51 22t23 49q0 32 -28 32q-12 0 -26 -8l-19 9l50 91q-71 9 -112.5 60.5t-41.5 132.5q0 90 47 183t120.5 154t141.5 61q46 0 74 -25.5t28 -68.5
q0 -39 -29.5 -74.5t-63.5 -35.5q-15 0 -27 12q65 29 65 108q0 28 -14.5 43.5t-38.5 15.5q-37 0 -74.5 -30t-70.5 -83.5t-51.5 -114t-18.5 -122.5q0 -74 35 -120t92 -46q49 0 95 31t96 95l14 -12q-62 -88 -117 -125t-124 -40z" />
    <glyph glyph-name="egrave" unicode="&#xe8;" horiz-adv-x="496" 
d="M382 155l18 -15q-62 -82 -121 -118.5t-127 -36.5q-81 0 -130 54t-49 143q0 90 47.5 182.5t119 153t141.5 60.5q41 0 67.5 -24t26.5 -62q0 -77 -84 -154t-229 -131q-1 -8 -1 -18q0 -69 38 -112.5t98 -43.5q47 0 91 29.5t94 92.5zM62 231q108 48 166 107q39 40 63 86t24 83
q0 47 -43 47q-65 0 -131.5 -102.5t-78.5 -220.5zM237 832l59 -167l-19 -5l-99 155z" />
    <glyph glyph-name="eacute" unicode="&#xe9;" horiz-adv-x="496" 
d="M382 155l18 -15q-62 -82 -121 -118.5t-127 -36.5q-81 0 -130 54t-49 143q0 90 47.5 182.5t119 153t141.5 60.5q41 0 67.5 -24t26.5 -62q0 -77 -84 -154t-229 -131q-1 -8 -1 -18q0 -69 38 -112.5t98 -43.5q47 0 91 29.5t94 92.5zM62 231q108 48 166 107q39 40 63 86t24 83
q0 47 -43 47q-65 0 -131.5 -102.5t-78.5 -220.5zM434 814l-209 -154l-20 7l164 165z" />
    <glyph glyph-name="ecircumflex" unicode="&#xea;" horiz-adv-x="496" 
d="M382 155l18 -15q-62 -82 -121 -118.5t-127 -36.5q-81 0 -130 54t-49 143q0 90 47.5 182.5t119 153t141.5 60.5q41 0 67.5 -24t26.5 -62q0 -77 -84 -154t-229 -131q-1 -8 -1 -18q0 -69 38 -112.5t98 -43.5q47 0 91 29.5t94 92.5zM62 231q108 48 166 107q39 40 63 86t24 83
q0 47 -43 47q-65 0 -131.5 -102.5t-78.5 -220.5zM306 737l-135 -47l-7 15l154 98l115 -98l-11 -15z" />
    <glyph glyph-name="edieresis" unicode="&#xeb;" horiz-adv-x="496" 
d="M382 155l18 -15q-62 -82 -121 -118.5t-127 -36.5q-81 0 -130 54t-49 143q0 90 47.5 182.5t119 153t141.5 60.5q41 0 67.5 -24t26.5 -62q0 -77 -84 -154t-229 -131q-1 -8 -1 -18q0 -69 38 -112.5t98 -43.5q47 0 91 29.5t94 92.5zM62 231q108 48 166 107q39 40 63 86t24 83
q0 47 -43 47q-65 0 -131.5 -102.5t-78.5 -220.5zM224 793q14 0 24.5 -6t16.5 -16.5t6 -24.5q0 -19 -14 -33t-33 -14q-18 0 -32 14t-14 33q0 21 13 34t33 13zM381 793q13 0 23.5 -6t16.5 -16.5t6 -24.5q0 -19 -14 -33t-32 -14q-19 0 -33 14t-14 33q0 21 13 34t34 13z" />
    <glyph glyph-name="igrave" unicode="&#xec;" horiz-adv-x="295" 
d="M173 585l-88 -329q-22 -81 -22 -130q0 -32 11 -52t29 -20q31 0 99 74l16 -14l-10 -11q-57 -67 -84 -90.5t-50 -23.5q-31 0 -52.5 31.5t-21.5 78.5q0 30 12 95l63 350zM128 832l59 -167l-19 -5l-99 155z" />
    <glyph glyph-name="iacute" unicode="&#xed;" horiz-adv-x="295" 
d="M173 585l-88 -329q-22 -81 -22 -130q0 -32 11 -52t29 -20q31 0 99 74l16 -14l-10 -11q-57 -67 -84 -90.5t-50 -23.5q-31 0 -52.5 31.5t-21.5 78.5q0 30 12 95l63 350zM298 814l-209 -154l-20 7l164 165z" />
    <glyph glyph-name="icircumflex" unicode="&#xee;" horiz-adv-x="295" 
d="M173 585l-88 -329q-22 -81 -22 -130q0 -32 11 -52t29 -20q31 0 99 74l16 -14l-10 -11q-57 -67 -84 -90.5t-50 -23.5q-31 0 -52.5 31.5t-21.5 78.5q0 30 12 95l63 350zM170 737l-135 -47l-7 15l154 98l115 -98l-11 -15z" />
    <glyph glyph-name="idieresis" unicode="&#xef;" horiz-adv-x="295" 
d="M173 585l-88 -329q-22 -81 -22 -130q0 -32 11 -52t29 -20q31 0 99 74l16 -14l-10 -11q-57 -67 -84 -90.5t-50 -23.5q-31 0 -52.5 31.5t-21.5 78.5q0 30 12 95l63 350zM87 793q14 0 24.5 -6t16.5 -16.5t6 -24.5q0 -19 -14 -33t-33 -14q-18 0 -32 14t-14 33q0 21 13 34
t33 13zM244 793q13 0 23.5 -6t16.5 -16.5t6 -24.5q0 -19 -14 -33t-32 -14q-19 0 -33 14t-14 33q0 21 13 34t34 13z" />
    <glyph glyph-name="ntilde" unicode="&#xf1;" horiz-adv-x="664" 
d="M-17 -10l106 554l95 41l-86 -367q83 175 165 266t157 91q37 0 60 -24.5t23 -65.5q0 -23 -11 -65l-10 -42l-30 -122l-10 -39q-15 -60 -15 -92t11 -51.5t29 -19.5q31 0 99 74l16 -14l-10 -11q-57 -67 -84 -90.5t-50 -23.5q-31 0 -52.5 31.5t-21.5 78.5q0 32 12 95l39 212
q8 50 8 70q0 21 -11 32t-30 11q-69 0 -170 -148q-49 -71 -81 -140.5t-72 -192.5l-9 -27zM491 770q-69 -67 -113 -67q-20 0 -40 16l-23 18q-22 18 -37 18q-27 0 -72 -44l-14 13q28 31 58.5 49.5t52.5 18.5q21 0 64 -32q26 -18 39 -18q30 0 71 43z" />
    <glyph glyph-name="ograve" unicode="&#xf2;" horiz-adv-x="600" 
d="M-27 192q0 90 48.5 179.5t125.5 145.5t157 56q84 0 135.5 -55.5t51.5 -143.5q0 -96 -47.5 -186t-125 -147.5t-156.5 -57.5q-85 0 -137 57.5t-52 151.5zM401 412q0 60 -29.5 99t-75.5 39q-42 0 -80.5 -27t-70.5 -79q-36 -60 -59.5 -140t-23.5 -142q0 -74 29 -114t83 -40
q87 0 153 121q34 62 54 139t20 144zM292 832l59 -167l-19 -5l-99 155z" />
    <glyph glyph-name="oacute" unicode="&#xf3;" horiz-adv-x="600" 
d="M-27 192q0 90 48.5 179.5t125.5 145.5t157 56q84 0 135.5 -55.5t51.5 -143.5q0 -96 -47.5 -186t-125 -147.5t-156.5 -57.5q-85 0 -137 57.5t-52 151.5zM401 412q0 60 -29.5 99t-75.5 39q-42 0 -80.5 -27t-70.5 -79q-36 -60 -59.5 -140t-23.5 -142q0 -74 29 -114t83 -40
q87 0 153 121q34 62 54 139t20 144zM489 814l-209 -154l-20 7l164 165z" />
    <glyph glyph-name="ocircumflex" unicode="&#xf4;" horiz-adv-x="600" 
d="M-27 192q0 90 48.5 179.5t125.5 145.5t157 56q84 0 135.5 -55.5t51.5 -143.5q0 -96 -47.5 -186t-125 -147.5t-156.5 -57.5q-85 0 -137 57.5t-52 151.5zM401 412q0 60 -29.5 99t-75.5 39q-42 0 -80.5 -27t-70.5 -79q-36 -60 -59.5 -140t-23.5 -142q0 -74 29 -114t83 -40
q87 0 153 121q34 62 54 139t20 144zM347 737l-135 -47l-7 15l154 98l115 -98l-11 -15z" />
    <glyph glyph-name="otilde" unicode="&#xf5;" horiz-adv-x="600" 
d="M-27 192q0 90 48.5 179.5t125.5 145.5t157 56q84 0 135.5 -55.5t51.5 -143.5q0 -96 -47.5 -186t-125 -147.5t-156.5 -57.5q-85 0 -137 57.5t-52 151.5zM401 412q0 60 -29.5 99t-75.5 39q-42 0 -80.5 -27t-70.5 -79q-36 -60 -59.5 -140t-23.5 -142q0 -74 29 -114t83 -40
q87 0 153 121q34 62 54 139t20 144zM504 770q-69 -67 -113 -67q-20 0 -40 16l-23 18q-22 18 -37 18q-27 0 -72 -44l-14 13q28 31 58.5 49.5t52.5 18.5q21 0 64 -32q26 -18 39 -18q30 0 71 43z" />
    <glyph glyph-name="odieresis" unicode="&#xf6;" horiz-adv-x="600" 
d="M-27 192q0 90 48.5 179.5t125.5 145.5t157 56q84 0 135.5 -55.5t51.5 -143.5q0 -96 -47.5 -186t-125 -147.5t-156.5 -57.5q-85 0 -137 57.5t-52 151.5zM401 412q0 60 -29.5 99t-75.5 39q-42 0 -80.5 -27t-70.5 -79q-36 -60 -59.5 -140t-23.5 -142q0 -74 29 -114t83 -40
q87 0 153 121q34 62 54 139t20 144zM265 793q14 0 24.5 -6t16.5 -16.5t6 -24.5q0 -19 -14 -33t-33 -14q-18 0 -32 14t-14 33q0 21 13 34t33 13zM422 793q13 0 23.5 -6t16.5 -16.5t6 -24.5q0 -19 -14 -33t-32 -14q-19 0 -33 14t-14 33q0 21 13 34t34 13z" />
    <glyph glyph-name="divide" unicode="&#xf7;" horiz-adv-x="621" 
d="M106 502h384v-44h-384v44zM301 664q14 0 24.5 -6t16.5 -16.5t6 -24.5q0 -19 -14 -33t-33 -14q-18 0 -32 14t-14 33q0 21 13 34t33 13zM305 393q13 0 23.5 -6t16.5 -16.5t6 -24.5q0 -19 -14 -33t-32 -14q-19 0 -33 14t-14 33q0 21 13 34t34 13z" />
    <glyph glyph-name="oslash" unicode="&#xf8;" horiz-adv-x="600" 
d="M447 508l91 86l21 -21l-94 -90q26 -45 26 -110q0 -95 -48 -185.5t-124.5 -147.5t-156.5 -57q-44 0 -82.5 18t-65.5 53l-89 -84l-20 22l92 88q-24 47 -24 111q0 68 28 137t77 125t108 88t118 32q87 0 143 -65zM66 105q22 -97 108 -97q87 0 153 121q32 58 53 139t21 143v12
zM62 141l334 318q-24 91 -101 91q-49 0 -94.5 -39.5t-80.5 -113.5q-59 -123 -59 -236q0 -12 1 -20z" />
    <glyph glyph-name="ugrave" unicode="&#xf9;" horiz-adv-x="617" 
d="M176 585l-97 -387q-13 -52 -13 -88q0 -35 22 -56t57 -21q85 0 177 139l4 6q2 10 3 16l63 350l98 41l-88 -329q-22 -81 -22 -130q0 -32 11 -52t29 -20q31 0 99 74l16 -14l-10 -11q-57 -67 -84 -90.5t-50 -23.5q-31 0 -52.5 31.5t-21.5 78.5q0 15 1 28q-104 -138 -206 -138
q-51 0 -81.5 29.5t-30.5 78.5q0 38 11 93l68 354zM264 832l59 -167l-19 -5l-99 155z" />
    <glyph glyph-name="uacute" unicode="&#xfa;" horiz-adv-x="617" 
d="M176 585l-97 -387q-13 -52 -13 -88q0 -35 22 -56t57 -21q85 0 177 139l4 6q2 10 3 16l63 350l98 41l-88 -329q-22 -81 -22 -130q0 -32 11 -52t29 -20q31 0 99 74l16 -14l-10 -11q-57 -67 -84 -90.5t-50 -23.5q-31 0 -52.5 31.5t-21.5 78.5q0 15 1 28q-104 -138 -206 -138
q-51 0 -81.5 29.5t-30.5 78.5q0 38 11 93l68 354zM475 814l-209 -154l-20 7l164 165z" />
    <glyph glyph-name="ucircumflex" unicode="&#xfb;" horiz-adv-x="617" 
d="M176 585l-97 -387q-13 -52 -13 -88q0 -35 22 -56t57 -21q85 0 177 139l4 6q2 10 3 16l63 350l98 41l-88 -329q-22 -81 -22 -130q0 -32 11 -52t29 -20q31 0 99 74l16 -14l-10 -11q-57 -67 -84 -90.5t-50 -23.5q-31 0 -52.5 31.5t-21.5 78.5q0 15 1 28q-104 -138 -206 -138
q-51 0 -81.5 29.5t-30.5 78.5q0 38 11 93l68 354zM306 737l-135 -47l-7 15l154 98l115 -98l-11 -15z" />
    <glyph glyph-name="udieresis" unicode="&#xfc;" horiz-adv-x="617" 
d="M176 585l-97 -387q-13 -52 -13 -88q0 -35 22 -56t57 -21q85 0 177 139l4 6q2 10 3 16l63 350l98 41l-88 -329q-22 -81 -22 -130q0 -32 11 -52t29 -20q31 0 99 74l16 -14l-10 -11q-57 -67 -84 -90.5t-50 -23.5q-31 0 -52.5 31.5t-21.5 78.5q0 15 1 28q-104 -138 -206 -138
q-51 0 -81.5 29.5t-30.5 78.5q0 38 11 93l68 354zM238 793q14 0 24.5 -6t16.5 -16.5t6 -24.5q0 -19 -14 -33t-33 -14q-18 0 -32 14t-14 33q0 21 13 34t33 13zM395 793q13 0 23.5 -6t16.5 -16.5t6 -24.5q0 -19 -14 -33t-32 -14q-19 0 -33 14t-14 33q0 21 13 34t34 13z" />
    <glyph glyph-name="yacute" unicode="&#xfd;" horiz-adv-x="598" 
d="M-116 -355l49 66q58 -62 131 -62q77 0 124 61t77 200l46 207q-110 -129 -199 -129q-52 0 -81.5 32t-29.5 86q0 36 9 79l68 359l97 41l-97 -403q-12 -49 -12 -73q0 -34 20.5 -55.5t54.5 -21.5q37 0 81.5 32.5t99.5 97.5l86 382l94 41l-146 -588q-26 -106 -49.5 -166
t-54.5 -100q-98 -126 -239 -126q-82 0 -129 40zM466 814l-209 -154l-20 7l164 165z" />
    <glyph glyph-name="ydieresis" unicode="&#xff;" horiz-adv-x="598" 
d="M-116 -355l49 66q58 -62 131 -62q77 0 124 61t77 200l46 207q-110 -129 -199 -129q-52 0 -81.5 32t-29.5 86q0 36 9 79l68 359l97 41l-97 -403q-12 -49 -12 -73q0 -34 20.5 -55.5t54.5 -21.5q37 0 81.5 32.5t99.5 97.5l86 382l94 41l-146 -588q-26 -106 -49.5 -166
t-54.5 -100q-98 -126 -239 -126q-82 0 -129 40zM259 793q14 0 24.5 -6t16.5 -16.5t6 -24.5q0 -19 -14 -33t-33 -14q-18 0 -32 14t-14 33q0 21 13 34t33 13zM416 793q13 0 23.5 -6t16.5 -16.5t6 -24.5q0 -19 -14 -33t-32 -14q-19 0 -33 14t-14 33q0 21 13 34t34 13z" />
    <glyph glyph-name="Amacron" unicode="&#x100;" horiz-adv-x="1336" 
d="M1165 443l-95 -443h-64q-37 118 -118.5 229t-184.5 183q-68 -106 -152 -190t-178.5 -144t-196.5 -93t-200 -33q-27 0 -58 5l32 76q53 -6 80 -6q274 0 488 214q44 44 89.5 101.5t94.5 134.5q109 171 186 320l94 181q111 213 171 288.5t119 75.5q19 0 33.5 -8t22.5 -23.5
t8 -34.5q0 -14 -5 -41q-5 -36 -6 -39l-153 -719h71l-7 -34h-71zM1071 443h-349l4 -3q89 -68 153 -140t125 -172zM749 477h329l142 680q7 33 7 34q6 20 6 36q0 25 -22 25q-27 0 -65 -57t-132 -234q-14 -27 -57 -109q-36 -65 -39 -72l-96 -175q-60 -109 -73 -128zM1411 1479
l-9 -45h-244l9 45h244z" />
    <glyph glyph-name="amacron" unicode="&#x101;" horiz-adv-x="666" 
d="M537 591l-94 -366q-15 -60 -15 -94q0 -30 13 -52t32 -22q29 0 96 71l14 -14l-11 -13q-53 -61 -81.5 -85.5t-49.5 -24.5q-32 0 -55.5 33.5t-23.5 77.5q0 32 24 145l8 38q-37 -86 -99 -165q-104 -132 -199 -132q-57 0 -90 41t-33 110q0 94 53.5 197t133 169.5t154.5 66.5
q79 0 118 -58l11 38zM422 463q-12 38 -40.5 59.5t-65.5 21.5q-44 0 -93 -40.5t-90 -112.5q-32 -57 -53.5 -126t-21.5 -114q0 -51 19.5 -80t55.5 -29q46 0 96 43t99 123q30 46 47 92t38 128zM505 738l-9 -45h-244l9 45h244z" />
    <glyph glyph-name="Abreve" unicode="&#x102;" horiz-adv-x="1336" 
d="M1165 443l-95 -443h-64q-37 118 -118.5 229t-184.5 183q-68 -106 -152 -190t-178.5 -144t-196.5 -93t-200 -33q-27 0 -58 5l32 76q53 -6 80 -6q274 0 488 214q44 44 89.5 101.5t94.5 134.5q109 171 186 320l94 181q111 213 171 288.5t119 75.5q19 0 33.5 -8t22.5 -23.5
t8 -34.5q0 -14 -5 -41q-5 -36 -6 -39l-153 -719h71l-7 -34h-71zM1071 443h-349l4 -3q89 -68 153 -140t125 -172zM749 477h329l142 680q7 33 7 34q6 20 6 36q0 25 -22 25q-27 0 -65 -57t-132 -234q-14 -27 -57 -109q-36 -65 -39 -72l-96 -175q-60 -109 -73 -128zM1154 1564
q34 -39 68 -56.5t67.5 -16t67 20.5t66.5 52v-17q-31 -49 -64.5 -75t-68 -27t-68.5 24t-66 77z" />
    <glyph glyph-name="abreve" unicode="&#x103;" horiz-adv-x="666" 
d="M537 591l-94 -366q-15 -60 -15 -94q0 -30 13 -52t32 -22q29 0 96 71l14 -14l-11 -13q-53 -61 -81.5 -85.5t-49.5 -24.5q-32 0 -55.5 33.5t-23.5 77.5q0 32 24 145l8 38q-37 -86 -99 -165q-104 -132 -199 -132q-57 0 -90 41t-33 110q0 94 53.5 197t133 169.5t154.5 66.5
q79 0 118 -58l11 38zM422 463q-12 38 -40.5 59.5t-65.5 21.5q-44 0 -93 -40.5t-90 -112.5q-32 -57 -53.5 -126t-21.5 -114q0 -51 19.5 -80t55.5 -29q46 0 96 43t99 123q30 46 47 92t38 128zM243 815q34 -39 68 -56.5t67.5 -16t67 20.5t66.5 52v-17q-31 -49 -64.5 -75
t-68 -27t-68.5 24t-66 77z" />
    <glyph glyph-name="Aogonek" unicode="&#x104;" horiz-adv-x="1336" 
d="M1165 443l-95 -443h-64q-37 118 -118.5 229t-184.5 183q-68 -106 -152 -190t-178.5 -144t-196.5 -93t-200 -33q-27 0 -58 5l32 76q53 -6 80 -6q274 0 488 214q44 44 89.5 101.5t94.5 134.5q109 171 186 320l94 181q111 213 171 288.5t119 75.5q19 0 33.5 -8t22.5 -23.5
t8 -34.5q0 -14 -5 -41q-5 -36 -6 -39l-153 -719h71l-7 -34h-71zM1071 443h-349l4 -3q89 -68 153 -140t125 -172zM749 477h329l142 680q7 33 7 34q6 20 6 36q0 25 -22 25q-27 0 -65 -57t-132 -234q-14 -27 -57 -109q-36 -65 -39 -72l-96 -175q-60 -109 -73 -128zM1068 30
l-15 -26l-16 -3q-28 0 -36 -32q-7 -27 10 -49t45 -22q27 0 48 17l7 -18q-35 -22 -77 -22q-46 0 -68.5 27t-11.5 67q7 26 27 43.5t46 17.5h41z" />
    <glyph glyph-name="aogonek" unicode="&#x105;" horiz-adv-x="666" 
d="M537 591l-94 -366q-15 -60 -15 -94q0 -30 13 -52t32 -22q29 0 96 71l14 -14l-11 -13q-53 -61 -82 -86q-26 -22 -46 -24l-16 -2q-28 -2 -36 -34q-7 -27 10 -49t45 -22q27 0 48 17l7 -18q-35 -22 -77 -22q-46 0 -68.5 27t-11.5 67q7 26 27 44q11 9 23 13l-10 12
q-23 34 -23 78q0 32 24 145l8 38q-37 -86 -99 -165q-104 -132 -199 -132q-57 0 -90 41t-33 110q0 94 53.5 197t133 169.5t154.5 66.5q79 0 118 -58l11 38zM422 463q-12 38 -40.5 59.5t-65.5 21.5q-44 0 -93 -40.5t-90 -112.5q-32 -57 -53.5 -126t-21.5 -114q0 -51 19.5 -80
t55.5 -29q46 0 96 43t99 123q30 46 47 92t38 128z" />
    <glyph glyph-name="Cacute" unicode="&#x106;" horiz-adv-x="986" 
d="M577 787l-28 76q93 27 176 83t130.5 124t47.5 134q0 49 -31.5 77t-84.5 28q-63 0 -138 -33t-148.5 -92t-140.5 -142q-73 -91 -122 -190t-74 -201.5t-25 -212.5q0 -187 86 -296.5t235 -109.5q96 0 186.5 43t207.5 144l16 13l12 -22q-119 -118 -239 -177t-242 -59
q-110 0 -195.5 52.5t-132 147t-46.5 221.5q0 92 27 192t80.5 202.5t126.5 198.5q77 102 171 182.5t188.5 124.5t169.5 44q71 0 113.5 -40.5t42.5 -109.5q0 -77 -51 -160.5t-136 -149t-182 -92.5zM900 1595l-209 -154l-20 7l164 165z" />
    <glyph glyph-name="cacute" unicode="&#x107;" horiz-adv-x="489" 
d="M393 150q-61 -86 -118.5 -125.5t-127.5 -39.5q-77 0 -125.5 54t-48.5 140q0 90 47 183t120.5 154t141.5 61q46 0 74 -25.5t28 -68.5q0 -39 -29.5 -74.5t-63.5 -35.5q-15 0 -27 12q65 29 65 108q0 28 -14.5 43.5t-38.5 15.5q-37 0 -74.5 -30t-70.5 -83.5t-51.5 -114
t-18.5 -122.5q0 -74 35 -120t92 -46q49 0 95 31t96 95zM434 835l-209 -154l-20 7l164 165z" />
    <glyph glyph-name="Ccircumflex" unicode="&#x108;" horiz-adv-x="986" 
d="M577 787l-28 76q93 27 176 83t130.5 124t47.5 134q0 49 -31.5 77t-84.5 28q-63 0 -138 -33t-148.5 -92t-140.5 -142q-73 -91 -122 -190t-74 -201.5t-25 -212.5q0 -187 86 -296.5t235 -109.5q96 0 186.5 43t207.5 144l16 13l12 -22q-119 -118 -239 -177t-242 -59
q-110 0 -195.5 52.5t-132 147t-46.5 221.5q0 92 27 192t80.5 202.5t126.5 198.5q77 102 171 182.5t188.5 124.5t169.5 44q71 0 113.5 -40.5t42.5 -109.5q0 -77 -51 -160.5t-136 -149t-182 -92.5zM793 1488l-135 -47l-7 15l154 98l115 -98l-11 -15z" />
    <glyph glyph-name="ccircumflex" unicode="&#x109;" horiz-adv-x="489" 
d="M393 150q-61 -86 -118.5 -125.5t-127.5 -39.5q-77 0 -125.5 54t-48.5 140q0 90 47 183t120.5 154t141.5 61q46 0 74 -25.5t28 -68.5q0 -39 -29.5 -74.5t-63.5 -35.5q-15 0 -27 12q65 29 65 108q0 28 -14.5 43.5t-38.5 15.5q-37 0 -74.5 -30t-70.5 -83.5t-51.5 -114
t-18.5 -122.5q0 -74 35 -120t92 -46q49 0 95 31t96 95zM290 728l-135 -47l-7 15l154 98l115 -98l-11 -15z" />
    <glyph glyph-name="Cdotaccent" unicode="&#x10a;" horiz-adv-x="986" 
d="M577 787l-28 76q93 27 176 83t130.5 124t47.5 134q0 49 -31.5 77t-84.5 28q-63 0 -138 -33t-148.5 -92t-140.5 -142q-73 -91 -122 -190t-74 -201.5t-25 -212.5q0 -187 86 -296.5t235 -109.5q96 0 186.5 43t207.5 144l16 13l12 -22q-119 -118 -239 -177t-242 -59
q-110 0 -195.5 52.5t-132 147t-46.5 221.5q0 92 27 192t80.5 202.5t126.5 198.5q77 102 171 182.5t188.5 124.5t169.5 44q71 0 113.5 -40.5t42.5 -109.5q0 -77 -51 -160.5t-136 -149t-182 -92.5zM837 1492q0 -26 -17 -44.5t-39 -18.5q-46 0 -46 45q0 18 8 33t20.5 23.5
t27.5 8.5q21 0 33.5 -13t12.5 -34z" />
    <glyph glyph-name="cdotaccent" unicode="&#x10b;" horiz-adv-x="489" 
d="M393 150q-61 -86 -118.5 -125.5t-127.5 -39.5q-77 0 -125.5 54t-48.5 140q0 90 47 183t120.5 154t141.5 61q46 0 74 -25.5t28 -68.5q0 -39 -29.5 -74.5t-63.5 -35.5q-15 0 -27 12q65 29 65 108q0 28 -14.5 43.5t-38.5 15.5q-37 0 -74.5 -30t-70.5 -83.5t-51.5 -114
t-18.5 -122.5q0 -74 35 -120t92 -46q49 0 95 31t96 95zM334 752q0 -26 -17 -44.5t-39 -18.5q-46 0 -46 45q0 18 8 33t20.5 23.5t27.5 8.5q21 0 33.5 -13t12.5 -34z" />
    <glyph glyph-name="Ccaron" unicode="&#x10c;" horiz-adv-x="986" 
d="M577 787l-28 76q93 27 176 83t130.5 124t47.5 134q0 49 -31.5 77t-84.5 28q-63 0 -138 -33t-148.5 -92t-140.5 -142q-73 -91 -122 -190t-74 -201.5t-25 -212.5q0 -187 86 -296.5t235 -109.5q96 0 186.5 43t207.5 144l16 13l12 -22q-119 -118 -239 -177t-242 -59
q-110 0 -195.5 52.5t-132 147t-46.5 221.5q0 92 27 192t80.5 202.5t126.5 198.5q77 102 171 182.5t188.5 124.5t169.5 44q71 0 113.5 -40.5t42.5 -109.5q0 -77 -51 -160.5t-136 -149t-182 -92.5zM876 1556l11 -15l-130 -100l-139 100l7 15l130 -48z" />
    <glyph glyph-name="ccaron" unicode="&#x10d;" horiz-adv-x="489" 
d="M393 150q-61 -86 -118.5 -125.5t-127.5 -39.5q-77 0 -125.5 54t-48.5 140q0 90 47 183t120.5 154t141.5 61q46 0 74 -25.5t28 -68.5q0 -39 -29.5 -74.5t-63.5 -35.5q-15 0 -27 12q65 29 65 108q0 28 -14.5 43.5t-38.5 15.5q-37 0 -74.5 -30t-70.5 -83.5t-51.5 -114
t-18.5 -122.5q0 -74 35 -120t92 -46q49 0 95 31t96 95zM406 796l11 -15l-130 -100l-139 100l7 15l130 -48z" />
    <glyph glyph-name="Dcaron" unicode="&#x10e;" horiz-adv-x="1451" 
d="M891 1289l109 48q-12 -86 -25 -141l-20 -85l-7 -31q89 -66 157 -141t118 -159t74.5 -166t24.5 -162q0 -104 -37 -191t-106.5 -152t-164 -101t-202.5 -36q-167 0 -362 68l-25 9q-74 -42 -143 -62t-141 -20q-75 0 -121.5 28.5t-46.5 74.5q0 36 25.5 62.5t71.5 41.5t107 15
q86 0 278 -53l23 -7q64 62 124 173q88 163 175 474q45 155 69 270q-73 57 -164 103t-180 72t-159 26q-83 0 -132.5 -38.5t-49.5 -103.5q0 -41 25.5 -82.5t71.5 -78.5t115 -68l-62 -61q-88 46 -137.5 117t-49.5 150q0 66 35 116.5t98 78.5t142 28q203 0 466 -165
q21 76 26 149zM518 115l27 -9q125 -38 206 -54t155 -16q104 0 188.5 50t134 139t49.5 195q0 276 -352 568q-9 -42 -44 -164q-57 -192 -96 -288q-115 -288 -268 -421zM389 62q-179 55 -283 55q-44 0 -68.5 -14.5t-24.5 -40.5q0 -28 39 -48t97 -20q117 0 240 68zM1074 1556
l11 -15l-130 -100l-139 100l7 15l130 -48z" />
    <glyph glyph-name="dcaron" unicode="&#x10f;" horiz-adv-x="888" 
d="M699 1409l-265 -1153q-21 -92 -21 -128q0 -32 11.5 -52t31.5 -20q26 0 63 39l29 29l2 2t3 2l15 -14l-8 -9q-38 -42 -39 -43l-33 -33q-25 -25 -36.5 -31.5t-25.5 -6.5q-33 0 -55 34t-22 78q0 26 14 95l11 57q-26 -63 -82 -137q-101 -130 -196 -130q-57 0 -90 41.5
t-33 112.5q0 99 52 200.5t132.5 167.5t160.5 66q59 0 110 -35l163 817zM419 491q-9 27 -37 43.5t-60 16.5q-47 0 -96.5 -42t-93.5 -119q-32 -57 -52.5 -124.5t-20.5 -122.5q0 -48 20.5 -77t56.5 -29q42 0 90.5 43t97.5 124q33 55 52 114q23 76 33 122zM802 1032l-13 22
q131 103 139 177q-20 -21 -46 -21q-21 0 -35 14t-14 35q0 32 22 55t50 23q29 0 46.5 -19t17.5 -53q0 -50 -45.5 -114t-121.5 -119z" />
    <glyph glyph-name="Dcroat" unicode="&#x110;" horiz-adv-x="1451" 
d="M891 1289l109 48q-12 -86 -25 -141l-20 -85l-7 -31q89 -66 157 -141t118 -159t74.5 -166t24.5 -162q0 -104 -37 -191t-106.5 -152t-164 -101t-202.5 -36q-167 0 -362 68l-25 9q-74 -42 -143 -62t-141 -20q-75 0 -121.5 28.5t-46.5 74.5q0 36 25.5 62.5t71.5 41.5t107 15
q86 0 278 -53l23 -7q64 62 124 173q40 74 80 180h-194l9 45h202q39 109 78 249q45 155 69 270q-73 57 -164 103t-180 72t-159 26q-83 0 -132.5 -38.5t-49.5 -103.5q0 -41 25.5 -82.5t71.5 -78.5t115 -68l-62 -61q-88 46 -137.5 117t-49.5 150q0 66 35 116.5t98 78.5t142 28
q203 0 466 -165q21 76 26 149zM941 527l-9 -45h-169q-107 -247 -245 -367l27 -9q125 -38 206 -54t155 -16q104 0 188.5 50t134 139t49.5 195q0 276 -352 568q-9 -42 -44 -164q-57 -192 -96 -288q-2 -5 -4 -9h159zM389 62q-179 55 -283 55q-44 0 -68.5 -14.5t-24.5 -40.5
q0 -28 39 -48t97 -20q117 0 240 68z" />
    <glyph glyph-name="dcroat" unicode="&#x111;" horiz-adv-x="834" 
d="M801 1027l-9 -45h-192l-166 -726q-21 -92 -21 -128q0 -32 11.5 -52t31.5 -20q26 0 63 39l31 31q1 1 3 2l15 -14l-8 -9q-38 -42 -39 -43l-33 -33q-25 -25 -36.5 -31.5t-25.5 -6.5q-33 0 -55 34t-22 78q0 26 14 95l11 57q-26 -63 -82 -137q-101 -130 -196 -130
q-57 0 -90 41.5t-33 112.5q0 99 52 200.5t132.5 167.5t160.5 66q59 0 110 -35l88 441h-218l9 45h218l66 331l108 51l-88 -382h190zM419 491q-9 27 -37 43.5t-60 16.5q-47 0 -96.5 -42t-93.5 -119q-32 -57 -52.5 -124.5t-20.5 -122.5q0 -48 20.5 -77t56.5 -29q42 0 90.5 43
t97.5 124q33 55 52 114q23 76 33 122z" />
    <glyph glyph-name="Emacron" unicode="&#x112;" horiz-adv-x="1025" 
d="M855 218l-24 -119q-127 -60 -249.5 -92t-222.5 -32q-110 0 -191 31.5t-124.5 91.5t-43.5 141q0 135 122 268.5t348 246.5q-108 18 -108 112q0 134 232 301q72 52 146.5 91.5t140 60.5t115.5 21q52 0 81.5 -28.5t29.5 -77.5q0 -45 -22.5 -103t-65.5 -121t-96 -114l-53 58
q156 172 156 274q0 69 -82 69q-52 0 -128 -31t-151 -83q-100 -68 -158.5 -145t-58.5 -137q0 -29 18.5 -55t45.5 -37q28 -10 97 -13h17l-13 -64q-151 -65 -303 -177q-252 -186 -252 -350q0 -82 63.5 -133.5t162.5 -51.5q69 0 152.5 21t185.5 64t233 113zM1080 1487l-9 -45
h-244l9 45h244z" />
    <glyph glyph-name="emacron" unicode="&#x113;" horiz-adv-x="496" 
d="M382 155l18 -15q-62 -82 -121 -118.5t-127 -36.5q-81 0 -130 54t-49 143q0 90 47.5 182.5t119 153t141.5 60.5q41 0 67.5 -24t26.5 -62q0 -77 -84 -154t-229 -131q-1 -8 -1 -18q0 -69 38 -112.5t98 -43.5q47 0 91 29.5t94 92.5zM62 231q108 48 166 107q39 40 63 86t24 83
q0 47 -43 47q-65 0 -131.5 -102.5t-78.5 -220.5zM392 725l-9 -45h-244l9 45h244z" />
    <glyph glyph-name="Ebreve" unicode="&#x114;" horiz-adv-x="1025" 
d="M855 218l-24 -119q-127 -60 -249.5 -92t-222.5 -32q-110 0 -191 31.5t-124.5 91.5t-43.5 141q0 135 122 268.5t348 246.5q-108 18 -108 112q0 134 232 301q72 52 146.5 91.5t140 60.5t115.5 21q52 0 81.5 -28.5t29.5 -77.5q0 -45 -22.5 -103t-65.5 -121t-96 -114l-53 58
q156 172 156 274q0 69 -82 69q-52 0 -128 -31t-151 -83q-100 -68 -158.5 -145t-58.5 -137q0 -29 18.5 -55t45.5 -37q28 -10 97 -13h17l-13 -64q-151 -65 -303 -177q-252 -186 -252 -350q0 -82 63.5 -133.5t162.5 -51.5q69 0 152.5 21t185.5 64t233 113zM781 1564
q34 -39 68 -56.5t67.5 -16t67 20.5t66.5 52v-17q-31 -49 -64.5 -75t-68 -27t-68.5 24t-66 77z" />
    <glyph glyph-name="ebreve" unicode="&#x115;" horiz-adv-x="496" 
d="M382 155l18 -15q-62 -82 -121 -118.5t-127 -36.5q-81 0 -130 54t-49 143q0 90 47.5 182.5t119 153t141.5 60.5q41 0 67.5 -24t26.5 -62q0 -77 -84 -154t-229 -131q-1 -8 -1 -18q0 -69 38 -112.5t98 -43.5q47 0 91 29.5t94 92.5zM62 231q108 48 166 107q39 40 63 86t24 83
q0 47 -43 47q-65 0 -131.5 -102.5t-78.5 -220.5zM151 802q34 -39 68 -56.5t67.5 -16t67 20.5t66.5 52v-17q-31 -49 -64.5 -75t-68 -27t-68.5 24t-66 77z" />
    <glyph glyph-name="Edotaccent" unicode="&#x116;" horiz-adv-x="1025" 
d="M855 218l-24 -119q-127 -60 -249.5 -92t-222.5 -32q-110 0 -191 31.5t-124.5 91.5t-43.5 141q0 135 122 268.5t348 246.5q-108 18 -108 112q0 134 232 301q72 52 146.5 91.5t140 60.5t115.5 21q52 0 81.5 -28.5t29.5 -77.5q0 -45 -22.5 -103t-65.5 -121t-96 -114l-53 58
q156 172 156 274q0 69 -82 69q-52 0 -128 -31t-151 -83q-100 -68 -158.5 -145t-58.5 -137q0 -29 18.5 -55t45.5 -37q28 -10 97 -13h17l-13 -64q-151 -65 -303 -177q-252 -186 -252 -350q0 -82 63.5 -133.5t162.5 -51.5q69 0 152.5 21t185.5 64t233 113zM1004 1492
q0 -26 -17 -44.5t-39 -18.5q-46 0 -46 45q0 18 8 33t20.5 23.5t27.5 8.5q21 0 33.5 -13t12.5 -34z" />
    <glyph glyph-name="edotaccent" unicode="&#x117;" horiz-adv-x="496" 
d="M382 155l18 -15q-62 -82 -121 -118.5t-127 -36.5q-81 0 -130 54t-49 143q0 90 47.5 182.5t119 153t141.5 60.5q41 0 67.5 -24t26.5 -62q0 -77 -84 -154t-229 -131q-1 -8 -1 -18q0 -69 38 -112.5t98 -43.5q47 0 91 29.5t94 92.5zM62 231q108 48 166 107q39 40 63 86t24 83
q0 47 -43 47q-65 0 -131.5 -102.5t-78.5 -220.5zM310 752q0 -26 -17 -44.5t-39 -18.5q-46 0 -46 45q0 18 8 33t20.5 23.5t27.5 8.5q21 0 33.5 -13t12.5 -34z" />
    <glyph glyph-name="Eogonek" unicode="&#x118;" horiz-adv-x="1025" 
d="M855 218l-24 -119q-127 -60 -249.5 -92t-222.5 -32q-110 0 -191 31.5t-124.5 91.5t-43.5 141q0 135 122 268.5t348 246.5q-108 18 -108 112q0 134 232 301q72 52 146.5 91.5t140 60.5t115.5 21q52 0 81.5 -28.5t29.5 -77.5q0 -45 -22.5 -103t-65.5 -121t-96 -114l-53 58
q156 172 156 274q0 69 -82 69q-52 0 -128 -31t-151 -83q-100 -68 -158.5 -145t-58.5 -137q0 -29 18.5 -55t45.5 -37q28 -10 97 -13h17l-13 -64q-151 -65 -303 -177q-252 -186 -252 -350q0 -82 63.5 -133.5t162.5 -51.5q69 0 152.5 21t185.5 64t233 113zM344 3l-15 -26
l-16 -3q-28 0 -36 -32q-7 -27 10 -49t45 -22q27 0 48 17l7 -18q-35 -22 -77 -22q-46 0 -68.5 27t-11.5 67q7 26 27 43.5t46 17.5h41z" />
    <glyph glyph-name="eogonek" unicode="&#x119;" horiz-adv-x="496" 
d="M382 155l18 -15q-62 -82 -121 -118.5t-127 -36.5q-81 0 -130 54t-49 143q0 90 47.5 182.5t119 153t141.5 60.5q41 0 67.5 -24t26.5 -62q0 -77 -84 -154t-229 -131q-1 -8 -1 -18q0 -69 38 -112.5t98 -43.5q47 0 91 29.5t94 92.5zM62 231q108 48 166 107q39 40 63 86t24 83
q0 47 -43 47q-65 0 -131.5 -102.5t-78.5 -220.5zM187 13l-15 -26l-16 -3q-28 0 -36 -32q-7 -27 10 -49t45 -22q27 0 48 17l7 -18q-35 -22 -77 -22q-46 0 -68.5 27t-11.5 67q7 26 27 43.5t46 17.5h41z" />
    <glyph glyph-name="Ecaron" unicode="&#x11a;" horiz-adv-x="1025" 
d="M855 218l-24 -119q-127 -60 -249.5 -92t-222.5 -32q-110 0 -191 31.5t-124.5 91.5t-43.5 141q0 135 122 268.5t348 246.5q-108 18 -108 112q0 134 232 301q72 52 146.5 91.5t140 60.5t115.5 21q52 0 81.5 -28.5t29.5 -77.5q0 -45 -22.5 -103t-65.5 -121t-96 -114l-53 58
q156 172 156 274q0 69 -82 69q-52 0 -128 -31t-151 -83q-100 -68 -158.5 -145t-58.5 -137q0 -29 18.5 -55t45.5 -37q28 -10 97 -13h17l-13 -64q-151 -65 -303 -177q-252 -186 -252 -350q0 -82 63.5 -133.5t162.5 -51.5q69 0 152.5 21t185.5 64t233 113zM1052 1556l11 -15
l-130 -100l-139 100l7 15l130 -48z" />
    <glyph glyph-name="ecaron" unicode="&#x11b;" horiz-adv-x="496" 
d="M382 155l18 -15q-62 -82 -121 -118.5t-127 -36.5q-81 0 -130 54t-49 143q0 90 47.5 182.5t119 153t141.5 60.5q41 0 67.5 -24t26.5 -62q0 -77 -84 -154t-229 -131q-1 -8 -1 -18q0 -69 38 -112.5t98 -43.5q47 0 91 29.5t94 92.5zM62 231q108 48 166 107q39 40 63 86t24 83
q0 47 -43 47q-65 0 -131.5 -102.5t-78.5 -220.5zM395 797l11 -15l-130 -100l-139 100l7 15l130 -48z" />
    <glyph glyph-name="Gcircumflex" unicode="&#x11c;" horiz-adv-x="969" 
d="M712 169l-2 -2q-85 -89 -178 -135t-188 -46q-90 0 -163 47t-113.5 131t-40.5 192q0 107 32.5 219.5t95 226.5t151.5 221q121 146 259.5 232.5t247.5 86.5q46 0 82.5 -18.5t55.5 -54t19 -82.5q0 -123 -104 -237.5t-259 -162.5l-33 76q153 48 254 146t101 197q0 28 -16 54
t-43 39t-62 13q-94 0 -208 -71t-212 -188q-75 -90 -132 -199t-88 -225t-31 -219q0 -80 18 -146.5t55 -116t88 -74.5t111 -25q143 0 309 165l4 5l36 171l104 59l-62 -299q-22 -109 -37.5 -157.5t-45.5 -103.5q-48 -88 -123.5 -154.5t-171 -102.5t-192.5 -36q-114 0 -189 35
l32 71q109 -62 227 -62q59 0 111 15.5t95.5 45.5t74.5 72q27 37 45 75t34 94.5t36 150.5zM705 1491l-135 -47l-7 15l154 98l115 -98l-11 -15z" />
    <glyph glyph-name="gcircumflex" unicode="&#x11d;" horiz-adv-x="620" 
d="M532 591l-153 -609q-23 -98 -40.5 -144t-42.5 -84q-47 -72 -114.5 -110.5t-145.5 -38.5q-71 0 -125 40l51 66q65 -62 129 -62q41 0 83 26t62 64q26 46 54 167l77 330q-134 -250 -272 -250q-56 0 -90.5 42.5t-34.5 108.5q0 94 53 196t133.5 169.5t156.5 67.5q71 0 118 -53
l9 35zM420 467q-39 75 -103 75q-67 0 -132 -74q-53 -62 -90.5 -155.5t-37.5 -167.5q0 -50 21.5 -78.5t60.5 -28.5q40 0 88.5 44t96.5 124q55 91 85 216zM328 742l-135 -47l-7 15l154 98l115 -98l-11 -15z" />
    <glyph glyph-name="Gbreve" unicode="&#x11e;" horiz-adv-x="969" 
d="M712 169l-2 -2q-85 -89 -178 -135t-188 -46q-90 0 -163 47t-113.5 131t-40.5 192q0 107 32.5 219.5t95 226.5t151.5 221q121 146 259.5 232.5t247.5 86.5q46 0 82.5 -18.5t55.5 -54t19 -82.5q0 -123 -104 -237.5t-259 -162.5l-33 76q153 48 254 146t101 197q0 28 -16 54
t-43 39t-62 13q-94 0 -208 -71t-212 -188q-75 -90 -132 -199t-88 -225t-31 -219q0 -80 18 -146.5t55 -116t88 -74.5t111 -25q143 0 309 165l4 5l36 171l104 59l-62 -299q-22 -109 -37.5 -157.5t-45.5 -103.5q-48 -88 -123.5 -154.5t-171 -102.5t-192.5 -36q-114 0 -189 35
l32 71q109 -62 227 -62q59 0 111 15.5t95.5 45.5t74.5 72q27 37 45 75t34 94.5t36 150.5zM641 1564q34 -39 68 -56.5t67.5 -16t67 20.5t66.5 52v-17q-31 -49 -64.5 -75t-68 -27t-68.5 24t-66 77z" />
    <glyph glyph-name="gbreve" unicode="&#x11f;" horiz-adv-x="620" 
d="M532 591l-153 -609q-23 -98 -40.5 -144t-42.5 -84q-47 -72 -114.5 -110.5t-145.5 -38.5q-71 0 -125 40l51 66q65 -62 129 -62q41 0 83 26t62 64q26 46 54 167l77 330q-134 -250 -272 -250q-56 0 -90.5 42.5t-34.5 108.5q0 94 53 196t133.5 169.5t156.5 67.5q71 0 118 -53
l9 35zM420 467q-39 75 -103 75q-67 0 -132 -74q-53 -62 -90.5 -155.5t-37.5 -167.5q0 -50 21.5 -78.5t60.5 -28.5q40 0 88.5 44t96.5 124q55 91 85 216zM220 815q34 -39 68 -56.5t67.5 -16t67 20.5t66.5 52v-17q-31 -49 -64.5 -75t-68 -27t-68.5 24t-66 77z" />
    <glyph glyph-name="Gdotaccent" unicode="&#x120;" horiz-adv-x="969" 
d="M712 169l-2 -2q-85 -89 -178 -135t-188 -46q-90 0 -163 47t-113.5 131t-40.5 192q0 107 32.5 219.5t95 226.5t151.5 221q121 146 259.5 232.5t247.5 86.5q46 0 82.5 -18.5t55.5 -54t19 -82.5q0 -123 -104 -237.5t-259 -162.5l-33 76q153 48 254 146t101 197q0 28 -16 54
t-43 39t-62 13q-94 0 -208 -71t-212 -188q-75 -90 -132 -199t-88 -225t-31 -219q0 -80 18 -146.5t55 -116t88 -74.5t111 -25q143 0 309 165l4 5l36 171l104 59l-62 -299q-22 -109 -37.5 -157.5t-45.5 -103.5q-48 -88 -123.5 -154.5t-171 -102.5t-192.5 -36q-114 0 -189 35
l32 71q109 -62 227 -62q59 0 111 15.5t95.5 45.5t74.5 72q27 37 45 75t34 94.5t36 150.5zM849 1492q0 -26 -17 -44.5t-39 -18.5q-46 0 -46 45q0 18 8 33t20.5 23.5t27.5 8.5q21 0 33.5 -13t12.5 -34z" />
    <glyph glyph-name="gdotaccent" unicode="&#x121;" horiz-adv-x="620" 
d="M532 591l-153 -609q-23 -98 -40.5 -144t-42.5 -84q-47 -72 -114.5 -110.5t-145.5 -38.5q-71 0 -125 40l51 66q65 -62 129 -62q41 0 83 26t62 64q26 46 54 167l77 330q-134 -250 -272 -250q-56 0 -90.5 42.5t-34.5 108.5q0 94 53 196t133.5 169.5t156.5 67.5q71 0 118 -53
l9 35zM420 467q-39 75 -103 75q-67 0 -132 -74q-53 -62 -90.5 -155.5t-37.5 -167.5q0 -50 21.5 -78.5t60.5 -28.5q40 0 88.5 44t96.5 124q55 91 85 216zM413 752q0 -26 -17 -44.5t-39 -18.5q-46 0 -46 45q0 18 8 33t20.5 23.5t27.5 8.5q21 0 33.5 -13t12.5 -34z" />
    <glyph glyph-name="Gcedilla" unicode="&#x122;" horiz-adv-x="969" 
d="M712 169l-2 -2q-85 -89 -178 -135t-188 -46q-90 0 -163 47t-113.5 131t-40.5 192q0 107 32.5 219.5t95 226.5t151.5 221q121 146 259.5 232.5t247.5 86.5q46 0 82.5 -18.5t55.5 -54t19 -82.5q0 -123 -104 -237.5t-259 -162.5l-33 76q153 48 254 146t101 197q0 28 -16 54
t-43 39t-62 13q-94 0 -208 -71t-212 -188q-75 -90 -132 -199t-88 -225t-31 -219q0 -80 18 -146.5t55 -116t88 -74.5t111 -25q143 0 309 165l4 5l36 171l104 59l-62 -299q-22 -109 -37.5 -157.5t-45.5 -103.5q-48 -88 -123.5 -154.5t-171 -102.5t-192.5 -36q-114 0 -189 35
l32 71q109 -62 227 -62q59 0 111 15.5t95.5 45.5t74.5 72q27 37 45 75t34 94.5t36 150.5zM269 -763l-12 18q50 32 82.5 65t42.5 63q-22 -18 -41 -18q-22 0 -34 14t-12 36q0 33 21 56.5t51 23.5q25 0 42 -18.5t17 -46.5q0 -48 -44.5 -102.5t-112.5 -90.5z" />
    <glyph glyph-name="gcedilla" unicode="&#x123;" horiz-adv-x="620" 
d="M532 591l-153 -609q-23 -98 -40.5 -144t-42.5 -84q-47 -72 -114.5 -110.5t-145.5 -38.5q-71 0 -125 40l51 66q65 -62 129 -62q41 0 83 26t62 64q26 46 54 167l77 330q-134 -250 -272 -250q-56 0 -90.5 42.5t-34.5 108.5q0 94 53 196t133.5 169.5t156.5 67.5q71 0 118 -53
l9 35zM420 467q-39 75 -103 75q-67 0 -132 -74q-53 -62 -90.5 -155.5t-37.5 -167.5q0 -50 21.5 -78.5t60.5 -28.5q40 0 88.5 44t96.5 124q55 91 85 216zM482 1000l14 -22q-132 -104 -140 -177q22 21 46 21q21 0 35 -14t14 -36q0 -31 -21 -54t-51 -23q-29 0 -46.5 20.5
t-17.5 51.5q0 52 47 116.5t120 116.5z" />
    <glyph glyph-name="Hcircumflex" unicode="&#x124;" horiz-adv-x="1410" 
d="M738 477h420l171 818l105 52l-284 -1347h-62q-23 69 -60.5 135t-88.5 128.5t-105.5 110.5t-108.5 74l-3 -5q-57 -131 -138.5 -233.5t-167.5 -155.5q-50 -31 -114.5 -54t-135 -35t-142.5 -12q-49 0 -106 10l32 79q115 -37 203 -37q110 0 210 57t165 155q91 137 167 373
q13 39 39 132t47.5 179t33.5 143l35 178l3 19l113 56q-10 -80 -35 -189t-57.5 -225t-68.5 -226.5t-65 -174.5zM1150 443h-342q70 -54 151 -142.5t128 -163.5zM1183 1496l-135 -47l-7 15l154 98l115 -98l-11 -15z" />
    <glyph glyph-name="hcircumflex" unicode="&#x125;" horiz-adv-x="638" 
d="M-31 -10l266 1368l105 51l-277 -1218q4 7 4 9l23 52q59 134 148 232q84 91 155 91q38 0 61 -24.5t23 -65.5q0 -23 -11 -65l-10 -42l-31 -122l-9 -39q-15 -60 -15 -92t11 -51.5t29 -19.5q31 0 99 74l15 -14l-9 -11q-57 -67 -84.5 -90.5t-49.5 -23.5q-31 0 -53 33t-22 77
q0 27 13 95l38 212q9 47 9 70q0 21 -11 32t-30 11q-37 0 -85 -43.5t-96.5 -120.5t-84.5 -164.5t-54 -179.5zM314 1515l-135 -47l-7 15l154 98l115 -98l-11 -15z" />
    <glyph glyph-name="Hbar" unicode="&#x126;" horiz-adv-x="1522" 
d="M1551 877l-9 -45h-217l-175 -832h-62q-23 69 -60.5 135t-88.5 128.5t-105.5 110.5t-108.5 74l-3 -5q-57 -131 -138.5 -233.5t-167.5 -155.5q-50 -31 -114.5 -54t-135 -35t-142.5 -12q-49 0 -106 10l32 79q115 -37 203 -37q110 0 210 57t165 155q91 137 167 373
q13 39 39 132q16 56 30 110h-216l9 45h218l6 24q22 86 34 143l35 178l3 19l113 56q-10 -80 -35 -189t-58 -225q-1 -3 -1 -6h369l88 418l105 52l-99 -470h216zM738 477h420l74 355h-373q-26 -90 -54 -176q-36 -110 -65 -174zM1150 443h-342q70 -54 151 -142.5t128 -163.5z
" />
    <glyph glyph-name="hbar" unicode="&#x127;" horiz-adv-x="687" 
d="M501 1027l-9 -45h-199l-180 -791q4 7 4 9l23 52q59 134 148 232q84 91 155 91q38 0 61 -24.5t23 -65.5q0 -23 -11 -65l-10 -42l-31 -122l-9 -39q-15 -60 -15 -92t11 -51.5t29 -19.5q31 0 99 74l15 -14l-9 -11q-57 -67 -84.5 -90.5t-49.5 -23.5q-31 0 -53 33t-22 77
q0 27 13 95l38 212q9 47 9 70q0 21 -11 32t-30 11q-37 0 -85 -43.5t-96.5 -120.5t-84.5 -164.5t-54 -179.5l-67 -21l193 992h-214l9 45h213l65 331l105 51l-87 -382h198z" />
    <glyph glyph-name="Itilde" unicode="&#x128;" horiz-adv-x="873" 
d="M-68 -24l30 77q89 -39 195 -39q129 0 235 86q62 49 104.5 110t90.5 166l8 16q-83 53 -122.5 144.5t-39.5 227.5q0 94 29 202.5t80 202.5q43 84 93 131.5t94 47.5q60 0 92 -72t32 -205q0 -101 -22.5 -224.5t-63.5 -247.5t-86 -207q29 -11 61 -11t67 11l-9 -27
q-26 -8 -64 -8q-39 0 -72 8q-81 -138 -175.5 -227.5t-206 -132.5t-244.5 -43q-64 0 -106 14zM610 424q38 86 74 226q38 143 64 293.5t26 230.5q0 68 -16 105t-48 37q-46 0 -93.5 -90.5t-78 -232.5t-30.5 -277q0 -221 102 -292zM941 1517q-69 -67 -113 -67q-20 0 -40 16
l-23 18q-22 18 -37 18q-27 0 -72 -44l-14 13q28 31 58.5 49.5t52.5 18.5q21 0 64 -32q26 -18 39 -18q30 0 71 43z" />
    <glyph glyph-name="itilde" unicode="&#x129;" horiz-adv-x="295" 
d="M173 585l-88 -329q-22 -81 -22 -130q0 -32 11 -52t29 -20q31 0 99 74l16 -14l-10 -11q-57 -67 -84 -90.5t-50 -23.5q-31 0 -52.5 31.5t-21.5 78.5q0 30 12 95l63 350zM300 756q-69 -67 -113 -67q-20 0 -40 16l-23 18q-22 18 -37 18q-27 0 -72 -44l-14 13q28 31 58.5 49.5
t52.5 18.5q21 0 64 -32q26 -18 39 -18q30 0 71 43z" />
    <glyph glyph-name="Imacron" unicode="&#x12a;" horiz-adv-x="873" 
d="M-68 -24l30 77q89 -39 195 -39q129 0 235 86q62 49 104.5 110t90.5 166l8 16q-83 53 -122.5 144.5t-39.5 227.5q0 94 29 202.5t80 202.5q43 84 93 131.5t94 47.5q60 0 92 -72t32 -205q0 -101 -22.5 -224.5t-63.5 -247.5t-86 -207q29 -11 61 -11t67 11l-9 -27
q-26 -8 -64 -8q-39 0 -72 8q-81 -138 -175.5 -227.5t-206 -132.5t-244.5 -43q-64 0 -106 14zM610 424q38 86 74 226q38 143 64 293.5t26 230.5q0 68 -16 105t-48 37q-46 0 -93.5 -90.5t-78 -232.5t-30.5 -277q0 -221 102 -292zM869 1495l-9 -45h-244l9 45h244z" />
    <glyph glyph-name="imacron" unicode="&#x12b;" horiz-adv-x="295" 
d="M173 585l-88 -329q-22 -81 -22 -130q0 -32 11 -52t29 -20q31 0 99 74l16 -14l-10 -11q-57 -67 -84 -90.5t-50 -23.5q-31 0 -52.5 31.5t-21.5 78.5q0 30 12 95l63 350zM268 732l-9 -45h-244l9 45h244z" />
    <glyph glyph-name="Ibreve" unicode="&#x12c;" horiz-adv-x="873" 
d="M-68 -24l30 77q89 -39 195 -39q129 0 235 86q62 49 104.5 110t90.5 166l8 16q-83 53 -122.5 144.5t-39.5 227.5q0 94 29 202.5t80 202.5q43 84 93 131.5t94 47.5q60 0 92 -72t32 -205q0 -101 -22.5 -224.5t-63.5 -247.5t-86 -207q29 -11 61 -11t67 11l-9 -27
q-26 -8 -64 -8q-39 0 -72 8q-81 -138 -175.5 -227.5t-206 -132.5t-244.5 -43q-64 0 -106 14zM610 424q38 86 74 226q38 143 64 293.5t26 230.5q0 68 -16 105t-48 37q-46 0 -93.5 -90.5t-78 -232.5t-30.5 -277q0 -221 102 -292zM608 1570q34 -39 68 -56.5t67.5 -16t67 20.5
t66.5 52v-17q-31 -49 -64.5 -75t-68 -27t-68.5 24t-66 77z" />
    <glyph glyph-name="ibreve" unicode="&#x12d;" horiz-adv-x="295" 
d="M173 585l-88 -329q-22 -81 -22 -130q0 -32 11 -52t29 -20q31 0 99 74l16 -14l-10 -11q-57 -67 -84 -90.5t-50 -23.5q-31 0 -52.5 31.5t-21.5 78.5q0 30 12 95l63 350zM-3 809q34 -39 68 -56.5t67.5 -16t67 20.5t66.5 52v-17q-31 -49 -64.5 -75t-68 -27t-68.5 24t-66 77z
" />
    <glyph glyph-name="Iogonek" unicode="&#x12e;" horiz-adv-x="873" 
d="M-68 -24l30 77q89 -39 195 -39q129 0 235 86q62 49 104.5 110t90.5 166l8 16q-83 53 -122.5 144.5t-39.5 227.5q0 94 29 202.5t80 202.5q43 84 93 131.5t94 47.5q60 0 92 -72t32 -205q0 -101 -22.5 -224.5t-63.5 -247.5t-86 -207q29 -11 61 -11t67 11l-9 -27
q-26 -8 -64 -8q-39 0 -72 8q-81 -138 -175.5 -227.5t-206 -132.5t-244.5 -43q-64 0 -106 14zM610 424q38 86 74 226q38 143 64 293.5t26 230.5q0 68 -16 105t-48 37q-46 0 -93.5 -90.5t-78 -232.5t-30.5 -277q0 -221 102 -292zM133 0l-15 -26l-16 -3q-28 0 -36 -32
q-7 -27 10 -49t45 -22q27 0 48 17l7 -18q-35 -22 -77 -22q-46 0 -68.5 27t-11.5 67q7 26 27 43.5t46 17.5h41z" />
    <glyph glyph-name="iogonek" unicode="&#x12f;" horiz-adv-x="295" 
d="M202 977q26 0 42 -16t16 -42q0 -25 -17 -42t-41 -17q-23 0 -41 18t-18 41q0 24 17 41t42 17zM173 585l-88 -329q-22 -81 -22 -130q0 -32 11 -52t29 -20q31 0 99 74l16 -14l-10 -11q-57 -67 -84 -90.5t-50 -23.5q-31 0 -52.5 31.5t-21.5 78.5q0 30 12 95l63 350zM121 27
l-15 -26l-16 -3q-28 0 -36 -32q-7 -27 10 -49t45 -22q27 0 48 17l7 -18q-35 -22 -77 -22q-46 0 -68.5 27t-11.5 67q7 26 27 43.5t46 17.5h41z" />
    <glyph glyph-name="Idotaccent" unicode="&#x130;" horiz-adv-x="873" 
d="M-68 -24l30 77q89 -39 195 -39q129 0 235 86q62 49 104.5 110t90.5 166l8 16q-83 53 -122.5 144.5t-39.5 227.5q0 94 29 202.5t80 202.5q43 84 93 131.5t94 47.5q60 0 92 -72t32 -205q0 -101 -22.5 -224.5t-63.5 -247.5t-86 -207q29 -11 61 -11t67 11l-9 -27
q-26 -8 -64 -8q-39 0 -72 8q-81 -138 -175.5 -227.5t-206 -132.5t-244.5 -43q-64 0 -106 14zM610 424q38 86 74 226q38 143 64 293.5t26 230.5q0 68 -16 105t-48 37q-46 0 -93.5 -90.5t-78 -232.5t-30.5 -277q0 -221 102 -292zM793 1513q0 -26 -17 -44.5t-39 -18.5
q-46 0 -46 45q0 18 8 33t20.5 23.5t27.5 8.5q21 0 33.5 -13t12.5 -34z" />
    <glyph glyph-name="i.dotless" unicode="&#x131;" horiz-adv-x="295" 
d="M173 585l-88 -329q-22 -81 -22 -130q0 -32 11 -52t29 -20q31 0 99 74l16 -14l-10 -11q-57 -67 -84 -90.5t-50 -23.5q-31 0 -52.5 31.5t-21.5 78.5q0 30 12 95l63 350z" />
    <glyph glyph-name="IJ" unicode="&#x132;" horiz-adv-x="1757" 
d="M-68 -24l30 77q89 -39 195 -39q129 0 235 86q62 49 104.5 110t90.5 166l8 16q-83 53 -122.5 144.5t-39.5 227.5q0 94 29 202.5t80 202.5q43 84 93 131.5t94 47.5q60 0 92 -72t32 -205q0 -101 -22.5 -224.5t-63.5 -247.5t-86 -207q29 -11 61 -11t67 11l-9 -27
q-26 -8 -64 -8q-39 0 -72 8q-81 -138 -175.5 -227.5t-206 -132.5t-244.5 -43q-64 0 -106 14zM610 424q38 86 74 226q38 143 64 293.5t26 230.5q0 68 -16 105t-48 37q-46 0 -93.5 -90.5t-78 -232.5t-30.5 -277q0 -221 102 -292zM1464 647l-72 -60q-32 49 -45.5 99t-13.5 123
q0 176 93 364q40 82 90 127t97 45q62 0 93 -72.5t31 -212.5q0 -125 -33 -285t-89 -306q57 7 88 7q8 0 15 -1l-6 -29q-51 0 -108 -8q-81 -203 -196 -376t-234.5 -270t-218.5 -97q-70 0 -110 42t-40 115q0 56 30 122.5t84 133t126 123.5q65 53 136 93.5t152.5 72t171.5 54.5
l7 19q84 254 116 452q21 139 21 226q0 71 -17 110.5t-47 39.5q-43 0 -87 -61.5t-72 -157t-28 -187.5q0 -148 66 -245zM1490 416q-119 -29 -229.5 -85t-190.5 -127q-92 -83 -145.5 -179.5t-53.5 -180.5q0 -53 27 -87t69 -34q128 0 291 224q39 52 80.5 129.5t94.5 196.5
q30 69 57 143z" />
    <glyph glyph-name="ij" unicode="&#x133;" horiz-adv-x="568" 
d="M202 977q26 0 42 -16t16 -42q0 -25 -17 -42t-41 -17q-23 0 -41 18t-18 41q0 24 17 41t42 17zM173 585l-88 -329q-22 -81 -22 -130q0 -32 11 -52t29 -20q31 0 99 74l16 -14l-10 -11q-57 -67 -84 -90.5t-50 -23.5q-31 0 -52.5 31.5t-21.5 78.5q0 30 12 95l63 350zM467 585
l-158 -671q-19 -83 -35 -124.5t-43 -77.5q-37 -50 -91.5 -77.5t-115.5 -27.5q-40 0 -67 12l48 70q41 -31 86 -31q37 0 70 23.5t52 65.5q14 30 29 113l128 684zM496 977q26 0 42 -16t16 -42q0 -25 -17 -42t-41 -17q-23 0 -41 18t-18 41q0 24 17 41t42 17z" />
    <glyph glyph-name="Jcircumflex" unicode="&#x134;" horiz-adv-x="884" 
d="M591 647l-72 -60q-32 49 -45.5 99t-13.5 123q0 176 93 364q40 82 90 127t97 45q62 0 93 -72.5t31 -212.5q0 -125 -33 -285t-89 -306q57 7 88 7q8 0 15 -1l-6 -29q-51 0 -108 -8q-81 -203 -196 -376t-234.5 -270t-218.5 -97q-70 0 -110 42t-40 115q0 56 30 122.5t84 133
t126 123.5q65 53 136 93.5t152.5 72t171.5 54.5l7 19q84 254 116 452q21 139 21 226q0 71 -17 110.5t-47 39.5q-43 0 -87 -61.5t-72 -157t-28 -187.5q0 -148 66 -245zM617 416q-119 -29 -229.5 -85t-190.5 -127q-92 -83 -145.5 -179.5t-53.5 -180.5q0 -53 27 -87t69 -34
q128 0 291 224q39 52 80.5 129.5t94.5 196.5q30 69 57 143zM756 1494l-135 -47l-7 15l154 98l115 -98l-11 -15z" />
    <glyph glyph-name="jcircumflex" unicode="&#x135;" horiz-adv-x="273" 
d="M172 585l-158 -671q-19 -83 -35 -124.5t-43 -77.5q-37 -50 -91.5 -77.5t-115.5 -27.5q-40 0 -67 12l48 70q41 -31 86 -31q37 0 70 23.5t52 65.5q14 30 29 113l128 684zM127 736l-135 -47l-7 15l154 98l115 -98l-11 -15z" />
    <glyph glyph-name="Kcedilla" unicode="&#x136;" horiz-adv-x="1436" 
d="M1600 1303l-732 -799q33 -77 89 -163.5t118.5 -159t133.5 -130.5l-71 -67q-214 193 -348 484l703 835h107zM877 1297l109 51q-15 -95 -41.5 -217.5t-61.5 -252.5t-65 -217q-33 -101 -70.5 -190.5t-76.5 -155t-85 -120t-97 -95.5q-178 -147 -452 -147q-68 0 -105 12l30 74
q115 -33 212 -33q223 0 383 235q46 68 83.5 157t83.5 249q22 76 43.5 158.5t40 160t38 168t27.5 138.5zM690 -364l-12 18q50 32 82.5 65t42.5 63q-22 -18 -41 -18q-22 0 -34 14t-12 36q0 33 21 56.5t51 23.5q25 0 42 -18.5t17 -46.5q0 -48 -44.5 -102.5t-112.5 -90.5z" />
    <glyph glyph-name="kcedilla" unicode="&#x137;" horiz-adv-x="593" 
d="M345 1409l-272 -1183q23 54 55 104t73 97.5t79 77.5q49 39 98.5 58t111.5 22l-18 -80q-30 6 -45 6q-118 0 -220 -119q41 -110 87 -198q26 -51 45.5 -81.5t36 -44.5t32.5 -14q38 0 96 61l8 9l13 -15q-101 -122 -147 -122q-31 0 -58 27t-63 93q-63 115 -103 218
q-94 -155 -120 -313l-65 -21l268 1367zM78 -364l-12 18q50 32 82.5 65t42.5 63q-22 -18 -41 -18q-22 0 -34 14t-12 36q0 33 21 56.5t51 23.5q25 0 42 -18.5t17 -46.5q0 -48 -44.5 -102.5t-112.5 -90.5z" />
    <glyph glyph-name="kgreenlandic" unicode="&#x138;" horiz-adv-x="593" 
d="M182 629l-109 -403q23 54 55 104t73 97.5t79 77.5q49 39 98.5 58t111.5 22l-18 -80q-30 6 -45 6q-118 0 -220 -119q41 -110 87 -198q26 -51 45.5 -81.5t36 -44.5t32.5 -14q38 0 96 61l8 9l13 -15q-101 -122 -147 -122q-31 0 -58 27t-63 93q-63 115 -103 218
q-94 -155 -120 -313l-65 -21l105 587z" />
    <glyph glyph-name="Lacute" unicode="&#x139;" horiz-adv-x="1189" 
d="M1100 77l-43 -97q-29 -5 -51 -5q-44 0 -119 13q-54 10 -107.5 24.5t-138.5 41.5q-69 22 -137 41q-62 -59 -146 -91.5t-168 -32.5q-98 0 -157.5 35.5t-59.5 93.5q0 62 67 97t181 35q130 0 291 -47q30 52 48.5 109t39.5 158l71 334q31 145 57.5 226t61.5 140q33 56 76 99
t89 66t90 23q48 0 84 -22.5t54.5 -65t18.5 -98.5q0 -51 -19 -129t-49 -144l-93 -14q42 78 70 168.5t28 153.5q0 59 -25 91t-73 32q-103 0 -172 -136q-22 -44 -36 -89.5t-37 -150.5l-89 -417q-29 -134 -60 -213t-79 -139l25 -8q151 -50 242.5 -71.5t158.5 -21.5q47 0 106 11z
M457 110l-24 7q-179 54 -274 54q-151 0 -151 -79q0 -40 52 -67.5t131 -27.5q76 0 146 30t120 83zM1201 1596l-209 -154l-20 7l164 165z" />
    <glyph glyph-name="lacute" unicode="&#x13a;" horiz-adv-x="295" 
d="M348 1409l-263 -1153l-9 -39q-13 -55 -13 -93q0 -31 11.5 -50.5t28.5 -19.5q31 0 99 74l16 -14l-10 -11q-57 -67 -84 -90.5t-50 -23.5q-30 0 -52.5 33.5t-22.5 76.5q0 30 13 95l231 1164zM512 1624l-209 -154l-20 7l164 165z" />
    <glyph glyph-name="Lcedilla" unicode="&#x13b;" horiz-adv-x="1189" 
d="M1100 77l-43 -97q-29 -5 -51 -5q-44 0 -119 13q-54 10 -107.5 24.5t-138.5 41.5q-69 22 -137 41q-62 -59 -146 -91.5t-168 -32.5q-98 0 -157.5 35.5t-59.5 93.5q0 62 67 97t181 35q130 0 291 -47q30 52 48.5 109t39.5 158l71 334q31 145 57.5 226t61.5 140q33 56 76 99
t89 66t90 23q48 0 84 -22.5t54.5 -65t18.5 -98.5q0 -51 -19 -129t-49 -144l-93 -14q42 78 70 168.5t28 153.5q0 59 -25 91t-73 32q-103 0 -172 -136q-22 -44 -36 -89.5t-37 -150.5l-89 -417q-29 -134 -60 -213t-79 -139l25 -8q151 -50 242.5 -71.5t158.5 -21.5q47 0 106 11z
M457 110l-24 7q-179 54 -274 54q-151 0 -151 -79q0 -40 52 -67.5t131 -27.5q76 0 146 30t120 83zM514 -387l-12 18q50 32 82.5 65t42.5 63q-22 -18 -41 -18q-22 0 -34 14t-12 36q0 33 21 56.5t51 23.5q25 0 42 -18.5t17 -46.5q0 -48 -44.5 -102.5t-112.5 -90.5z" />
    <glyph glyph-name="lcedilla" unicode="&#x13c;" horiz-adv-x="295" 
d="M348 1409l-263 -1153l-9 -39q-13 -55 -13 -93q0 -31 11.5 -50.5t28.5 -19.5q31 0 99 74l16 -14l-10 -11q-57 -67 -84 -90.5t-50 -23.5q-30 0 -52.5 33.5t-22.5 76.5q0 30 13 95l231 1164zM-39 -369l-12 18q50 32 82.5 65t42.5 63q-22 -18 -41 -18q-22 0 -34 14t-12 36
q0 33 21 56.5t51 23.5q25 0 42 -18.5t17 -46.5q0 -48 -44.5 -102.5t-112.5 -90.5z" />
    <glyph glyph-name="Lcaron" unicode="&#x13d;" horiz-adv-x="1189" 
d="M1100 77l-43 -97q-29 -5 -51 -5q-44 0 -119 13q-54 10 -107.5 24.5t-138.5 41.5q-69 22 -137 41q-62 -59 -146 -91.5t-168 -32.5q-98 0 -157.5 35.5t-59.5 93.5q0 62 67 97t181 35q130 0 291 -47q30 52 48.5 109t39.5 158l71 334q31 145 57.5 226t61.5 140q33 56 76 99
t89 66t90 23q48 0 84 -22.5t54.5 -65t18.5 -98.5q0 -51 -19 -129t-49 -144l-93 -14q42 78 70 168.5t28 153.5q0 59 -25 91t-73 32q-103 0 -172 -136q-22 -44 -36 -89.5t-37 -150.5l-89 -417q-29 -134 -60 -213t-79 -139l25 -8q151 -50 242.5 -71.5t158.5 -21.5q47 0 106 11z
M457 110l-24 7q-179 54 -274 54q-151 0 -151 -79q0 -40 52 -67.5t131 -27.5q76 0 146 30t120 83zM1132 1556l11 -15l-130 -100l-139 100l7 15l130 -48z" />
    <glyph glyph-name="lcaron" unicode="&#x13e;" horiz-adv-x="295" 
d="M348 1409l-263 -1153l-9 -39q-13 -55 -13 -93q0 -31 11.5 -50.5t28.5 -19.5q31 0 99 74l16 -14l-10 -11q-57 -67 -84 -90.5t-50 -23.5q-30 0 -52.5 33.5t-22.5 76.5q0 30 13 95l231 1164zM441 1556l11 -15l-130 -100l-139 100l7 15l130 -48z" />
    <glyph glyph-name="Ldotaccent" unicode="&#x13f;" horiz-adv-x="1189" 
d="M1100 77l-43 -97q-29 -5 -51 -5q-44 0 -119 13q-54 10 -107.5 24.5t-138.5 41.5q-69 22 -137 41q-62 -59 -146 -91.5t-168 -32.5q-98 0 -157.5 35.5t-59.5 93.5q0 62 67 97t181 35q130 0 291 -47q30 52 48.5 109t39.5 158l71 334q31 145 57.5 226t61.5 140q33 56 76 99
t89 66t90 23q48 0 84 -22.5t54.5 -65t18.5 -98.5q0 -51 -19 -129t-49 -144l-93 -14q42 78 70 168.5t28 153.5q0 59 -25 91t-73 32q-103 0 -172 -136q-22 -44 -36 -89.5t-37 -150.5l-89 -417q-29 -134 -60 -213t-79 -139l25 -8q151 -50 242.5 -71.5t158.5 -21.5q47 0 106 11z
M457 110l-24 7q-179 54 -274 54q-151 0 -151 -79q0 -40 52 -67.5t131 -27.5q76 0 146 30t120 83zM1062 577q26 0 42 -16t16 -42q0 -25 -17 -42t-41 -17q-23 0 -41 18t-18 41q0 24 17 41t42 17z" />
    <glyph glyph-name="ldotaccent" unicode="&#x140;" horiz-adv-x="564" 
d="M348 1409l-263 -1153l-9 -39q-13 -55 -13 -93q0 -31 11.5 -50.5t28.5 -19.5q31 0 99 74l16 -14l-10 -11q-57 -67 -84 -90.5t-50 -23.5q-30 0 -52.5 33.5t-22.5 76.5q0 30 13 95l231 1164zM462 727q26 0 42 -16t16 -42q0 -25 -17 -42t-41 -17q-23 0 -41 18t-18 41
q0 24 17 41t42 17z" />
    <glyph glyph-name="Lslash" unicode="&#x141;" horiz-adv-x="1189" 
d="M1001 727l-9 -55l-271 -84l-14 -69q-29 -134 -60 -213t-79 -139l25 -8q151 -50 242.5 -71.5t158.5 -21.5q47 0 106 11l-43 -97q-29 -5 -51 -5q-44 0 -119 13q-54 10 -107.5 24.5t-138.5 41.5q-69 22 -137 41q-62 -59 -146 -91.5t-168 -32.5q-98 0 -157.5 35.5t-59.5 93.5
q0 62 67 97t181 35q130 0 291 -47q30 52 48.5 109t39.5 158l22 105l-274 -85l9 55l277 86l37 173q31 145 57.5 226t61.5 140q33 56 76 99t89 66t90 23q48 0 84 -22.5t54.5 -65t18.5 -98.5q0 -51 -19 -129t-49 -144l-93 -14q42 78 70 168.5t28 153.5q0 59 -25 91t-73 32
q-103 0 -172 -136q-22 -44 -36 -89.5t-37 -150.5l-63 -292zM457 110l-24 7q-179 54 -274 54q-151 0 -151 -79q0 -40 52 -67.5t131 -27.5q76 0 146 30t120 83z" />
    <glyph glyph-name="lslash" unicode="&#x142;" horiz-adv-x="749" 
d="M677 838l-9 -55l-282 -88l-101 -439l-9 -39q-13 -55 -13 -93q0 -31 11.5 -50.5t28.5 -19.5q31 0 99 74l16 -14l-10 -11q-57 -67 -84 -90.5t-50 -23.5q-30 0 -52.5 33.5t-22.5 76.5q0 30 13 95l92 476l-280 -87l9 55l282 87l128 633l105 51l-149 -658z" />
    <glyph glyph-name="Nacute" unicode="&#x143;" horiz-adv-x="1051" 
d="M782 0h-96l229 1040q14 62 14 92q0 34 -16.5 54t-45.5 20q-89 0 -211 -198q-48 -77 -102.5 -184t-97.5 -202.5t-87 -210.5t-78 -223l-53 -169l-6 -19h-85l6 20q66 228 149 635q32 153 56 288q33 181 33 252q0 37 -8 66.5t-22.5 44.5t-34.5 15q-81 0 -136 -200
q-43 -153 -57 -277l-78 54q20 125 62 230.5t95 164t107 58.5q64 0 100.5 -69t36.5 -191q0 -100 -19 -220q-13 -82 -28 -163l-51 -246l9 22q87 212 166.5 367t148.5 251q124 169 230 169q49 0 80.5 -34.5t31.5 -89.5q0 -47 -17 -124zM914 1607l-209 -154l-20 7l164 165z" />
    <glyph glyph-name="nacute" unicode="&#x144;" horiz-adv-x="664" 
d="M-17 -10l106 554l95 41l-86 -367q83 175 165 266t157 91q37 0 60 -24.5t23 -65.5q0 -23 -11 -65l-10 -42l-30 -122l-10 -39q-15 -60 -15 -92t11 -51.5t29 -19.5q31 0 99 74l16 -14l-10 -11q-57 -67 -84 -90.5t-50 -23.5q-31 0 -52.5 31.5t-21.5 78.5q0 32 12 95l39 212
q8 50 8 70q0 21 -11 32t-30 11q-69 0 -170 -148q-49 -71 -81 -140.5t-72 -192.5l-9 -27zM496 843l-209 -154l-20 7l164 165z" />
    <glyph glyph-name="Ncedilla" unicode="&#x145;" horiz-adv-x="1051" 
d="M782 0h-96l229 1040q14 62 14 92q0 34 -16.5 54t-45.5 20q-89 0 -211 -198q-48 -77 -102.5 -184t-97.5 -202.5t-87 -210.5t-78 -223l-53 -169l-6 -19h-85l6 20q66 228 149 635q32 153 56 288q33 181 33 252q0 37 -8 66.5t-22.5 44.5t-34.5 15q-81 0 -136 -200
q-43 -153 -57 -277l-78 54q20 125 62 230.5t95 164t107 58.5q64 0 100.5 -69t36.5 -191q0 -100 -19 -220q-13 -82 -28 -163l-51 -246l9 22q87 212 166.5 367t148.5 251q124 169 230 169q49 0 80.5 -34.5t31.5 -89.5q0 -47 -17 -124zM366 -358l-12 18q50 32 82.5 65t42.5 63
q-22 -18 -41 -18q-22 0 -34 14t-12 36q0 33 21 56.5t51 23.5q25 0 42 -18.5t17 -46.5q0 -48 -44.5 -102.5t-112.5 -90.5z" />
    <glyph glyph-name="ncedilla" unicode="&#x146;" horiz-adv-x="664" 
d="M-17 -10l106 554l95 41l-86 -367q83 175 165 266t157 91q37 0 60 -24.5t23 -65.5q0 -23 -11 -65l-10 -42l-30 -122l-10 -39q-15 -60 -15 -92t11 -51.5t29 -19.5q31 0 99 74l16 -14l-10 -11q-57 -67 -84 -90.5t-50 -23.5q-31 0 -52.5 31.5t-21.5 78.5q0 32 12 95l39 212
q8 50 8 70q0 21 -11 32t-30 11q-69 0 -170 -148q-49 -71 -81 -140.5t-72 -192.5l-9 -27zM109 -369l-12 18q50 32 82.5 65t42.5 63q-22 -18 -41 -18q-22 0 -34 14t-12 36q0 33 21 56.5t51 23.5q25 0 42 -18.5t17 -46.5q0 -48 -44.5 -102.5t-112.5 -90.5z" />
    <glyph glyph-name="Ncaron" unicode="&#x147;" horiz-adv-x="1051" 
d="M782 0h-96l229 1040q14 62 14 92q0 34 -16.5 54t-45.5 20q-89 0 -211 -198q-48 -77 -102.5 -184t-97.5 -202.5t-87 -210.5t-78 -223l-53 -169l-6 -19h-85l6 20q66 228 149 635q32 153 56 288q33 181 33 252q0 37 -8 66.5t-22.5 44.5t-34.5 15q-81 0 -136 -200
q-43 -153 -57 -277l-78 54q20 125 62 230.5t95 164t107 58.5q64 0 100.5 -69t36.5 -191q0 -100 -19 -220q-13 -82 -28 -163l-51 -246l9 22q87 212 166.5 367t148.5 251q124 169 230 169q49 0 80.5 -34.5t31.5 -89.5q0 -47 -17 -124zM840 1556l11 -15l-130 -100l-139 100
l7 15l130 -48z" />
    <glyph glyph-name="ncaron" unicode="&#x148;" horiz-adv-x="664" 
d="M-17 -10l106 554l95 41l-86 -367q83 175 165 266t157 91q37 0 60 -24.5t23 -65.5q0 -23 -11 -65l-10 -42l-30 -122l-10 -39q-15 -60 -15 -92t11 -51.5t29 -19.5q31 0 99 74l16 -14l-10 -11q-57 -67 -84 -90.5t-50 -23.5q-31 0 -52.5 31.5t-21.5 78.5q0 32 12 95l39 212
q8 50 8 70q0 21 -11 32t-30 11q-69 0 -170 -148q-49 -71 -81 -140.5t-72 -192.5l-9 -27zM455 804l11 -15l-130 -100l-139 100l7 15l130 -48z" />
    <glyph glyph-name="quoterightn" unicode="&#x149;" horiz-adv-x="775" 
d="M53 734l-13 22q131 103 139 177q-20 -21 -46 -21q-21 0 -35 14t-14 35q0 32 22 55t50 23q29 0 46.5 -19t17.5 -53q0 -50 -45.5 -114t-121.5 -119zM158 -10l106 554l95 41l-86 -367q83 175 165 266t157 91q37 0 60 -24.5t23 -65.5q0 -23 -11 -65l-10 -42l-30 -122l-10 -39
q-15 -60 -15 -92t11 -51.5t29 -19.5q31 0 99 74l16 -14l-10 -11q-57 -67 -84 -90.5t-50 -23.5q-31 0 -52.5 31.5t-21.5 78.5q0 32 12 95l39 212q8 50 8 70q0 21 -11 32t-30 11q-69 0 -170 -148q-49 -71 -81 -140.5t-72 -192.5l-9 -27z" />
    <glyph glyph-name="Eng" unicode="&#x14a;" horiz-adv-x="1051" 
d="M902 585l-6 -26l-152 -645q-19 -83 -35 -124.5t-43 -77.5q-37 -50 -91.5 -77.5t-115.5 -27.5q-40 0 -67 12l48 70q41 -31 86 -31q37 0 70 23.5t52 65.5q14 30 29 113l138 684l100 496q14 62 14 92q0 34 -16.5 54t-45.5 20q-89 0 -211 -198q-48 -77 -102.5 -184
t-97.5 -202.5t-87 -210.5t-78 -223l-53 -169l-6 -19h-85l6 20q66 228 149 635q32 153 56 288q33 181 33 252q0 37 -8 66.5t-22.5 44.5t-34.5 15q-81 0 -136 -200q-43 -153 -57 -277l-78 54q20 125 62 230.5t95 164t107 58.5q64 0 100.5 -69t36.5 -191q0 -100 -19 -220
q-13 -82 -28 -163l-51 -246l9 22q87 212 166.5 367t148.5 251q124 169 230 169q49 0 80.5 -34.5t31.5 -89.5q0 -47 -17 -124z" />
    <glyph glyph-name="eng" unicode="&#x14b;" horiz-adv-x="664" 
d="M437 193l-63 -279q-19 -83 -35 -124.5t-43 -77.5q-37 -50 -91.5 -77.5t-115.5 -27.5q-40 0 -67 12l48 70q41 -31 86 -31q37 0 70 23.5t52 65.5q14 30 29 113l53 252l4 5q3 29 12 77l39 212q8 50 8 70q0 21 -11 32t-30 11q-69 0 -170 -148q-49 -71 -81 -140.5t-72 -192.5
l-9 -27l-67 -21l106 554l95 41l-86 -367q83 175 165 266t157 91q37 0 60 -24.5t23 -65.5q0 -23 -11 -65l-10 -42l-30 -122l-10 -39q-4 -14 -7 -26z" />
    <glyph glyph-name="Omacron" unicode="&#x14c;" horiz-adv-x="1224" 
d="M1183 858q0 -138 -46 -278.5t-129 -263.5q-71 -105 -160.5 -180.5t-189.5 -113.5t-206 -38q-93 0 -172.5 33t-136 94.5t-86.5 149t-30 190.5q0 167 61 328t164 286.5t234.5 198.5t268.5 73q127 0 224 -60t150.5 -169t53.5 -250zM1068 900q0 93 -23 167.5t-66 126t-104 79
t-141 27.5q-83 0 -164.5 -36.5t-153 -107t-128.5 -171.5q-64 -112 -105 -268.5t-41 -289.5q0 -125 40.5 -217t116.5 -142t175 -50q93 0 184.5 47t168.5 133t130 200q47 101 79 242.5t32 259.5zM932 1484l-9 -45h-244l9 45h244z" />
    <glyph glyph-name="omacron" unicode="&#x14d;" horiz-adv-x="600" 
d="M-27 192q0 90 48.5 179.5t125.5 145.5t157 56q84 0 135.5 -55.5t51.5 -143.5q0 -96 -47.5 -186t-125 -147.5t-156.5 -57.5q-85 0 -137 57.5t-52 151.5zM401 412q0 60 -29.5 99t-75.5 39q-42 0 -80.5 -27t-70.5 -79q-36 -60 -59.5 -140t-23.5 -142q0 -74 29 -114t83 -40
q87 0 153 121q34 62 54 139t20 144zM459 720l-9 -45h-244l9 45h244z" />
    <glyph glyph-name="Obreve" unicode="&#x14e;" horiz-adv-x="1224" 
d="M1183 858q0 -138 -46 -278.5t-129 -263.5q-71 -105 -160.5 -180.5t-189.5 -113.5t-206 -38q-93 0 -172.5 33t-136 94.5t-86.5 149t-30 190.5q0 167 61 328t164 286.5t234.5 198.5t268.5 73q127 0 224 -60t150.5 -169t53.5 -250zM1068 900q0 93 -23 167.5t-66 126t-104 79
t-141 27.5q-83 0 -164.5 -36.5t-153 -107t-128.5 -171.5q-64 -112 -105 -268.5t-41 -289.5q0 -125 40.5 -217t116.5 -142t175 -50q93 0 184.5 47t168.5 133t130 200q47 101 79 242.5t32 259.5zM640 1564q34 -39 68 -56.5t67.5 -16t67 20.5t66.5 52v-17q-31 -49 -64.5 -75
t-68 -27t-68.5 24t-66 77z" />
    <glyph glyph-name="obreve" unicode="&#x14f;" horiz-adv-x="600" 
d="M-27 192q0 90 48.5 179.5t125.5 145.5t157 56q84 0 135.5 -55.5t51.5 -143.5q0 -96 -47.5 -186t-125 -147.5t-156.5 -57.5q-85 0 -137 57.5t-52 151.5zM401 412q0 60 -29.5 99t-75.5 39q-42 0 -80.5 -27t-70.5 -79q-36 -60 -59.5 -140t-23.5 -142q0 -74 29 -114t83 -40
q87 0 153 121q34 62 54 139t20 144zM197 797q34 -39 68 -56.5t67.5 -16t67 20.5t66.5 52v-17q-31 -49 -64.5 -75t-68 -27t-68.5 24t-66 77z" />
    <glyph glyph-name="Ohungarumlaut" unicode="&#x150;" horiz-adv-x="1224" 
d="M1183 858q0 -138 -46 -278.5t-129 -263.5q-71 -105 -160.5 -180.5t-189.5 -113.5t-206 -38q-93 0 -172.5 33t-136 94.5t-86.5 149t-30 190.5q0 167 61 328t164 286.5t234.5 198.5t268.5 73q127 0 224 -60t150.5 -169t53.5 -250zM1068 900q0 93 -23 167.5t-66 126t-104 79
t-141 27.5q-83 0 -164.5 -36.5t-153 -107t-128.5 -171.5q-64 -112 -105 -268.5t-41 -289.5q0 -125 40.5 -217t116.5 -142t175 -50q93 0 184.5 47t168.5 133t130 200q47 101 79 242.5t32 259.5zM896 1616l7 -177l-20 1l-49 177zM768 1618l8 -177l-20 1l-49 177z" />
    <glyph glyph-name="ohungarumlaut" unicode="&#x151;" horiz-adv-x="600" 
d="M-27 192q0 90 48.5 179.5t125.5 145.5t157 56q84 0 135.5 -55.5t51.5 -143.5q0 -96 -47.5 -186t-125 -147.5t-156.5 -57.5q-85 0 -137 57.5t-52 151.5zM401 412q0 60 -29.5 99t-75.5 39q-42 0 -80.5 -27t-70.5 -79q-36 -60 -59.5 -140t-23.5 -142q0 -74 29 -114t83 -40
q87 0 153 121q34 62 54 139t20 144zM423 854l7 -177l-20 1l-49 177zM295 856l8 -177l-20 1l-49 177z" />
    <glyph glyph-name="OE" unicode="&#x152;" horiz-adv-x="1937" 
d="M1183 858q0 -126 -39 -255q101 80 244 151q-108 18 -108 112q0 134 232 301q72 52 146.5 91.5t140 60.5t115.5 21q52 0 81.5 -28.5t29.5 -77.5q0 -45 -22.5 -103t-65.5 -121t-96 -114l-53 58q156 172 156 274q0 69 -82 69q-52 0 -128 -31t-151 -83q-100 -68 -158.5 -145
t-58.5 -137q0 -29 18.5 -55t45.5 -37q28 -10 97 -13h17l-13 -64q-151 -65 -303 -177q-106 -78 -168 -153q-24 -44 -52 -86q-6 -9 -13 -18q-19 -47 -19 -93q0 -82 63.5 -133.5t162.5 -51.5q69 0 152.5 21t185.5 64t233 113l-24 -119q-127 -60 -249.5 -92t-222.5 -32
q-110 0 -191 31.5t-125 91.5q-34 47 -41 106q-35 -37 -73 -69q-89 -75 -189 -113t-206 -38q-93 0 -172.5 33t-136 94.5t-86.5 149t-30 190.5q0 167 61 328t164 286.5t234.5 198.5t268.5 73q127 0 224 -60t150.5 -169t53.5 -250zM1068 900q0 93 -23 167.5t-66 126t-104 79
t-141 27.5q-83 0 -164.5 -36.5t-153 -107t-128.5 -171.5q-64 -112 -105 -268.5t-41 -289.5q0 -125 40.5 -217t116.5 -142t175 -50q93 0 184.5 47t168.5 133t130 200q47 101 79 242.5t32 259.5z" />
    <glyph glyph-name="oe" unicode="&#x153;" horiz-adv-x="891" 
d="M795 140q-103 -156 -245 -156q-68 0 -111 34.5t-57 102.5q-30 -60 -92 -99.5t-124 -39.5q-57 0 -101 26t-68 74t-24 105q0 95 46 185t122.5 145.5t156.5 55.5q137 0 166 -138q37 66 93 104.5t116 38.5q43 0 69 -25t26 -65q0 -51 -42 -107.5t-114.5 -103.5t-155.5 -70
q0 -65 17 -102q15 -33 46 -53t68 -20q100 0 191 123zM397 413q0 62 -28.5 99t-77.5 37q-40 0 -79 -27t-68 -74q-37 -60 -60 -141.5t-23 -146.5q0 -72 28.5 -112t80.5 -40q54 0 107.5 59.5t86.5 154.5t33 191zM456 231q52 23 87.5 44.5t75.5 60.5q91 89 91 168q0 19 -13 32
t-32 13q-64 0 -126.5 -95.5t-82.5 -222.5z" />
    <glyph glyph-name="Racute" unicode="&#x154;" horiz-adv-x="952" 
d="M68 -1l119 576q67 326 67 577q0 18 -0.5 29.5t-0.5 25.5l-1 24l110 50v-17q0 -69 -5 -148q-9 -136 -27 -284l-4 -28q45 125 138 259q59 85 125 150.5t128.5 98t118.5 32.5q79 0 125 -57t46 -154q0 -134 -79.5 -278t-212 -253t-281.5 -152q48 -83 103.5 -155t118.5 -137
t130 -117l-73 -71q-80 62 -162.5 152.5t-144 183t-87.5 167.5q8 -1 18 -1q94 0 199.5 55t187.5 148q80 91 129.5 215t49.5 231q0 74 -31 116t-85 42q-52 0 -110.5 -36.5t-116 -101t-115.5 -160.5q-64 -109 -105 -222t-75 -272l-103 -488h-94zM834 1600l-209 -154l-20 7
l164 165z" />
    <glyph glyph-name="racute" unicode="&#x155;" horiz-adv-x="443" 
d="M-27 284q86 104 115 194q-81 45 -81 129q0 40 19 65t48 25q30 0 49 -27.5t19 -71.5q0 -31 -11 -69q27 -7 49 -7q62 0 102 36h48l-7 -14q-72 -132 -118.5 -259.5t-46.5 -190.5q0 -23 12 -38.5t29 -15.5q41 0 132 87l16 -18q-28 -31 -87 -77q-53 -42 -99 -42
q-39 0 -61.5 26t-22.5 71q0 75 58 190q21 43 54 98t83 131l10 14q-33 -30 -63.5 -42.5t-69.5 -12.5q-18 0 -38 5q-32 -98 -120 -202zM110 538q4 25 4 42q0 35 -11.5 55t-29.5 20q-10 0 -17.5 -9.5t-7.5 -23.5q0 -47 62 -84zM374 955l-209 -154l-20 7l164 165z" />
    <glyph glyph-name="Rcedilla" unicode="&#x156;" horiz-adv-x="952" 
d="M68 -1l119 576q67 326 67 577q0 18 -0.5 29.5t-0.5 25.5l-1 24l110 50v-17q0 -69 -5 -148q-9 -136 -27 -284l-4 -28q45 125 138 259q59 85 125 150.5t128.5 98t118.5 32.5q79 0 125 -57t46 -154q0 -134 -79.5 -278t-212 -253t-281.5 -152q48 -83 103.5 -155t118.5 -137
t130 -117l-73 -71q-80 62 -162.5 152.5t-144 183t-87.5 167.5q8 -1 18 -1q94 0 199.5 55t187.5 148q80 91 129.5 215t49.5 231q0 74 -31 116t-85 42q-52 0 -110.5 -36.5t-116 -101t-115.5 -160.5q-64 -109 -105 -222t-75 -272l-103 -488h-94zM264 -388l-12 18q50 32 82.5 65
t42.5 63q-22 -18 -41 -18q-22 0 -34 14t-12 36q0 33 21 56.5t51 23.5q25 0 42 -18.5t17 -46.5q0 -48 -44.5 -102.5t-112.5 -90.5z" />
    <glyph glyph-name="rcedilla" unicode="&#x157;" horiz-adv-x="443" 
d="M-27 284q86 104 115 194q-81 45 -81 129q0 40 19 65t48 25q30 0 49 -27.5t19 -71.5q0 -31 -11 -69q27 -7 49 -7q62 0 102 36h48l-7 -14q-72 -132 -118.5 -259.5t-46.5 -190.5q0 -23 12 -38.5t29 -15.5q41 0 132 87l16 -18q-28 -31 -87 -77q-53 -42 -99 -42
q-39 0 -61.5 26t-22.5 71q0 75 58 190q21 43 54 98t83 131l10 14q-33 -30 -63.5 -42.5t-69.5 -12.5q-18 0 -38 5q-32 -98 -120 -202zM110 538q4 25 4 42q0 35 -11.5 55t-29.5 20q-10 0 -17.5 -9.5t-7.5 -23.5q0 -47 62 -84zM51 -368l-12 18q50 32 82.5 65t42.5 63
q-22 -18 -41 -18q-22 0 -34 14t-12 36q0 33 21 56.5t51 23.5q25 0 42 -18.5t17 -46.5q0 -48 -44.5 -102.5t-112.5 -90.5z" />
    <glyph glyph-name="Rcaron" unicode="&#x158;" horiz-adv-x="952" 
d="M68 -1l119 576q67 326 67 577q0 18 -0.5 29.5t-0.5 25.5l-1 24l110 50v-17q0 -69 -5 -148q-9 -136 -27 -284l-4 -28q45 125 138 259q59 85 125 150.5t128.5 98t118.5 32.5q79 0 125 -57t46 -154q0 -134 -79.5 -278t-212 -253t-281.5 -152q48 -83 103.5 -155t118.5 -137
t130 -117l-73 -71q-80 62 -162.5 152.5t-144 183t-87.5 167.5q8 -1 18 -1q94 0 199.5 55t187.5 148q80 91 129.5 215t49.5 231q0 74 -31 116t-85 42q-52 0 -110.5 -36.5t-116 -101t-115.5 -160.5q-64 -109 -105 -222t-75 -272l-103 -488h-94zM751 1556l11 -15l-130 -100
l-139 100l7 15l130 -48z" />
    <glyph glyph-name="rcaron" unicode="&#x159;" horiz-adv-x="443" 
d="M-27 284q86 104 115 194q-81 45 -81 129q0 40 19 65t48 25q30 0 49 -27.5t19 -71.5q0 -31 -11 -69q27 -7 49 -7q62 0 102 36h48l-7 -14q-72 -132 -118.5 -259.5t-46.5 -190.5q0 -23 12 -38.5t29 -15.5q41 0 132 87l16 -18q-28 -31 -87 -77q-53 -42 -99 -42
q-39 0 -61.5 26t-22.5 71q0 75 58 190q21 43 54 98t83 131l10 14q-33 -30 -63.5 -42.5t-69.5 -12.5q-18 0 -38 5q-32 -98 -120 -202zM110 538q4 25 4 42q0 35 -11.5 55t-29.5 20q-10 0 -17.5 -9.5t-7.5 -23.5q0 -47 62 -84zM383 916l11 -15l-130 -100l-139 100l7 15l130 -48
z" />
    <glyph glyph-name="Sacute" unicode="&#x15a;" horiz-adv-x="971" 
d="M-27 26l55 100q169 -93 328 -93q106 0 193.5 38.5t138 105t50.5 144.5q0 77 -46 137t-166 139q-117 78 -142.5 96t-66.5 51q-73 64 -73 151q0 157 204 302q57 41 130.5 74t144.5 50t133 17q91 0 143 -34t52 -95q0 -75 -63 -160.5t-172 -157.5l-80 45q74 50 125 100
t79 97.5t28 86.5q0 27 -15 46t-43 29t-70 10q-78 0 -167.5 -30.5t-168.5 -80.5q-176 -111 -176 -247q0 -38 21 -71.5t73.5 -75.5t153.5 -108q75 -49 113.5 -80t63.5 -65q56 -71 56 -159q0 -68 -35.5 -138t-100.5 -131q-152 -143 -422 -143q-176 0 -278 50zM926 1594
l-209 -154l-20 7l164 165z" />
    <glyph glyph-name="sacute" unicode="&#x15b;" horiz-adv-x="436" 
d="M-82 64l56 66q44 -104 140 -104q50 0 85.5 32.5t35.5 75.5q0 31 -17 53t-81 74q-59 48 -79.5 75.5t-20.5 63.5q0 47 27.5 87t73.5 64.5t97 24.5q45 0 75.5 -22.5t30.5 -57.5q0 -46 -39 -63q-6 47 -35.5 73.5t-75.5 26.5q-41 0 -71.5 -26.5t-30.5 -60.5q0 -42 52 -83
l58 -47q85 -67 85 -137q0 -52 -29.5 -97.5t-80 -72.5t-106.5 -27q-89 0 -150 82zM343 834l-209 -154l-20 7l164 165z" />
    <glyph glyph-name="Scircumflex" unicode="&#x15c;" horiz-adv-x="971" 
d="M-27 26l55 100q169 -93 328 -93q106 0 193.5 38.5t138 105t50.5 144.5q0 77 -46 137t-166 139q-117 78 -142.5 96t-66.5 51q-73 64 -73 151q0 157 204 302q57 41 130.5 74t144.5 50t133 17q91 0 143 -34t52 -95q0 -75 -63 -160.5t-172 -157.5l-80 45q74 50 125 100
t79 97.5t28 86.5q0 27 -15 46t-43 29t-70 10q-78 0 -167.5 -30.5t-168.5 -80.5q-176 -111 -176 -247q0 -38 21 -71.5t73.5 -75.5t153.5 -108q75 -49 113.5 -80t63.5 -65q56 -71 56 -159q0 -68 -35.5 -138t-100.5 -131q-152 -143 -422 -143q-176 0 -278 50zM818 1487
l-135 -47l-7 15l154 98l115 -98l-11 -15z" />
    <glyph glyph-name="scircumflex" unicode="&#x15d;" horiz-adv-x="436" 
d="M-82 64l56 66q44 -104 140 -104q50 0 85.5 32.5t35.5 75.5q0 31 -17 53t-81 74q-59 48 -79.5 75.5t-20.5 63.5q0 47 27.5 87t73.5 64.5t97 24.5q45 0 75.5 -22.5t30.5 -57.5q0 -46 -39 -63q-6 47 -35.5 73.5t-75.5 26.5q-41 0 -71.5 -26.5t-30.5 -60.5q0 -42 52 -83
l58 -47q85 -67 85 -137q0 -52 -29.5 -97.5t-80 -72.5t-106.5 -27q-89 0 -150 82zM236 727l-135 -47l-7 15l154 98l115 -98l-11 -15z" />
    <glyph glyph-name="Scedilla" unicode="&#x15e;" horiz-adv-x="971" 
d="M-27 26l55 100q169 -93 328 -93q106 0 193.5 38.5t138 105t50.5 144.5q0 77 -46 137t-166 139q-117 78 -142.5 96t-66.5 51q-73 64 -73 151q0 157 204 302q57 41 130.5 74t144.5 50t133 17q91 0 143 -34t52 -95q0 -75 -63 -160.5t-172 -157.5l-80 45q74 50 125 100
t79 97.5t28 86.5q0 27 -15 46t-43 29t-70 10q-78 0 -167.5 -30.5t-168.5 -80.5q-176 -111 -176 -247q0 -38 21 -71.5t73.5 -75.5t153.5 -108q75 -49 113.5 -80t63.5 -65q56 -71 56 -159q0 -68 -35.5 -138t-100.5 -131q-152 -143 -422 -143q-176 0 -278 50zM230 -6l25 -1
l-36 -66q15 4 24 4q26 0 41.5 -17.5t15.5 -43.5q0 -40 -29.5 -67t-75.5 -27q-42 0 -71 22l11 18q17 -17 44 -17q28 0 51 22t23 49q0 32 -28 32q-12 0 -26 -8l-19 9z" />
    <glyph glyph-name="scedilla" unicode="&#x15f;" horiz-adv-x="436" 
d="M-82 64l56 66q44 -104 140 -104q50 0 85.5 32.5t35.5 75.5q0 31 -17 53t-81 74q-59 48 -79.5 75.5t-20.5 63.5q0 47 27.5 87t73.5 64.5t97 24.5q45 0 75.5 -22.5t30.5 -57.5q0 -46 -39 -63q-6 47 -35.5 73.5t-75.5 26.5q-41 0 -71.5 -26.5t-30.5 -60.5q0 -42 52 -83
l58 -47q85 -67 85 -137q0 -52 -29.5 -97.5t-80 -72.5t-106.5 -27q-89 0 -150 82zM47 0l25 -1l-36 -66q15 4 24 4q26 0 41.5 -17.5t15.5 -43.5q0 -40 -29.5 -67t-75.5 -27q-42 0 -71 22l11 18q17 -17 44 -17q28 0 51 22t23 49q0 32 -28 32q-12 0 -26 -8l-19 9z" />
    <glyph glyph-name="Scaron" unicode="&#x160;" horiz-adv-x="971" 
d="M-27 26l55 100q169 -93 328 -93q106 0 193.5 38.5t138 105t50.5 144.5q0 77 -46 137t-166 139q-117 78 -142.5 96t-66.5 51q-73 64 -73 151q0 157 204 302q57 41 130.5 74t144.5 50t133 17q91 0 143 -34t52 -95q0 -75 -63 -160.5t-172 -157.5l-80 45q74 50 125 100
t79 97.5t28 86.5q0 27 -15 46t-43 29t-70 10q-78 0 -167.5 -30.5t-168.5 -80.5q-176 -111 -176 -247q0 -38 21 -71.5t73.5 -75.5t153.5 -108q75 -49 113.5 -80t63.5 -65q56 -71 56 -159q0 -68 -35.5 -138t-100.5 -131q-152 -143 -422 -143q-176 0 -278 50zM913 1556l11 -15
l-130 -100l-139 100l7 15l130 -48z" />
    <glyph glyph-name="scaron" unicode="&#x161;" horiz-adv-x="436" 
d="M-82 64l56 66q44 -104 140 -104q50 0 85.5 32.5t35.5 75.5q0 31 -17 53t-81 74q-59 48 -79.5 75.5t-20.5 63.5q0 47 27.5 87t73.5 64.5t97 24.5q45 0 75.5 -22.5t30.5 -57.5q0 -46 -39 -63q-6 47 -35.5 73.5t-75.5 26.5q-41 0 -71.5 -26.5t-30.5 -60.5q0 -42 52 -83
l58 -47q85 -67 85 -137q0 -52 -29.5 -97.5t-80 -72.5t-106.5 -27q-89 0 -150 82zM352 795l11 -15l-130 -100l-139 100l7 15l130 -48z" />
    <glyph glyph-name="Tcedilla" unicode="&#x162;" horiz-adv-x="1075" 
d="M-68 -39l37 90q94 -40 206 -40q131 0 232.5 70.5t181.5 215.5q26 48 51 109.5t62 172.5q31 92 60.5 198.5t50 194.5t39.5 196l107 48l-7 1l-20 3q-227 28 -436 28q-107 0 -180 -14t-124 -45q-70 -44 -70 -113q0 -141 352 -160l-68 -71q-96 6 -167 35t-109.5 77t-38.5 109
q0 123 155 198q131 63 385 63q69 0 176.5 -8t222.5 -20.5t191 -26.5l18 -3l-45 -90l-18 3q-88 16 -205 33l-7 1l-3 -14l-3 -14q-79 -361 -163 -594.5t-189 -373.5t-244.5 -203t-329.5 -63q-50 0 -100 7zM103 -16l25 -1l-36 -66q15 4 24 4q26 0 41.5 -17.5t15.5 -43.5
q0 -40 -29.5 -67t-75.5 -27q-42 0 -71 22l11 18q17 -17 44 -17q28 0 51 22t23 49q0 32 -28 32q-12 0 -26 -8l-19 9z" />
    <glyph glyph-name="tcedilla" unicode="&#x163;" horiz-adv-x="367" 
d="M164 534l-76 -333q-12 -55 -12 -78q0 -36 17 -58t45 -22q27 0 49.5 15.5t68.5 64.5l12 12l15 -15q-59 -72 -98.5 -101.5t-77.5 -29.5q-48 0 -76.5 31.5t-28.5 82.5q0 38 15 110l65 321h-96l7 34h96l56 270l96 38l-70 -308h162l-7 -34h-162zM77 7l25 -1l-36 -66q15 4 24 4
q26 0 41.5 -17.5t15.5 -43.5q0 -40 -29.5 -67t-75.5 -27q-42 0 -71 22l11 18q17 -17 44 -17q28 0 51 22t23 49q0 32 -28 32q-12 0 -26 -8l-19 9z" />
    <glyph glyph-name="Tcaron" unicode="&#x164;" horiz-adv-x="1075" 
d="M-68 -39l37 90q94 -40 206 -40q131 0 232.5 70.5t181.5 215.5q26 48 51 109.5t62 172.5q31 92 60.5 198.5t50 194.5t39.5 196l107 48l-7 1l-20 3q-227 28 -436 28q-107 0 -180 -14t-124 -45q-70 -44 -70 -113q0 -141 352 -160l-68 -71q-96 6 -167 35t-109.5 77t-38.5 109
q0 123 155 198q131 63 385 63q69 0 176.5 -8t222.5 -20.5t191 -26.5l18 -3l-45 -90l-18 3q-88 16 -205 33l-7 1l-3 -14l-3 -14q-79 -361 -163 -594.5t-189 -373.5t-244.5 -203t-329.5 -63q-50 0 -100 7zM1035 1556l11 -15l-130 -100l-139 100l7 15l130 -48z" />
    <glyph glyph-name="tcaron" unicode="&#x165;" horiz-adv-x="531" 
d="M164 534l-76 -333q-12 -55 -12 -78q0 -36 17 -58t45 -22q27 0 49.5 15.5t68.5 64.5l12 12l15 -15q-59 -72 -98.5 -101.5t-77.5 -29.5q-48 0 -76.5 31.5t-28.5 82.5q0 38 15 110l65 321h-96l7 34h96l56 270l96 38l-70 -308h162l-7 -34h-162zM299 734l-13 22
q131 103 139 177q-20 -21 -46 -21q-21 0 -35 14t-14 35q0 32 22 55t50 23q29 0 46.5 -19t17.5 -53q0 -50 -45.5 -114t-121.5 -119z" />
    <glyph glyph-name="Tbar" unicode="&#x166;" horiz-adv-x="1117" 
d="M1119 575h-319l-2 -5q-118 -283 -215.5 -391t-221 -162.5t-268.5 -54.5q-99 0 -175 25l32 77q117 -59 227 -59q172 0 308 132q57 56 95.5 120.5t138.5 312.5l2 5h-301l7 34h306q-12 -14 15 77t66 247q37 146 53 236l104 47q-8 2 -13 2.5t-12 1.5q-252 28 -432 28
q-114 0 -187.5 -14.5t-120.5 -44.5q-70 -45 -70 -113q0 -141 352 -160l-67 -71q-143 9 -229.5 68.5t-86.5 152.5q0 123 155 198q131 63 386 63q68 0 175.5 -8t222.5 -20.5t191 -26.5l18 -3l-45 -90l-18 3q-89 16 -208 33l-7 1l-1 -6q-5 -25 -27.5 -119.5t-39.5 -156.5
t-36 -128.5t-41 -132.5q-12 -42 -16 -64h312z" />
    <glyph glyph-name="tbar" unicode="&#x167;" horiz-adv-x="471" 
d="M341 327l-9 -45h-126l-18 -81q-12 -55 -12 -78q0 -36 17 -58t45 -22q27 0 49.5 15.5t68.5 64.5l12 12l15 -15q-59 -72 -98.5 -101.5t-77.5 -29.5q-48 0 -76.5 31.5t-28.5 82.5q0 38 15 110l14 69h-123l9 45h123l42 207h-96l7 34h96l56 270l96 38l-70 -308h162l-7 -34
h-162l-47 -207h124z" />
    <glyph glyph-name="Utilde" unicode="&#x168;" horiz-adv-x="1043" 
d="M789 0h-96l4 24q18 126 42 251.5t55 247.5l92 365q-6 -12 -9.5 -20.5t-4.5 -10.5l-37 -93q-37 -90 -98 -218.5t-107 -213.5q-193 -352 -349 -352q-51 0 -81.5 34.5t-30.5 91.5q0 35 22 131l160 703l26 115q20 94 20 147q0 103 -60 103q-70 0 -116 -133q-54 -153 -82 -338
l-78 54q33 200 107 322t162 122q61 0 95 -60.5t34 -168.5q0 -109 -49 -322l-123 -537l-10 -46q-12 -47 -12 -81q0 -33 17.5 -53.5t43.5 -20.5q46 0 103 54t124 162.5t156 291.5q111 230 200 495q51 149 71 235l87 36l-197 -871q-51 -224 -81 -446zM813 1501
q-69 -67 -113 -67q-20 0 -40 16l-23 18q-22 18 -37 18q-27 0 -72 -44l-14 13q28 31 58.5 49.5t52.5 18.5q21 0 64 -32q26 -18 39 -18q30 0 71 43z" />
    <glyph glyph-name="utilde" unicode="&#x169;" horiz-adv-x="617" 
d="M176 585l-97 -387q-13 -52 -13 -88q0 -35 22 -56t57 -21q85 0 177 139l4 6q2 10 3 16l63 350l98 41l-88 -329q-22 -81 -22 -130q0 -32 11 -52t29 -20q31 0 99 74l16 -14l-10 -11q-57 -67 -84 -90.5t-50 -23.5q-31 0 -52.5 31.5t-21.5 78.5q0 15 1 28q-104 -138 -206 -138
q-51 0 -81.5 29.5t-30.5 78.5q0 38 11 93l68 354zM471 756q-69 -67 -113 -67q-20 0 -40 16l-23 18q-22 18 -37 18q-27 0 -72 -44l-14 13q28 31 58.5 49.5t52.5 18.5q21 0 64 -32q26 -18 39 -18q30 0 71 43z" />
    <glyph glyph-name="Umacron" unicode="&#x16a;" horiz-adv-x="1043" 
d="M789 0h-96l4 24q18 126 42 251.5t55 247.5l92 365q-6 -12 -9.5 -20.5t-4.5 -10.5l-37 -93q-37 -90 -98 -218.5t-107 -213.5q-193 -352 -349 -352q-51 0 -81.5 34.5t-30.5 91.5q0 35 22 131l160 703l26 115q20 94 20 147q0 103 -60 103q-70 0 -116 -133q-54 -153 -82 -338
l-78 54q33 200 107 322t162 122q61 0 95 -60.5t34 -168.5q0 -109 -49 -322l-123 -537l-10 -46q-12 -47 -12 -81q0 -33 17.5 -53.5t43.5 -20.5q46 0 103 54t124 162.5t156 291.5q111 230 200 495q51 149 71 235l87 36l-197 -871q-51 -224 -81 -446zM857 1479l-9 -45h-244
l9 45h244z" />
    <glyph glyph-name="umacron" unicode="&#x16b;" horiz-adv-x="617" 
d="M176 585l-97 -387q-13 -52 -13 -88q0 -35 22 -56t57 -21q85 0 177 139l4 6q2 10 3 16l63 350l98 41l-88 -329q-22 -81 -22 -130q0 -32 11 -52t29 -20q31 0 99 74l16 -14l-10 -11q-57 -67 -84 -90.5t-50 -23.5q-31 0 -52.5 31.5t-21.5 78.5q0 15 1 28q-104 -138 -206 -138
q-51 0 -81.5 29.5t-30.5 78.5q0 38 11 93l68 354zM424 732l-9 -45h-244l9 45h244z" />
    <glyph glyph-name="Ubreve" unicode="&#x16c;" horiz-adv-x="1043" 
d="M789 0h-96l4 24q18 126 42 251.5t55 247.5l92 365q-6 -12 -9.5 -20.5t-4.5 -10.5l-37 -93q-37 -90 -98 -218.5t-107 -213.5q-193 -352 -349 -352q-51 0 -81.5 34.5t-30.5 91.5q0 35 22 131l160 703l26 115q20 94 20 147q0 103 -60 103q-70 0 -116 -133q-54 -153 -82 -338
l-78 54q33 200 107 322t162 122q61 0 95 -60.5t34 -168.5q0 -109 -49 -322l-123 -537l-10 -46q-12 -47 -12 -81q0 -33 17.5 -53.5t43.5 -20.5q46 0 103 54t124 162.5t156 291.5q111 230 200 495q51 149 71 235l87 36l-197 -871q-51 -224 -81 -446zM598 1564q34 -39 68 -56.5
t67.5 -16t67 20.5t66.5 52v-17q-31 -49 -64.5 -75t-68 -27t-68.5 24t-66 77z" />
    <glyph glyph-name="ubreve" unicode="&#x16d;" horiz-adv-x="617" 
d="M176 585l-97 -387q-13 -52 -13 -88q0 -35 22 -56t57 -21q85 0 177 139l4 6q2 10 3 16l63 350l98 41l-88 -329q-22 -81 -22 -130q0 -32 11 -52t29 -20q31 0 99 74l16 -14l-10 -11q-57 -67 -84 -90.5t-50 -23.5q-31 0 -52.5 31.5t-21.5 78.5q0 15 1 28q-104 -138 -206 -138
q-51 0 -81.5 29.5t-30.5 78.5q0 38 11 93l68 354zM162 809q34 -39 68 -56.5t67.5 -16t67 20.5t66.5 52v-17q-31 -49 -64.5 -75t-68 -27t-68.5 24t-66 77z" />
    <glyph glyph-name="Uring" unicode="&#x16e;" horiz-adv-x="1043" 
d="M789 0h-96l4 24q18 126 42 251.5t55 247.5l92 365q-6 -12 -9.5 -20.5t-4.5 -10.5l-37 -93q-37 -90 -98 -218.5t-107 -213.5q-193 -352 -349 -352q-51 0 -81.5 34.5t-30.5 91.5q0 35 22 131l160 703l26 115q20 94 20 147q0 103 -60 103q-70 0 -116 -133q-54 -153 -82 -338
l-78 54q33 200 107 322t162 122q61 0 95 -60.5t34 -168.5q0 -109 -49 -322l-123 -537l-10 -46q-12 -47 -12 -81q0 -33 17.5 -53.5t43.5 -20.5q46 0 103 54t124 162.5t156 291.5q111 230 200 495q51 149 71 235l87 36l-197 -871q-51 -224 -81 -446zM746 1593q32 0 56 -24
t24 -56q0 -33 -24 -56t-56 -23q-33 0 -56 23t-23 56q0 32 23 56t56 24zM746 1562q-21 0 -35 -15t-14 -34t15 -34t34 -15t34 14t15 35t-14 35t-35 14z" />
    <glyph glyph-name="uring" unicode="&#x16f;" horiz-adv-x="617" 
d="M176 585l-97 -387q-13 -52 -13 -88q0 -35 22 -56t57 -21q85 0 177 139l4 6q2 10 3 16l63 350l98 41l-88 -329q-22 -81 -22 -130q0 -32 11 -52t29 -20q31 0 99 74l16 -14l-10 -11q-57 -67 -84 -90.5t-50 -23.5q-31 0 -52.5 31.5t-21.5 78.5q0 15 1 28q-104 -138 -206 -138
q-51 0 -81.5 29.5t-30.5 78.5q0 38 11 93l68 354zM296 848q32 0 56 -24t24 -56q0 -33 -24 -56t-56 -23q-33 0 -56 23t-23 56q0 32 23 56t56 24zM296 817q-21 0 -35 -15t-14 -34t15 -34t34 -15t34 14t15 35t-14 35t-35 14z" />
    <glyph glyph-name="Uhungarumlaut" unicode="&#x170;" horiz-adv-x="1043" 
d="M789 0h-96l4 24q18 126 42 251.5t55 247.5l92 365q-6 -12 -9.5 -20.5t-4.5 -10.5l-37 -93q-37 -90 -98 -218.5t-107 -213.5q-193 -352 -349 -352q-51 0 -81.5 34.5t-30.5 91.5q0 35 22 131l160 703l26 115q20 94 20 147q0 103 -60 103q-70 0 -116 -133q-54 -153 -82 -338
l-78 54q33 200 107 322t162 122q61 0 95 -60.5t34 -168.5q0 -109 -49 -322l-123 -537l-10 -46q-12 -47 -12 -81q0 -33 17.5 -53.5t43.5 -20.5q46 0 103 54t124 162.5t156 291.5q111 230 200 495q51 149 71 235l87 36l-197 -871q-51 -224 -81 -446zM819 1611l7 -177l-20 1
l-49 177zM691 1613l8 -177l-20 1l-49 177z" />
    <glyph glyph-name="uhungarumlaut" unicode="&#x171;" horiz-adv-x="617" 
d="M176 585l-97 -387q-13 -52 -13 -88q0 -35 22 -56t57 -21q85 0 177 139l4 6q2 10 3 16l63 350l98 41l-88 -329q-22 -81 -22 -130q0 -32 11 -52t29 -20q31 0 99 74l16 -14l-10 -11q-57 -67 -84 -90.5t-50 -23.5q-31 0 -52.5 31.5t-21.5 78.5q0 15 1 28q-104 -138 -206 -138
q-51 0 -81.5 29.5t-30.5 78.5q0 38 11 93l68 354zM388 866l7 -177l-20 1l-49 177zM260 868l8 -177l-20 1l-49 177z" />
    <glyph glyph-name="Uogonek" unicode="&#x172;" horiz-adv-x="1043" 
d="M789 0h-25q-49 -4 -66 -53q-7 -27 10 -49t45 -22q27 0 48 17l7 -18q-35 -22 -77 -22q-46 0 -68.5 27t-11.5 67q7 26 39 53l3 3l4 21q18 126 42 251.5t55 247.5l92 365q-6 -12 -9.5 -20.5t-4.5 -10.5l-37 -93q-37 -90 -98 -218.5t-107 -213.5q-193 -352 -349 -352
q-51 0 -81.5 34.5t-30.5 91.5q0 35 22 131l160 703l26 115q20 94 20 147q0 103 -60 103q-70 0 -116 -133q-54 -153 -82 -338l-78 54q33 200 107 322t162 122q61 0 95 -60.5t34 -168.5q0 -109 -49 -322l-123 -537l-10 -46q-12 -47 -12 -81q0 -33 17.5 -53.5t43.5 -20.5
q46 0 103 54t124 162.5t156 291.5q111 230 200 495q51 149 71 235l87 36l-197 -871q-51 -224 -81 -446z" />
    <glyph glyph-name="uogonek" unicode="&#x173;" horiz-adv-x="617" 
d="M176 585l-97 -387q-13 -52 -13 -88q0 -35 22 -56t57 -21q85 0 177 139l4 6q2 10 3 16l63 350l98 41l-88 -329q-22 -81 -22 -130q0 -32 11 -52t29 -20q31 0 99 74l16 -14l-10 -11q-57 -67 -84 -90.5t-50 -23.5q-4 0 -14 -1q-28 0 -36 -32q-7 -27 10 -49t45 -22q27 0 48 17
l7 -18q-35 -22 -77 -22q-46 0 -68.5 27t-11.5 67q7 26 27 44q10 9 23 13q-3 3 -6 7q-21 32 -21 79q0 15 1 28q-104 -138 -206 -138q-51 0 -81.5 29.5t-30.5 78.5q0 38 11 93l68 354z" />
    <glyph glyph-name="Wcircumflex" unicode="&#x174;" horiz-adv-x="1553" 
d="M1517 1267l90 38q-3 -374 -218 -829q-65 -137 -136 -252.5t-128 -174.5q-37 -39 -64 -55t-53 -16q-47 0 -64.5 40t-17.5 148q0 86 1 128q0 92 8 289q8 188 17 286l2 31q-73 -286 -228 -567q-98 -180 -197 -292q-56 -65 -107 -65q-60 0 -75 62q-4 20 -4 85v30l36 938
q3 56 3 91q0 126 -64 126q-39 0 -66 -37t-55 -129q-43 -142 -67 -309l-75 50q22 143 60.5 247t90 156t111.5 52q152 0 152 -269q0 -47 -1 -76l-32 -811q-1 -11 -1 -35q0 -47 7.5 -66t26.5 -19q26 0 61 35.5t88 116.5q65 98 132.5 234.5t115.5 270.5q23 63 46 145.5
t36.5 151.5t31.5 198l3 24l97 42l-2 -23l-32 -315q-4 -49 -10 -142t-8.5 -168.5t-5.5 -162.5q-5 -183 -5 -272q0 -81 7.5 -109.5t29.5 -28.5q23 0 55.5 31t79.5 98q103 147 177 314t113.5 344.5t39.5 336.5q0 10 -2 84zM1038 1487l-135 -47l-7 15l154 98l115 -98l-11 -15z
" />
    <glyph glyph-name="wcircumflex" unicode="&#x175;" horiz-adv-x="798" 
d="M0 544l90 41v-18v-8q0 -71 4 -132t15 -174q14 -132 21 -161t24 -29q22 0 72 70.5t98 170.5l-31 240l91 41l1 -25q8 -214 17 -307q3 -24 6 -50.5t4.5 -41.5t4.5 -34.5t4 -25.5q8 -33 26 -33q36 0 124 143q83 132 83 223q0 73 -48 106l76 70q35 -40 35 -104q0 -70 -39 -159
t-116 -199q-48 -67 -88 -111q-44 -50 -72 -50q-22 0 -33 20.5t-17 69.5l-22 179q-44 -89 -101 -166q-75 -103 -120 -103q-21 0 -31 18.5t-18 68.5zM365 761l-135 -47l-7 15l154 98l115 -98l-11 -15z" />
    <glyph glyph-name="Ycircumflex" unicode="&#x176;" horiz-adv-x="1040" 
d="M41 -18l34 77q98 -35 198 -35q86 0 158 26t130 77.5t113 138.5q75 118 137 297q16 47 28 87t58 207l8 28l-14 -27q-44 -88 -88.5 -155.5t-109.5 -146.5q-47 -55 -81 -84.5t-66.5 -44.5t-62.5 -15q-74 0 -104 73q-13 36 -13 121v44l18 512q1 11 1 33q0 120 -64 120
q-39 0 -74 -53t-63.5 -154.5t-48.5 -246.5l-3 -25l-77 49q10 84 40 179.5t63 152.5q75 129 163 129q74 0 113.5 -71.5t39.5 -211.5q0 -39 -1 -59l-13 -337q0 -20 -0.5 -31.5t-0.5 -25.5q0 -125 76 -125q36 0 76 30.5t95 98.5q68 84 126 191t96 222.5t56 232.5l111 50l-6 -30
q-58 -309 -148 -580t-180 -406q-110 -165 -258.5 -244t-350.5 -79q-66 0 -111 11zM764 1495l-135 -47l-7 15l154 98l115 -98l-11 -15z" />
    <glyph glyph-name="ycircumflex" unicode="&#x177;" horiz-adv-x="598" 
d="M-116 -355l49 66q58 -62 131 -62q77 0 124 61t77 200l46 207q-110 -129 -199 -129q-52 0 -81.5 32t-29.5 86q0 36 9 79l68 359l97 41l-97 -403q-12 -49 -12 -73q0 -34 20.5 -55.5t54.5 -21.5q37 0 81.5 32.5t99.5 97.5l86 382l94 41l-146 -588q-26 -106 -49.5 -166
t-54.5 -100q-98 -126 -239 -126q-82 0 -129 40zM329 736l-135 -47l-7 15l154 98l115 -98l-11 -15z" />
    <glyph glyph-name="Ydieresis" unicode="&#x178;" horiz-adv-x="1040" 
d="M41 -18l34 77q98 -35 198 -35q86 0 158 26t130 77.5t113 138.5q75 118 137 297q16 47 28 87t58 207l8 28l-14 -27q-44 -88 -88.5 -155.5t-109.5 -146.5q-47 -55 -81 -84.5t-66.5 -44.5t-62.5 -15q-74 0 -104 73q-13 36 -13 121v44l18 512q1 11 1 33q0 120 -64 120
q-39 0 -74 -53t-63.5 -154.5t-48.5 -246.5l-3 -25l-77 49q10 84 40 179.5t63 152.5q75 129 163 129q74 0 113.5 -71.5t39.5 -211.5q0 -39 -1 -59l-13 -337q0 -20 -0.5 -31.5t-0.5 -25.5q0 -125 76 -125q36 0 76 30.5t95 98.5q68 84 126 191t96 222.5t56 232.5l111 50l-6 -30
q-58 -309 -148 -580t-180 -406q-110 -165 -258.5 -244t-350.5 -79q-66 0 -111 11zM656 1489q14 0 24.5 -6t16.5 -16.5t6 -24.5q0 -19 -14 -33t-33 -14q-18 0 -32 14t-14 33q0 21 13 34t33 13zM813 1489q13 0 23.5 -6t16.5 -16.5t6 -24.5q0 -19 -14 -33t-32 -14q-19 0 -33 14
t-14 33q0 21 13 34t34 13z" />
    <glyph glyph-name="Zacute" unicode="&#x179;" horiz-adv-x="1169" 
d="M1071 79l-52 -97q-46 -4 -53 -4q-118 0 -276 55l-155 55l-117 41l-19 7q-96 -76 -170.5 -111t-144.5 -35q-54 0 -89.5 29.5t-35.5 74.5q0 67 68.5 107.5t185.5 40.5q54 0 107 -7t111 -23l15 13q230 208 407 458.5t276 508.5l-18 4q-95 22 -174.5 36.5t-156.5 25.5
t-135.5 16t-110.5 5q-166 0 -239 -47q-32 -21 -53 -53.5t-21 -63.5q0 -67 84 -109.5t264 -64.5l-75 -70q-144 21 -223 80.5t-79 147.5q0 98 97 166q61 44 139 63t190 19q98 0 195.5 -9.5t195 -28t189.5 -44.5l12 -3q-36 -100 -105.5 -237t-147.5 -257q-99 -153 -213.5 -288
t-252.5 -263l-17 -16l26 -7q53 -16 102 -33q105 -34 141.5 -45.5t69.5 -18.5q103 -23 181 -23q35 0 77 5zM351 147q-114 35 -203 35q-64 0 -103 -26t-39 -66q0 -27 24 -45t58 -18q52 0 107.5 24t136.5 83zM798 1603l-209 -154l-20 7l164 165z" />
    <glyph glyph-name="zacute" unicode="&#x17a;" horiz-adv-x="473" 
d="M70 568h327l8 -24l-15 -18l-114 -137q-127 -154 -168 -205.5t-78 -105.5q50 -5 126 -5q66 0 132 2q19 0 62 3l-10 -79h-396l-12 26l14 16q16 18 40 46t59 69.5t56.5 67.5t33.5 41l92 117q52 66 87 113h-259zM421 826l-209 -154l-20 7l164 165z" />
    <glyph glyph-name="Zdotaccent" unicode="&#x17b;" horiz-adv-x="1169" 
d="M1071 79l-52 -97q-46 -4 -53 -4q-118 0 -276 55l-155 55l-117 41l-19 7q-96 -76 -170.5 -111t-144.5 -35q-54 0 -89.5 29.5t-35.5 74.5q0 67 68.5 107.5t185.5 40.5q54 0 107 -7t111 -23l15 13q230 208 407 458.5t276 508.5l-18 4q-95 22 -174.5 36.5t-156.5 25.5
t-135.5 16t-110.5 5q-166 0 -239 -47q-32 -21 -53 -53.5t-21 -63.5q0 -67 84 -109.5t264 -64.5l-75 -70q-144 21 -223 80.5t-79 147.5q0 98 97 166q61 44 139 63t190 19q98 0 195.5 -9.5t195 -28t189.5 -44.5l12 -3q-36 -100 -105.5 -237t-147.5 -257q-99 -153 -213.5 -288
t-252.5 -263l-17 -16l26 -7q53 -16 102 -33q105 -34 141.5 -45.5t69.5 -18.5q103 -23 181 -23q35 0 77 5zM351 147q-114 35 -203 35q-64 0 -103 -26t-39 -66q0 -27 24 -45t58 -18q52 0 107.5 24t136.5 83zM863 1492q0 -26 -17 -44.5t-39 -18.5q-46 0 -46 45q0 18 8 33
t20.5 23.5t27.5 8.5q21 0 33.5 -13t12.5 -34z" />
    <glyph glyph-name="zdotaccent" unicode="&#x17c;" horiz-adv-x="473" 
d="M70 568h327l8 -24l-15 -18l-114 -137q-127 -154 -168 -205.5t-78 -105.5q50 -5 126 -5q66 0 132 2q19 0 62 3l-10 -79h-396l-12 26l14 16q16 18 40 46t59 69.5t56.5 67.5t33.5 41l92 117q52 66 87 113h-259zM306 752q0 -26 -17 -44.5t-39 -18.5q-46 0 -46 45q0 18 8 33
t20.5 23.5t27.5 8.5q21 0 33.5 -13t12.5 -34z" />
    <glyph glyph-name="Zcaron" unicode="&#x17d;" horiz-adv-x="1169" 
d="M1071 79l-52 -97q-46 -4 -53 -4q-118 0 -276 55l-155 55l-117 41l-19 7q-96 -76 -170.5 -111t-144.5 -35q-54 0 -89.5 29.5t-35.5 74.5q0 67 68.5 107.5t185.5 40.5q54 0 107 -7t111 -23l15 13q230 208 407 458.5t276 508.5l-18 4q-95 22 -174.5 36.5t-156.5 25.5
t-135.5 16t-110.5 5q-166 0 -239 -47q-32 -21 -53 -53.5t-21 -63.5q0 -67 84 -109.5t264 -64.5l-75 -70q-144 21 -223 80.5t-79 147.5q0 98 97 166q61 44 139 63t190 19q98 0 195.5 -9.5t195 -28t189.5 -44.5l12 -3q-36 -100 -105.5 -237t-147.5 -257q-99 -153 -213.5 -288
t-252.5 -263l-17 -16l26 -7q53 -16 102 -33q105 -34 141.5 -45.5t69.5 -18.5q103 -23 181 -23q35 0 77 5zM351 147q-114 35 -203 35q-64 0 -103 -26t-39 -66q0 -27 24 -45t58 -18q52 0 107.5 24t136.5 83zM971 1556l11 -15l-130 -100l-139 100l7 15l130 -48z" />
    <glyph glyph-name="zcaron" unicode="&#x17e;" horiz-adv-x="473" 
d="M70 568h327l8 -24l-15 -18l-114 -137q-127 -154 -168 -205.5t-78 -105.5q50 -5 126 -5q66 0 132 2q19 0 62 3l-10 -79h-396l-12 26l14 16q16 18 40 46t59 69.5t56.5 67.5t33.5 41l92 117q52 66 87 113h-259zM371 787l11 -15l-130 -100l-139 100l7 15l130 -48z" />
    <glyph glyph-name="slong" unicode="&#x17f;" horiz-adv-x="328" 
d="M199 1007q24 109 49 174t60 112q86 115 214 115q43 0 79 -14l-36 -91q-40 56 -102 56q-47 0 -76.5 -36.5t-50.5 -120.5l-298 -1236q-27 -114 -52.5 -170t-69.5 -104q-80 -87 -175 -87q-46 0 -82 16l49 72q42 -34 91 -34q74 0 111 78q27 58 57 192z" />
    <glyph glyph-name="Oopen" unicode="&#x186;" horiz-adv-x="986" 
d="M396 526l28 -76q-93 -27 -176 -83t-130.5 -124t-47.5 -134q0 -49 31.5 -77t84.5 -28q63 0 138 33t148.5 92t140.5 142q73 91 122 190t74 201.5t25 212.5q0 187 -86 296.5t-235 109.5q-96 0 -186.5 -43t-207.5 -144l-16 -13l-12 22q119 118 239 177t242 59
q110 0 195.5 -52.5t132 -147t46.5 -221.5q0 -92 -27 -192t-80.5 -202.5t-126.5 -198.5q-77 -102 -171 -182.5t-188.5 -124.5t-169.5 -44q-71 0 -113.5 40.5t-42.5 109.5q0 77 51 160.5t136 149t182 92.5z" />
    <glyph glyph-name="Dafrican" unicode="&#x189;" horiz-adv-x="1451" 
d="M891 1289l109 48q-12 -86 -25 -141l-20 -85l-7 -31q89 -66 157 -141t118 -159t74.5 -166t24.5 -162q0 -104 -37 -191t-106.5 -152t-164 -101t-202.5 -36q-167 0 -362 68l-25 9q-74 -42 -143 -62t-141 -20q-75 0 -121.5 28.5t-46.5 74.5q0 36 25.5 62.5t71.5 41.5t107 15
q86 0 278 -53l23 -7q64 62 124 173q40 74 80 180h-194l9 45h202q39 109 78 249q45 155 69 270q-73 57 -164 103t-180 72t-159 26q-83 0 -132.5 -38.5t-49.5 -103.5q0 -41 25.5 -82.5t71.5 -78.5t115 -68l-62 -61q-88 46 -137.5 117t-49.5 150q0 66 35 116.5t98 78.5t142 28
q203 0 466 -165q21 76 26 149zM941 527l-9 -45h-169q-107 -247 -245 -367l27 -9q125 -38 206 -54t155 -16q104 0 188.5 50t134 139t49.5 195q0 276 -352 568q-9 -42 -44 -164q-57 -192 -96 -288q-2 -5 -4 -9h159zM389 62q-179 55 -283 55q-44 0 -68.5 -14.5t-24.5 -40.5
q0 -28 39 -48t97 -20q117 0 240 68z" />
    <glyph glyph-name="Ereversed" unicode="&#x18e;" horiz-adv-x="1025" 
d="M252 1097l24 119q127 60 249.5 92t222.5 32q110 0 191 -31.5t124.5 -91.5t43.5 -141q0 -135 -122 -268.5t-348 -246.5q108 -18 108 -112q0 -134 -232 -301q-72 -52 -146.5 -91.5t-140 -60.5t-115.5 -21q-52 0 -81.5 28.5t-29.5 77.5q0 45 22.5 103t65.5 121t96 114
l53 -58q-156 -172 -156 -274q0 -69 82 -69q52 0 128 31t151 83q100 68 158.5 145t58.5 137q0 29 -18.5 55t-45.5 37q-28 10 -97 13h-17l13 64q151 65 303 177q252 186 252 350q0 82 -63.5 133.5t-162.5 51.5q-69 0 -152.5 -21t-185.5 -64t-233 -113z" />
    <glyph glyph-name="florin" unicode="&#x192;" horiz-adv-x="510" 
d="M257 530l-67 -241q-25 -92 -61 -200q-38 -118 -77.5 -182.5t-99.5 -106.5q-77 -54 -151 -54q-20 0 -47 6l32 86q44 -34 84 -34q36 0 70 29t55 76q21 46 61 186l121 435h-95l7 35h98l37 134q33 116 60.5 173.5t70.5 107.5q101 119 217 119q28 0 54 -9l-32 -89
q-39 43 -89 43q-51 0 -86 -39.5t-62 -126.5l-17 -54q-9 -29 -15 -49l-58 -210h152l-7 -35h-155z" />
    <glyph glyph-name="Ocenteredtilde" unicode="&#x19f;" horiz-adv-x="1224" 
d="M1183 858q0 -138 -46 -278.5t-129 -263.5q-71 -105 -160.5 -180.5t-189.5 -113.5t-206 -38q-93 0 -172.5 33t-136 94.5t-86.5 149t-30 190.5q0 167 61 328t164 286.5t234.5 198.5t268.5 73q127 0 224 -60t150.5 -169t53.5 -250zM142 427q0 -125 40.5 -217t116.5 -142
t175 -50q93 0 184.5 47t168.5 133t130 200q47 101 79 242v2h-871q-23 -115 -23 -215zM1068 900q0 93 -23 167.5t-66 126t-104 79t-141 27.5q-83 0 -164.5 -36.5t-153 -107t-128.5 -171.5q-64 -112 -105 -269q-4 -15 -8 -29h871q22 114 22 213z" />
    <glyph glyph-name="Ohorn" unicode="&#x1a0;" horiz-adv-x="1367" 
d="M1183 858q0 -138 -46 -278.5t-129 -263.5q-71 -105 -160.5 -180.5t-189.5 -113.5t-206 -38q-93 0 -172.5 33t-136 94.5t-86.5 149t-30 190.5q0 167 61 328t164 286.5t234.5 198.5t268.5 73q127 0 224 -60q61 -38 105 -95q38 -5 70 -5q58 1 93 18q-35 4 -52 21
q-19 19 -17 42t21 43q29 29 68.5 31.5t66.5 -24.5q22 -22 20 -53.5t-27 -56.5q-42 -42 -130 -51q-44 -5 -89 0q11 -19 21 -39q54 -109 54 -250zM1068 900q0 93 -23 167.5t-66 126t-104 79t-141 27.5q-83 0 -164.5 -36.5t-153 -107t-128.5 -171.5q-64 -112 -105 -268.5
t-41 -289.5q0 -125 40.5 -217t116.5 -142t175 -50q93 0 184.5 47t168.5 133t130 200q47 101 79 242.5t32 259.5z" />
    <glyph glyph-name="ohorn" unicode="&#x1a1;" horiz-adv-x="704" 
d="M-27 192q0 90 48.5 179.5t125.5 145.5t157 56q84 0 135 -56q25 -26 38 -60h7q58 1 93 18q-35 4 -52 21q-19 19 -17 42t21 43q29 29 68.5 31.5t66.5 -24.5q22 -22 20 -53.5t-27 -56.5q-42 -42 -130 -51q-23 -3 -41 -3q5 -24 5 -50q0 -96 -47.5 -186t-125 -147.5
t-156.5 -57.5q-85 0 -137 57.5t-52 151.5zM401 412q0 60 -29.5 99t-75.5 39q-42 0 -80.5 -27t-70.5 -79q-36 -60 -59.5 -140t-23.5 -142q0 -74 29 -114t83 -40q87 0 153 121q34 62 54 139t20 144z" />
    <glyph glyph-name="Uhorn" unicode="&#x1af;" horiz-adv-x="1363" 
d="M789 0h-96l4 24q18 126 42 251.5t55 247.5l92 365q-6 -12 -9.5 -20.5t-4.5 -10.5l-37 -93q-37 -90 -98 -218.5t-107 -213.5q-193 -352 -349 -352q-51 0 -81.5 34.5t-30.5 91.5q0 35 22 131l160 703l26 115q20 94 20 147q0 103 -60 103q-70 0 -116 -133q-54 -153 -82 -338
l-78 54q33 200 107 322t162 122q61 0 95 -60.5t34 -168.5q0 -109 -49 -322l-123 -537l-10 -46q-12 -47 -12 -81q0 -33 17.5 -53.5t43.5 -20.5q46 0 103 54t124 162.5t156 291.5q111 230 200 495q51 149 71 235l87 36l-28 -123q46 -7 85 -7q58 1 93 18q-35 4 -52 21
q-19 19 -17 42t21 43q29 29 68.5 31.5t66.5 -24.5q22 -22 20 -53.5t-27 -56.5q-42 -42 -130 -51q-66 -7 -135 7l-162 -718q-51 -224 -81 -446z" />
    <glyph glyph-name="uhorn" unicode="&#x1b0;" horiz-adv-x="761" 
d="M176 585l-97 -387q-13 -52 -13 -88q0 -35 22 -56t57 -21q85 0 177 139l4 6q2 10 3 16l63 350l98 41l-28 -103q39 -5 72 -5q58 1 93 18q-35 4 -52 21q-19 19 -17 42t21 43q29 29 68.5 31.5t66.5 -24.5q22 -22 20 -53.5t-27 -56.5q-42 -42 -130 -51q-60 -6 -123 5l-52 -196
q-22 -81 -22 -130q0 -32 11 -52t29 -20q31 0 99 74l16 -14l-10 -11q-57 -67 -84 -90.5t-50 -23.5q-31 0 -52.5 31.5t-21.5 78.5q0 15 1 28q-104 -138 -206 -138q-51 0 -81.5 29.5t-30.5 78.5q0 38 11 93l68 354z" />
    <glyph glyph-name="Zstroke" unicode="&#x1b5;" horiz-adv-x="1169" 
d="M1171 677l-9 -45h-299q-57 -79 -120 -152q-114 -135 -252 -263l-17 -16l26 -7q53 -16 102 -33q105 -34 141.5 -45.5t69.5 -18.5q103 -23 181 -23q35 0 77 5l-52 -97q-46 -4 -53 -4q-118 0 -276 55l-155 55l-117 41l-19 7q-96 -76 -170.5 -111t-144.5 -35
q-54 0 -89.5 29.5t-35.5 74.5q0 67 68.5 107.5t185.5 40.5q54 0 107 -7t111 -23l15 13q206 186 369 407h-297l9 45h321q2 3 5 6q177 251 276 509l-18 4q-95 22 -174.5 36.5t-156.5 25.5t-135.5 16t-110.5 5q-166 0 -239 -47q-32 -21 -53 -53.5t-21 -63.5q0 -67 84 -109.5
t264 -64.5l-75 -70q-144 21 -223 80.5t-79 147.5q0 98 97 166q61 44 139 63t190 19q98 0 195.5 -9.5t195 -28t189.5 -44.5l12 -3q-36 -100 -105.5 -237t-147.5 -257q-30 -47 -62 -91h276zM351 147q-114 35 -203 35q-64 0 -103 -26t-39 -66q0 -27 24 -45t58 -18
q52 0 107.5 24t136.5 83z" />
    <glyph glyph-name="zstroke" unicode="&#x1b6;" horiz-adv-x="473" 
d="M371 327l-9 -45h-174q-56 -68 -80 -99q-41 -51 -78 -105q50 -5 126 -5q66 0 132 2q19 0 62 3l-10 -79h-396l-12 26l14 16q16 18 40 46t59 69.5t56.5 67.5t33.5 41l13 17h-130l9 45h157l43 55q52 66 87 113h-259l15 73h327l8 -24l-15 -18l-114 -137q-28 -34 -51 -62h146z
" />
    <glyph glyph-name="clickdental" unicode="&#x1c0;" horiz-adv-x="479" 
d="M229 1389h29v-1488h-29v1488z" />
    <glyph glyph-name="clicklateral" unicode="&#x1c1;" horiz-adv-x="479" 
d="M79 1389h29v-1488h-29v1488zM379 1389h29v-1488h-29v1488z" />
    <glyph glyph-name="clickretroflex" unicode="&#x1c3;" horiz-adv-x="540" 
d="M437 1266l-253 -1020l-28 -13l148 973zM143 151q35 0 58 -23t23 -58t-23 -58t-58 -23q-34 0 -58 23t-24 58t24 58t58 23z" />
    <glyph glyph-name="DZcaron" unicode="&#x1c4;" horiz-adv-x="2620" 
d="M891 1289l109 48q-12 -86 -25 -141l-20 -85l-7 -31q89 -66 157 -141t118 -159t74.5 -166t24.5 -162q0 -104 -37 -191t-106.5 -152t-164 -101t-202.5 -36q-167 0 -362 68l-25 9q-74 -42 -143 -62t-141 -20q-75 0 -121.5 28.5t-46.5 74.5q0 36 25.5 62.5t71.5 41.5t107 15
q86 0 278 -53l23 -7q64 62 124 173q88 163 175 474q45 155 69 270q-73 57 -164 103t-180 72t-159 26q-83 0 -132.5 -38.5t-49.5 -103.5q0 -41 25.5 -82.5t71.5 -78.5t115 -68l-62 -61q-88 46 -137.5 117t-49.5 150q0 66 35 116.5t98 78.5t142 28q203 0 466 -165
q21 76 26 149zM518 115l27 -9q125 -38 206 -54t155 -16q104 0 188.5 50t134 139t49.5 195q0 276 -352 568q-9 -42 -44 -164q-57 -192 -96 -288q-115 -288 -268 -421zM389 62q-179 55 -283 55q-44 0 -68.5 -14.5t-24.5 -40.5q0 -28 39 -48t97 -20q117 0 240 68zM2522 79
l-52 -97q-46 -4 -53 -4q-118 0 -276 55l-155 55l-117 41l-19 7q-96 -76 -170.5 -111t-144.5 -35q-54 0 -89.5 29.5t-35.5 74.5q0 67 68.5 107.5t185.5 40.5q54 0 107 -7t111 -23l15 13q230 208 407 458.5t276 508.5l-18 4q-95 22 -174.5 36.5t-156.5 25.5t-135.5 16
t-110.5 5q-166 0 -239 -47q-32 -21 -53 -53.5t-21 -63.5q0 -67 84 -109.5t264 -64.5l-75 -70q-144 21 -223 80.5t-79 147.5q0 98 97 166q61 44 139 63t190 19q98 0 195.5 -9.5t195 -28t189.5 -44.5l12 -3q-36 -100 -105.5 -237t-147.5 -257q-99 -153 -213.5 -288
t-252.5 -263l-17 -16l26 -7q53 -16 102 -33q105 -34 141.5 -45.5t69.5 -18.5q103 -23 181 -23q35 0 77 5zM1802 147q-114 35 -203 35q-64 0 -103 -26t-39 -66q0 -27 24 -45t58 -18q52 0 107.5 24t136.5 83zM2359 1564l11 -15l-130 -100l-139 100l7 15l130 -48z" />
    <glyph glyph-name="Dzcaron" unicode="&#x1c5;" horiz-adv-x="1851" 
d="M891 1289l109 48q-12 -86 -25 -141l-20 -85l-7 -31q89 -66 157 -141t118 -159t74.5 -166t24.5 -162q0 -104 -37 -191t-106.5 -152t-164 -101t-202.5 -36q-167 0 -362 68l-25 9q-74 -42 -143 -62t-141 -20q-75 0 -121.5 28.5t-46.5 74.5q0 36 25.5 62.5t71.5 41.5t107 15
q86 0 278 -53l23 -7q64 62 124 173q88 163 175 474q45 155 69 270q-73 57 -164 103t-180 72t-159 26q-83 0 -132.5 -38.5t-49.5 -103.5q0 -41 25.5 -82.5t71.5 -78.5t115 -68l-62 -61q-88 46 -137.5 117t-49.5 150q0 66 35 116.5t98 78.5t142 28q203 0 466 -165
q21 76 26 149zM518 115l27 -9q125 -38 206 -54t155 -16q104 0 188.5 50t134 139t49.5 195q0 276 -352 568q-9 -42 -44 -164q-57 -192 -96 -288q-115 -288 -268 -421zM389 62q-179 55 -283 55q-44 0 -68.5 -14.5t-24.5 -40.5q0 -28 39 -48t97 -20q117 0 240 68zM1448 568h327
l8 -24l-15 -18l-114 -137q-127 -154 -168 -205.5t-78 -105.5q50 -5 126 -5q66 0 132 2q19 0 62 3l-10 -79h-396l-12 26l14 16q16 18 40 46t59 69.5t56.5 67.5t33.5 41l92 117q52 66 87 113h-259zM1753 787l11 -15l-130 -100l-139 100l7 15l130 -48z" />
    <glyph glyph-name="dzcaron" unicode="&#x1c6;" horiz-adv-x="1126" 
d="M699 1409l-265 -1153q-21 -92 -21 -128q0 -32 11.5 -52t31.5 -20q26 0 63 39l29 29l2 2t3 2l15 -14l-8 -9q-38 -42 -39 -43l-33 -33q-25 -25 -36.5 -31.5t-25.5 -6.5q-33 0 -55 34t-22 78q0 26 14 95l11 57q-26 -63 -82 -137q-101 -130 -196 -130q-57 0 -90 41.5
t-33 112.5q0 99 52 200.5t132.5 167.5t160.5 66q59 0 110 -35l163 817zM419 491q-9 27 -37 43.5t-60 16.5q-47 0 -96.5 -42t-93.5 -119q-32 -57 -52.5 -124.5t-20.5 -122.5q0 -48 20.5 -77t56.5 -29q42 0 90.5 43t97.5 124q33 55 52 114q23 76 33 122zM723 568h327l8 -24
l-15 -18l-114 -137q-127 -154 -168 -205.5t-78 -105.5q50 -5 126 -5q66 0 132 2q19 0 62 3l-10 -79h-396l-12 26l14 16q16 18 40 46t59 69.5t56.5 67.5t33.5 41l92 117q52 66 87 113h-259zM1043 787l11 -15l-130 -100l-139 100l7 15l130 -48z" />
    <glyph glyph-name="LJ" unicode="&#x1c7;" horiz-adv-x="2073" 
d="M1100 77l-43 -97q-29 -5 -51 -5q-44 0 -119 13q-54 10 -107.5 24.5t-138.5 41.5q-69 22 -137 41q-62 -59 -146 -91.5t-168 -32.5q-98 0 -157.5 35.5t-59.5 93.5q0 62 67 97t181 35q130 0 291 -47q30 52 48.5 109t39.5 158l71 334q31 145 57.5 226t61.5 140q33 56 76 99
t89 66t90 23q48 0 84 -22.5t54.5 -65t18.5 -98.5q0 -51 -19 -129t-49 -144l-93 -14q42 78 70 168.5t28 153.5q0 59 -25 91t-73 32q-103 0 -172 -136q-22 -44 -36 -89.5t-37 -150.5l-89 -417q-29 -134 -60 -213t-79 -139l25 -8q151 -50 242.5 -71.5t158.5 -21.5q47 0 106 11z
M457 110l-24 7q-179 54 -274 54q-151 0 -151 -79q0 -40 52 -67.5t131 -27.5q76 0 146 30t120 83zM1780 647l-72 -60q-32 49 -45.5 99t-13.5 123q0 176 93 364q40 82 90 127t97 45q62 0 93 -72.5t31 -212.5q0 -125 -33 -285t-89 -306q57 7 88 7q8 0 15 -1l-6 -29
q-51 0 -108 -8q-81 -203 -196 -376t-234.5 -270t-218.5 -97q-70 0 -110 42t-40 115q0 56 30 122.5t84 133t126 123.5q65 53 136 93.5t152.5 72t171.5 54.5l7 19q84 254 116 452q21 139 21 226q0 71 -17 110.5t-47 39.5q-43 0 -87 -61.5t-72 -157t-28 -187.5q0 -148 66 -245z
M1806 416q-119 -29 -229.5 -85t-190.5 -127q-92 -83 -145.5 -179.5t-53.5 -180.5q0 -53 27 -87t69 -34q128 0 291 224q39 52 80.5 129.5t94.5 196.5q30 69 57 143z" />
    <glyph glyph-name="Lj" unicode="&#x1c8;" horiz-adv-x="1462" 
d="M1100 77l-43 -97q-29 -5 -51 -5q-44 0 -119 13q-54 10 -107.5 24.5t-138.5 41.5q-69 22 -137 41q-62 -59 -146 -91.5t-168 -32.5q-98 0 -157.5 35.5t-59.5 93.5q0 62 67 97t181 35q130 0 291 -47q30 52 48.5 109t39.5 158l71 334q31 145 57.5 226t61.5 140q33 56 76 99
t89 66t90 23q48 0 84 -22.5t54.5 -65t18.5 -98.5q0 -51 -19 -129t-49 -144l-93 -14q42 78 70 168.5t28 153.5q0 59 -25 91t-73 32q-103 0 -172 -136q-22 -44 -36 -89.5t-37 -150.5l-89 -417q-29 -134 -60 -213t-79 -139l25 -8q151 -50 242.5 -71.5t158.5 -21.5q47 0 106 11z
M457 110l-24 7q-179 54 -274 54q-151 0 -151 -79q0 -40 52 -67.5t131 -27.5q76 0 146 30t120 83zM1361 585l-158 -671q-19 -83 -35 -124.5t-43 -77.5q-37 -50 -91.5 -77.5t-115.5 -27.5q-40 0 -67 12l48 70q41 -31 86 -31q37 0 70 23.5t52 65.5q14 30 29 113l128 684z
M1390 977q26 0 42 -16t16 -42q0 -25 -17 -42t-41 -17q-23 0 -41 18t-18 41q0 24 17 41t42 17z" />
    <glyph glyph-name="lj" unicode="&#x1c9;" horiz-adv-x="568" 
d="M348 1409l-263 -1153l-9 -39q-13 -55 -13 -93q0 -31 11.5 -50.5t28.5 -19.5q31 0 99 74l16 -14l-10 -11q-57 -67 -84 -90.5t-50 -23.5q-30 0 -52.5 33.5t-22.5 76.5q0 30 13 95l231 1164zM467 585l-158 -671q-19 -83 -35 -124.5t-43 -77.5q-37 -50 -91.5 -77.5
t-115.5 -27.5q-40 0 -67 12l48 70q41 -31 86 -31q37 0 70 23.5t52 65.5q14 30 29 113l128 684zM496 977q26 0 42 -16t16 -42q0 -25 -17 -42t-41 -17q-23 0 -41 18t-18 41q0 24 17 41t42 17z" />
    <glyph glyph-name="NJ" unicode="&#x1ca;" horiz-adv-x="1935" 
d="M782 0h-96l229 1040q14 62 14 92q0 34 -16.5 54t-45.5 20q-89 0 -211 -198q-48 -77 -102.5 -184t-97.5 -202.5t-87 -210.5t-78 -223l-53 -169l-6 -19h-85l6 20q66 228 149 635q32 153 56 288q33 181 33 252q0 37 -8 66.5t-22.5 44.5t-34.5 15q-81 0 -136 -200
q-43 -153 -57 -277l-78 54q20 125 62 230.5t95 164t107 58.5q64 0 100.5 -69t36.5 -191q0 -100 -19 -220q-13 -82 -28 -163l-51 -246l9 22q87 212 166.5 367t148.5 251q124 169 230 169q49 0 80.5 -34.5t31.5 -89.5q0 -47 -17 -124zM1642 647l-72 -60q-32 49 -45.5 99
t-13.5 123q0 176 93 364q40 82 90 127t97 45q62 0 93 -72.5t31 -212.5q0 -125 -33 -285t-89 -306q57 7 88 7q8 0 15 -1l-6 -29q-51 0 -108 -8q-81 -203 -196 -376t-234.5 -270t-218.5 -97q-70 0 -110 42t-40 115q0 56 30 122.5t84 133t126 123.5q65 53 136 93.5t152.5 72
t171.5 54.5l7 19q84 254 116 452q21 139 21 226q0 71 -17 110.5t-47 39.5q-43 0 -87 -61.5t-72 -157t-28 -187.5q0 -148 66 -245zM1668 416q-119 -29 -229.5 -85t-190.5 -127q-92 -83 -145.5 -179.5t-53.5 -180.5q0 -53 27 -87t69 -34q128 0 291 224q39 52 80.5 129.5
t94.5 196.5q30 69 57 143z" />
    <glyph glyph-name="Nj" unicode="&#x1cb;" horiz-adv-x="1324" 
d="M782 0h-96l229 1040q14 62 14 92q0 34 -16.5 54t-45.5 20q-89 0 -211 -198q-48 -77 -102.5 -184t-97.5 -202.5t-87 -210.5t-78 -223l-53 -169l-6 -19h-85l6 20q66 228 149 635q32 153 56 288q33 181 33 252q0 37 -8 66.5t-22.5 44.5t-34.5 15q-81 0 -136 -200
q-43 -153 -57 -277l-78 54q20 125 62 230.5t95 164t107 58.5q64 0 100.5 -69t36.5 -191q0 -100 -19 -220q-13 -82 -28 -163l-51 -246l9 22q87 212 166.5 367t148.5 251q124 169 230 169q49 0 80.5 -34.5t31.5 -89.5q0 -47 -17 -124zM1223 585l-158 -671q-19 -83 -35 -124.5
t-43 -77.5q-37 -50 -91.5 -77.5t-115.5 -27.5q-40 0 -67 12l48 70q41 -31 86 -31q37 0 70 23.5t52 65.5q14 30 29 113l128 684zM1252 977q26 0 42 -16t16 -42q0 -25 -17 -42t-41 -17q-23 0 -41 18t-18 41q0 24 17 41t42 17z" />
    <glyph glyph-name="nj" unicode="&#x1cc;" horiz-adv-x="937" 
d="M-17 -10l106 554l95 41l-86 -367q83 175 165 266t157 91q37 0 60 -24.5t23 -65.5q0 -23 -11 -65l-10 -42l-30 -122l-10 -39q-15 -60 -15 -92t11 -51.5t29 -19.5q31 0 99 74l16 -14l-10 -11q-57 -67 -84 -90.5t-50 -23.5q-31 0 -52.5 31.5t-21.5 78.5q0 32 12 95l39 212
q8 50 8 70q0 21 -11 32t-30 11q-69 0 -170 -148q-49 -71 -81 -140.5t-72 -192.5l-9 -27zM836 585l-158 -671q-19 -83 -35 -124.5t-43 -77.5q-37 -50 -91.5 -77.5t-115.5 -27.5q-40 0 -67 12l48 70q41 -31 86 -31q37 0 70 23.5t52 65.5q14 30 29 113l128 684zM865 977
q26 0 42 -16t16 -42q0 -25 -17 -42t-41 -17q-23 0 -41 18t-18 41q0 24 17 41t42 17z" />
    <glyph glyph-name="Acaron" unicode="&#x1cd;" horiz-adv-x="1336" 
d="M1165 443l-95 -443h-64q-37 118 -118.5 229t-184.5 183q-68 -106 -152 -190t-178.5 -144t-196.5 -93t-200 -33q-27 0 -58 5l32 76q53 -6 80 -6q274 0 488 214q44 44 89.5 101.5t94.5 134.5q109 171 186 320l94 181q111 213 171 288.5t119 75.5q19 0 33.5 -8t22.5 -23.5
t8 -34.5q0 -14 -5 -41q-5 -36 -6 -39l-153 -719h71l-7 -34h-71zM1071 443h-349l4 -3q89 -68 153 -140t125 -172zM749 477h329l142 680q7 33 7 34q6 20 6 36q0 25 -22 25q-27 0 -65 -57t-132 -234q-14 -27 -57 -109q-36 -65 -39 -72l-96 -175q-60 -109 -73 -128zM1421 1559
l11 -15l-130 -100l-139 100l7 15l130 -48z" />
    <glyph glyph-name="acaron" unicode="&#x1ce;" horiz-adv-x="666" 
d="M537 591l-94 -366q-15 -60 -15 -94q0 -30 13 -52t32 -22q29 0 96 71l14 -14l-11 -13q-53 -61 -81.5 -85.5t-49.5 -24.5q-32 0 -55.5 33.5t-23.5 77.5q0 32 24 145l8 38q-37 -86 -99 -165q-104 -132 -199 -132q-57 0 -90 41t-33 110q0 94 53.5 197t133 169.5t154.5 66.5
q79 0 118 -58l11 38zM422 463q-12 38 -40.5 59.5t-65.5 21.5q-44 0 -93 -40.5t-90 -112.5q-32 -57 -53.5 -126t-21.5 -114q0 -51 19.5 -80t55.5 -29q46 0 96 43t99 123q30 46 47 92t38 128zM502 810l11 -15l-130 -100l-139 100l7 15l130 -48z" />
    <glyph glyph-name="Icaron" unicode="&#x1cf;" horiz-adv-x="873" 
d="M-68 -24l30 77q89 -39 195 -39q129 0 235 86q62 49 104.5 110t90.5 166l8 16q-83 53 -122.5 144.5t-39.5 227.5q0 94 29 202.5t80 202.5q43 84 93 131.5t94 47.5q60 0 92 -72t32 -205q0 -101 -22.5 -224.5t-63.5 -247.5t-86 -207q29 -11 61 -11t67 11l-9 -27
q-26 -8 -64 -8q-39 0 -72 8q-81 -138 -175.5 -227.5t-206 -132.5t-244.5 -43q-64 0 -106 14zM610 424q38 86 74 226q38 143 64 293.5t26 230.5q0 68 -16 105t-48 37q-46 0 -93.5 -90.5t-78 -232.5t-30.5 -277q0 -221 102 -292zM866 1565l11 -15l-130 -100l-139 100l7 15
l130 -48z" />
    <glyph glyph-name="icaron" unicode="&#x1d0;" horiz-adv-x="295" 
d="M173 585l-88 -329q-22 -81 -22 -130q0 -32 11 -52t29 -20q31 0 99 74l16 -14l-10 -11q-57 -67 -84 -90.5t-50 -23.5q-31 0 -52.5 31.5t-21.5 78.5q0 30 12 95l63 350zM265 804l11 -15l-130 -100l-139 100l7 15l130 -48z" />
    <glyph glyph-name="Ocaron" unicode="&#x1d1;" horiz-adv-x="1224" 
d="M1183 858q0 -138 -46 -278.5t-129 -263.5q-71 -105 -160.5 -180.5t-189.5 -113.5t-206 -38q-93 0 -172.5 33t-136 94.5t-86.5 149t-30 190.5q0 167 61 328t164 286.5t234.5 198.5t268.5 73q127 0 224 -60t150.5 -169t53.5 -250zM1068 900q0 93 -23 167.5t-66 126t-104 79
t-141 27.5q-83 0 -164.5 -36.5t-153 -107t-128.5 -171.5q-64 -112 -105 -268.5t-41 -289.5q0 -125 40.5 -217t116.5 -142t175 -50q93 0 184.5 47t168.5 133t130 200q47 101 79 242.5t32 259.5zM929 1554l11 -15l-130 -100l-139 100l7 15l130 -48z" />
    <glyph glyph-name="ocaron" unicode="&#x1d2;" horiz-adv-x="600" 
d="M-27 192q0 90 48.5 179.5t125.5 145.5t157 56q84 0 135.5 -55.5t51.5 -143.5q0 -96 -47.5 -186t-125 -147.5t-156.5 -57.5q-85 0 -137 57.5t-52 151.5zM401 412q0 60 -29.5 99t-75.5 39q-42 0 -80.5 -27t-70.5 -79q-36 -60 -59.5 -140t-23.5 -142q0 -74 29 -114t83 -40
q87 0 153 121q34 62 54 139t20 144zM456 792l11 -15l-130 -100l-139 100l7 15l130 -48z" />
    <glyph glyph-name="Ucaron" unicode="&#x1d3;" horiz-adv-x="1043" 
d="M789 0h-96l4 24q18 126 42 251.5t55 247.5l92 365q-6 -12 -9.5 -20.5t-4.5 -10.5l-37 -93q-37 -90 -98 -218.5t-107 -213.5q-193 -352 -349 -352q-51 0 -81.5 34.5t-30.5 91.5q0 35 22 131l160 703l26 115q20 94 20 147q0 103 -60 103q-70 0 -116 -133q-54 -153 -82 -338
l-78 54q33 200 107 322t162 122q61 0 95 -60.5t34 -168.5q0 -109 -49 -322l-123 -537l-10 -46q-12 -47 -12 -81q0 -33 17.5 -53.5t43.5 -20.5q46 0 103 54t124 162.5t156 291.5q111 230 200 495q51 149 71 235l87 36l-197 -871q-51 -224 -81 -446zM829 1549l11 -15
l-130 -100l-139 100l7 15l130 -48z" />
    <glyph glyph-name="ucaron" unicode="&#x1d4;" horiz-adv-x="617" 
d="M176 585l-97 -387q-13 -52 -13 -88q0 -35 22 -56t57 -21q85 0 177 139l4 6q2 10 3 16l63 350l98 41l-88 -329q-22 -81 -22 -130q0 -32 11 -52t29 -20q31 0 99 74l16 -14l-10 -11q-57 -67 -84 -90.5t-50 -23.5q-31 0 -52.5 31.5t-21.5 78.5q0 15 1 28q-104 -138 -206 -138
q-51 0 -81.5 29.5t-30.5 78.5q0 38 11 93l68 354zM441 804l11 -15l-130 -100l-139 100l7 15l130 -48z" />
    <glyph glyph-name="Udieresismacron" unicode="&#x1d5;" horiz-adv-x="1043" 
d="M789 0h-96l4 24q18 126 42 251.5t55 247.5l92 365q-6 -12 -9.5 -20.5t-4.5 -10.5l-37 -93q-37 -90 -98 -218.5t-107 -213.5q-193 -352 -349 -352q-51 0 -81.5 34.5t-30.5 91.5q0 35 22 131l160 703l26 115q20 94 20 147q0 103 -60 103q-70 0 -116 -133q-54 -153 -82 -338
l-78 54q33 200 107 322t162 122q61 0 95 -60.5t34 -168.5q0 -109 -49 -322l-123 -537l-10 -46q-12 -47 -12 -81q0 -33 17.5 -53.5t43.5 -20.5q46 0 103 54t124 162.5t156 291.5q111 230 200 495q51 149 71 235l87 36l-197 -871q-51 -224 -81 -446zM654 1497q14 0 24.5 -6
t16.5 -16.5t6 -24.5q0 -19 -14 -33t-33 -14q-18 0 -32 14t-14 33q0 21 13 34t33 13zM811 1497q13 0 23.5 -6t16.5 -16.5t6 -24.5q0 -19 -14 -33t-32 -14q-19 0 -33 14t-14 33q0 21 13 34t34 13zM870 1627l-9 -45h-244l9 45h244z" />
    <glyph glyph-name="udieresismacron" unicode="&#x1d6;" horiz-adv-x="617" 
d="M176 585l-97 -387q-13 -52 -13 -88q0 -35 22 -56t57 -21q85 0 177 139l4 6q2 10 3 16l63 350l98 41l-88 -329q-22 -81 -22 -130q0 -32 11 -52t29 -20q31 0 99 74l16 -14l-10 -11q-57 -67 -84 -90.5t-50 -23.5q-31 0 -52.5 31.5t-21.5 78.5q0 15 1 28q-104 -138 -206 -138
q-51 0 -81.5 29.5t-30.5 78.5q0 38 11 93l68 354zM236 793q14 0 24.5 -6t16.5 -16.5t6 -24.5q0 -19 -14 -33t-33 -14q-18 0 -32 14t-14 33q0 21 13 34t33 13zM393 793q13 0 23.5 -6t16.5 -16.5t6 -24.5q0 -19 -14 -33t-32 -14q-19 0 -33 14t-14 33q0 21 13 34t34 13z
M467 925l-9 -45h-244l9 45h244z" />
    <glyph glyph-name="Udieresisacute" unicode="&#x1d7;" horiz-adv-x="1043" 
d="M789 0h-96l4 24q18 126 42 251.5t55 247.5l92 365q-6 -12 -9.5 -20.5t-4.5 -10.5l-37 -93q-37 -90 -98 -218.5t-107 -213.5q-193 -352 -349 -352q-51 0 -81.5 34.5t-30.5 91.5q0 35 22 131l160 703l26 115q20 94 20 147q0 103 -60 103q-70 0 -116 -133q-54 -153 -82 -338
l-78 54q33 200 107 322t162 122q61 0 95 -60.5t34 -168.5q0 -109 -49 -322l-123 -537l-10 -46q-12 -47 -12 -81q0 -33 17.5 -53.5t43.5 -20.5q46 0 103 54t124 162.5t156 291.5q111 230 200 495q51 149 71 235l87 36l-197 -871q-51 -224 -81 -446zM681 1497q14 0 24.5 -6
t16.5 -16.5t6 -24.5q0 -19 -14 -33t-33 -14q-18 0 -32 14t-14 33q0 21 13 34t33 13zM838 1497q13 0 23.5 -6t16.5 -16.5t6 -24.5q0 -19 -14 -33t-32 -14q-19 0 -33 14t-14 33q0 21 13 34t34 13zM965 1697l-209 -154l-20 7l164 165z" />
    <glyph glyph-name="udieresisacute" unicode="&#x1d8;" horiz-adv-x="617" 
d="M176 585l-97 -387q-13 -52 -13 -88q0 -35 22 -56t57 -21q85 0 177 139l4 6q2 10 3 16l63 350l98 41l-88 -329q-22 -81 -22 -130q0 -32 11 -52t29 -20q31 0 99 74l16 -14l-10 -11q-57 -67 -84 -90.5t-50 -23.5q-31 0 -52.5 31.5t-21.5 78.5q0 15 1 28q-104 -138 -206 -138
q-51 0 -81.5 29.5t-30.5 78.5q0 38 11 93l68 354zM251 793q14 0 24.5 -6t16.5 -16.5t6 -24.5q0 -19 -14 -33t-33 -14q-18 0 -32 14t-14 33q0 21 13 34t33 13zM408 793q13 0 23.5 -6t16.5 -16.5t6 -24.5q0 -19 -14 -33t-32 -14q-19 0 -33 14t-14 33q0 21 13 34t34 13z
M551 983l-209 -154l-20 7l164 165z" />
    <glyph glyph-name="Udieresiscaron" unicode="&#x1d9;" horiz-adv-x="1043" 
d="M789 0h-96l4 24q18 126 42 251.5t55 247.5l92 365q-6 -12 -9.5 -20.5t-4.5 -10.5l-37 -93q-37 -90 -98 -218.5t-107 -213.5q-193 -352 -349 -352q-51 0 -81.5 34.5t-30.5 91.5q0 35 22 131l160 703l26 115q20 94 20 147q0 103 -60 103q-70 0 -116 -133q-54 -153 -82 -338
l-78 54q33 200 107 322t162 122q61 0 95 -60.5t34 -168.5q0 -109 -49 -322l-123 -537l-10 -46q-12 -47 -12 -81q0 -33 17.5 -53.5t43.5 -20.5q46 0 103 54t124 162.5t156 291.5q111 230 200 495q51 149 71 235l87 36l-197 -871q-51 -224 -81 -446zM654 1497q14 0 24.5 -6
t16.5 -16.5t6 -24.5q0 -19 -14 -33t-33 -14q-18 0 -32 14t-14 33q0 21 13 34t33 13zM811 1497q13 0 23.5 -6t16.5 -16.5t6 -24.5q0 -19 -14 -33t-32 -14q-19 0 -33 14t-14 33q0 21 13 34t34 13zM853 1679l11 -15l-130 -100l-139 100l7 15l130 -48z" />
    <glyph glyph-name="udieresiscaron" unicode="&#x1da;" horiz-adv-x="617" 
d="M176 585l-97 -387q-13 -52 -13 -88q0 -35 22 -56t57 -21q85 0 177 139l4 6q2 10 3 16l63 350l98 41l-88 -329q-22 -81 -22 -130q0 -32 11 -52t29 -20q31 0 99 74l16 -14l-10 -11q-57 -67 -84 -90.5t-50 -23.5q-31 0 -52.5 31.5t-21.5 78.5q0 15 1 28q-104 -138 -206 -138
q-51 0 -81.5 29.5t-30.5 78.5q0 38 11 93l68 354zM239 793q14 0 24.5 -6t16.5 -16.5t6 -24.5q0 -19 -14 -33t-33 -14q-18 0 -32 14t-14 33q0 21 13 34t33 13zM396 793q13 0 23.5 -6t16.5 -16.5t6 -24.5q0 -19 -14 -33t-32 -14q-19 0 -33 14t-14 33q0 21 13 34t34 13z
M441 1000l11 -15l-130 -100l-139 100l7 15l130 -48z" />
    <glyph glyph-name="Udieresisgrave" unicode="&#x1db;" horiz-adv-x="1043" 
d="M789 0h-96l4 24q18 126 42 251.5t55 247.5l92 365q-6 -12 -9.5 -20.5t-4.5 -10.5l-37 -93q-37 -90 -98 -218.5t-107 -213.5q-193 -352 -349 -352q-51 0 -81.5 34.5t-30.5 91.5q0 35 22 131l160 703l26 115q20 94 20 147q0 103 -60 103q-70 0 -116 -133q-54 -153 -82 -338
l-78 54q33 200 107 322t162 122q61 0 95 -60.5t34 -168.5q0 -109 -49 -322l-123 -537l-10 -46q-12 -47 -12 -81q0 -33 17.5 -53.5t43.5 -20.5q46 0 103 54t124 162.5t156 291.5q111 230 200 495q51 149 71 235l87 36l-197 -871q-51 -224 -81 -446zM586 1528q14 0 24.5 -6
t16.5 -16.5t6 -24.5q0 -19 -14 -33t-33 -14q-18 0 -32 14t-14 33q0 21 13 34t33 13zM743 1528q13 0 23.5 -6t16.5 -16.5t6 -24.5q0 -19 -14 -33t-32 -14q-19 0 -33 14t-14 33q0 21 13 34t34 13zM664 1802l59 -167l-19 -5l-99 155z" />
    <glyph glyph-name="udieresisgrave" unicode="&#x1dc;" horiz-adv-x="617" 
d="M176 585l-97 -387q-13 -52 -13 -88q0 -35 22 -56t57 -21q85 0 177 139l4 6q2 10 3 16l63 350l98 41l-88 -329q-22 -81 -22 -130q0 -32 11 -52t29 -20q31 0 99 74l16 -14l-10 -11q-57 -67 -84 -90.5t-50 -23.5q-31 0 -52.5 31.5t-21.5 78.5q0 15 1 28q-104 -138 -206 -138
q-51 0 -81.5 29.5t-30.5 78.5q0 38 11 93l68 354zM239 793q14 0 24.5 -6t16.5 -16.5t6 -24.5q0 -19 -14 -33t-33 -14q-18 0 -32 14t-14 33q0 21 13 34t33 13zM396 793q13 0 23.5 -6t16.5 -16.5t6 -24.5q0 -19 -14 -33t-32 -14q-19 0 -33 14t-14 33q0 21 13 34t34 13z
M317 1055l59 -167l-19 -5l-99 155z" />
    <glyph glyph-name="eturned" unicode="&#x1dd;" horiz-adv-x="496" 
d="M-9 408l-18 15q62 82 121 118.5t127 36.5q81 0 130 -54t49 -143q0 -90 -47.5 -182.5t-119 -153t-141.5 -60.5q-41 0 -67.5 24t-26.5 62q0 77 84 154t229 131q1 8 1 18q0 69 -38 112.5t-98 43.5q-47 0 -91 -29.5t-94 -92.5zM311 332q-108 -48 -166 -107q-39 -40 -63 -86
t-24 -83q0 -47 43 -47q65 0 131.5 102.5t78.5 220.5z" />
    <glyph glyph-name="Adieresismacron" unicode="&#x1de;" horiz-adv-x="1336" 
d="M1165 443l-95 -443h-64q-37 118 -118.5 229t-184.5 183q-68 -106 -152 -190t-178.5 -144t-196.5 -93t-200 -33q-27 0 -58 5l32 76q53 -6 80 -6q274 0 488 214q44 44 89.5 101.5t94.5 134.5q109 171 186 320l94 181q111 213 171 288.5t119 75.5q19 0 33.5 -8t22.5 -23.5
t8 -34.5q0 -14 -5 -41q-5 -36 -6 -39l-153 -719h71l-7 -34h-71zM1071 443h-349l4 -3q89 -68 153 -140t125 -172zM749 477h329l142 680q7 33 7 34q6 20 6 36q0 25 -22 25q-27 0 -65 -57t-132 -234q-14 -27 -57 -109q-36 -65 -39 -72l-96 -175q-60 -109 -73 -128zM1198 1538
q14 0 24.5 -6t16.5 -16.5t6 -24.5q0 -19 -14 -33t-33 -14q-18 0 -32 14t-14 33q0 21 13 34t33 13zM1355 1538q13 0 23.5 -6t16.5 -16.5t6 -24.5q0 -19 -14 -33t-32 -14q-19 0 -33 14t-14 33q0 21 13 34t34 13zM1425 1685l-9 -45h-244l9 45h244z" />
    <glyph glyph-name="adieresismacron" unicode="&#x1df;" horiz-adv-x="666" 
d="M537 591l-94 -366q-15 -60 -15 -94q0 -30 13 -52t32 -22q29 0 96 71l14 -14l-11 -13q-53 -61 -81.5 -85.5t-49.5 -24.5q-32 0 -55.5 33.5t-23.5 77.5q0 32 24 145l8 38q-37 -86 -99 -165q-104 -132 -199 -132q-57 0 -90 41t-33 110q0 94 53.5 197t133 169.5t154.5 66.5
q79 0 118 -58l11 38zM422 463q-12 38 -40.5 59.5t-65.5 21.5q-44 0 -93 -40.5t-90 -112.5q-32 -57 -53.5 -126t-21.5 -114q0 -51 19.5 -80t55.5 -29q46 0 96 43t99 123q30 46 47 92t38 128zM300 793q14 0 24.5 -6t16.5 -16.5t6 -24.5q0 -19 -14 -33t-33 -14q-18 0 -32 14
t-14 33q0 21 13 34t33 13zM457 793q13 0 23.5 -6t16.5 -16.5t6 -24.5q0 -19 -14 -33t-32 -14q-19 0 -33 14t-14 33q0 21 13 34t34 13zM531 925l-9 -45h-244l9 45h244z" />
    <glyph glyph-name="Adotmacron" unicode="&#x1e0;" horiz-adv-x="1336" 
d="M1165 443l-95 -443h-64q-37 118 -118.5 229t-184.5 183q-68 -106 -152 -190t-178.5 -144t-196.5 -93t-200 -33q-27 0 -58 5l32 76q53 -6 80 -6q274 0 488 214q44 44 89.5 101.5t94.5 134.5q109 171 186 320l94 181q111 213 171 288.5t119 75.5q19 0 33.5 -8t22.5 -23.5
t8 -34.5q0 -14 -5 -41q-5 -36 -6 -39l-153 -719h71l-7 -34h-71zM1071 443h-349l4 -3q89 -68 153 -140t125 -172zM749 477h329l142 680q7 33 7 34q6 20 6 36q0 25 -22 25q-27 0 -65 -57t-132 -234q-14 -27 -57 -109q-36 -65 -39 -72l-96 -175q-60 -109 -73 -128zM1367 1507
q0 -26 -17 -44.5t-39 -18.5q-46 0 -46 45q0 18 8 33t20.5 23.5t27.5 8.5q21 0 33.5 -13t12.5 -34zM1452 1701l-9 -45h-244l9 45h244z" />
    <glyph glyph-name="adotmacron" unicode="&#x1e1;" horiz-adv-x="666" 
d="M537 591l-94 -366q-15 -60 -15 -94q0 -30 13 -52t32 -22q29 0 96 71l14 -14l-11 -13q-53 -61 -81.5 -85.5t-49.5 -24.5q-32 0 -55.5 33.5t-23.5 77.5q0 32 24 145l8 38q-37 -86 -99 -165q-104 -132 -199 -132q-57 0 -90 41t-33 110q0 94 53.5 197t133 169.5t154.5 66.5
q79 0 118 -58l11 38zM422 463q-12 38 -40.5 59.5t-65.5 21.5q-44 0 -93 -40.5t-90 -112.5q-32 -57 -53.5 -126t-21.5 -114q0 -51 19.5 -80t55.5 -29q46 0 96 43t99 123q30 46 47 92t38 128zM448 758q0 -26 -17 -44.5t-39 -18.5q-46 0 -46 45q0 18 8 33t20.5 23.5t27.5 8.5
q21 0 33.5 -13t12.5 -34zM527 925l-9 -45h-244l9 45h244z" />
    <glyph glyph-name="AEmacron" unicode="&#x1e2;" horiz-adv-x="2083" 
d="M1899 201l-24 -119q-128 -60 -250 -92t-222 -32q-83 0 -149.5 18t-113.5 52q-31 24 -53 53l-17 -81h-64q-38 120 -119 229q-82 112 -184 183q-67 -105 -152 -190t-179.5 -145t-195.5 -92.5t-200 -32.5q-14 0 -28 1.5t-30 3.5l32 76q53 -6 80 -6q274 0 488 214
q45 45 90 101.5t94 134.5q55 86 101.5 165.5t84.5 154.5l94 181q57 109 98 179.5t74 111.5t60.5 57t57.5 16q29 0 46.5 -18t17.5 -48q0 -7 -2 -21l-4 -27q-2 -13 -3.5 -23t-1.5 -9l-148 -693q57 59 136 115q88 62 201 119q-108 18 -108 112q0 135 232 301q54 39 110 71
t108.5 54.5t99.5 35t84 12.5q54 0 82.5 -30t28.5 -81q0 -32 -14 -74t-38.5 -87t-58.5 -89.5t-73 -82.5l-53 58q156 173 156 274q0 69 -82 69q-40 0 -92.5 -18t-107.5 -48.5t-108 -70t-95 -83.5t-67.5 -89.5t-25.5 -86.5q0 -29 18.5 -55t45.5 -37q14 -5 38 -8t59 -5h17
l-13 -64q-151 -64 -303 -177q-158 -117 -217 -225l-33 -154q4 -25 15 -46q17 -34 47 -58.5t71.5 -38t90.5 -13.5q53 0 112 11.5t128.5 35.5t151.5 61.5t179 89.5zM749 477h329l142 680q5 21 7 31l4 16q2 6 2 10v13q0 25 -22 25q-16 0 -32.5 -15t-43.5 -58t-69 -121.5
t-109 -205.5q-17 -32 -27.5 -49.5t-11.5 -22.5l-96 -175q-59 -108 -73 -128zM1071 443h-349l4 -3q87 -66 153 -140q32 -36 63 -78.5t62 -93.5zM1661 1489l-9 -45h-244l9 45h244z" />
    <glyph glyph-name="aemacron" unicode="&#x1e3;" horiz-adv-x="851" 
d="M736 155l20 -15q-100 -155 -244 -155q-76 0 -126 51t-50 129v8q-44 -87 -109 -137.5t-133 -50.5q-56 0 -88.5 30t-32.5 81q0 96 105 168.5t291 104.5l3.5 14t1.5 7q12 49 12 71q0 44 -21 66.5t-61 22.5q-55 0 -95.5 -39.5t-40.5 -91.5q0 -14 3 -27q-15 -3 -24 -3
q-19 0 -32 13t-13 32q0 34 28 67t74.5 53t99.5 20q124 0 142 -107q38 53 88 82t103 29q43 0 68.5 -22t25.5 -61q0 -51 -42.5 -108t-114.5 -105t-157 -75v-10q0 -71 38 -118t93 -47q101 0 188 123zM360 340q-84 -8 -178 -59q-58 -31 -92.5 -77t-34.5 -94q0 -33 22.5 -56.5
t53.5 -23.5q48 0 92 38t80 109t57 163zM417 231q59 26 91 47t70 60q92 94 92 165q0 21 -13 33.5t-37 12.5q-30 0 -63 -24.5t-59 -69.5q-33 -57 -54.5 -116.5t-26.5 -107.5zM591 725l-9 -45h-244l9 45h244z" />
    <glyph glyph-name="Gcaron" unicode="&#x1e6;" horiz-adv-x="969" 
d="M712 169l-2 -2q-85 -89 -178 -135t-188 -46q-90 0 -163 47t-113.5 131t-40.5 192q0 107 32.5 219.5t95 226.5t151.5 221q121 146 259.5 232.5t247.5 86.5q46 0 82.5 -18.5t55.5 -54t19 -82.5q0 -123 -104 -237.5t-259 -162.5l-33 76q153 48 254 146t101 197q0 28 -16 54
t-43 39t-62 13q-94 0 -208 -71t-212 -188q-75 -90 -132 -199t-88 -225t-31 -219q0 -80 18 -146.5t55 -116t88 -74.5t111 -25q143 0 309 165l4 5l36 171l104 59l-62 -299q-22 -109 -37.5 -157.5t-45.5 -103.5q-48 -88 -123.5 -154.5t-171 -102.5t-192.5 -36q-114 0 -189 35
l32 71q109 -62 227 -62q59 0 111 15.5t95.5 45.5t74.5 72q27 37 45 75t34 94.5t36 150.5zM922 1559l11 -15l-130 -100l-139 100l7 15l130 -48z" />
    <glyph glyph-name="gcaron" unicode="&#x1e7;" horiz-adv-x="620" 
d="M532 591l-153 -609q-23 -98 -40.5 -144t-42.5 -84q-47 -72 -114.5 -110.5t-145.5 -38.5q-71 0 -125 40l51 66q65 -62 129 -62q41 0 83 26t62 64q26 46 54 167l77 330q-134 -250 -272 -250q-56 0 -90.5 42.5t-34.5 108.5q0 94 53 196t133.5 169.5t156.5 67.5q71 0 118 -53
l9 35zM420 467q-39 75 -103 75q-67 0 -132 -74q-53 -62 -90.5 -155.5t-37.5 -167.5q0 -50 21.5 -78.5t60.5 -28.5q40 0 88.5 44t96.5 124q55 91 85 216zM445 810l11 -15l-130 -100l-139 100l7 15l130 -48z" />
    <glyph glyph-name="Kcaron" unicode="&#x1e8;" horiz-adv-x="1436" 
d="M1600 1303l-732 -799q33 -77 89 -163.5t118.5 -159t133.5 -130.5l-71 -67q-214 193 -348 484l703 835h107zM877 1297l109 51q-15 -95 -41.5 -217.5t-61.5 -252.5t-65 -217q-33 -101 -70.5 -190.5t-76.5 -155t-85 -120t-97 -95.5q-178 -147 -452 -147q-68 0 -105 12l30 74
q115 -33 212 -33q223 0 383 235q46 68 83.5 157t83.5 249q22 76 43.5 158.5t40 160t38 168t27.5 138.5zM1395 1565l11 -15l-130 -100l-139 100l7 15l130 -48z" />
    <glyph glyph-name="kcaron" unicode="&#x1e9;" horiz-adv-x="593" 
d="M345 1409l-272 -1183q23 54 55 104t73 97.5t79 77.5q49 39 98.5 58t111.5 22l-18 -80q-30 6 -45 6q-118 0 -220 -119q41 -110 87 -198q26 -51 45.5 -81.5t36 -44.5t32.5 -14q38 0 96 61l8 9l13 -15q-101 -122 -147 -122q-31 0 -58 27t-63 93q-63 115 -103 218
q-94 -155 -120 -313l-65 -21l268 1367zM436 1582l11 -15l-130 -100l-139 100l7 15l130 -48z" />
    <glyph glyph-name="Oogonek" unicode="&#x1ea;" horiz-adv-x="1224" 
d="M1183 858q0 -138 -46 -278.5t-129 -263.5q-71 -105 -160.5 -180.5t-189.5 -113.5t-206 -38q-93 0 -172.5 33t-136 94.5t-86.5 149t-30 190.5q0 167 61 328t164 286.5t234.5 198.5t268.5 73q127 0 224 -60t150.5 -169t53.5 -250zM1068 900q0 93 -23 167.5t-66 126t-104 79
t-141 27.5q-83 0 -164.5 -36.5t-153 -107t-128.5 -171.5q-64 -112 -105 -268.5t-41 -289.5q0 -125 40.5 -217t116.5 -142t175 -50q93 0 184.5 47t168.5 133t130 200q47 101 79 242.5t32 259.5zM446 12l-15 -26l-16 -3q-28 0 -36 -32q-7 -27 10 -49t45 -22q27 0 48 17l7 -18
q-35 -22 -77 -22q-46 0 -68.5 27t-11.5 67q7 26 27 43.5t46 17.5h41z" />
    <glyph glyph-name="oogonek" unicode="&#x1eb;" horiz-adv-x="600" 
d="M-27 192q0 90 48.5 179.5t125.5 145.5t157 56q84 0 135.5 -55.5t51.5 -143.5q0 -96 -47.5 -186t-125.5 -148q-67 -49 -135 -56q-22 -6 -29 -34q-7 -27 10 -49t45 -22q27 0 48 17l7 -18q-35 -22 -77 -22q-46 0 -68.5 27t-11.5 67q5 21 19 36q-61 10 -101 54
q-52 58 -52 152zM401 412q0 60 -29.5 99t-75.5 39q-42 0 -80.5 -27t-70.5 -79q-36 -60 -59.5 -140t-23.5 -142q0 -74 29 -114t83 -40q87 0 153 121q34 62 54 139t20 144z" />
    <glyph glyph-name="Oogonekmacron" unicode="&#x1ec;" horiz-adv-x="1224" 
d="M1183 858q0 -138 -46 -278.5t-129 -263.5q-71 -105 -160.5 -180.5t-189.5 -113.5t-206 -38q-93 0 -172.5 33t-136 94.5t-86.5 149t-30 190.5q0 167 61 328t164 286.5t234.5 198.5t268.5 73q127 0 224 -60t150.5 -169t53.5 -250zM1068 900q0 93 -23 167.5t-66 126t-104 79
t-141 27.5q-83 0 -164.5 -36.5t-153 -107t-128.5 -171.5q-64 -112 -105 -268.5t-41 -289.5q0 -125 40.5 -217t116.5 -142t175 -50q93 0 184.5 47t168.5 133t130 200q47 101 79 242.5t32 259.5zM446 12l-15 -26l-16 -3q-28 0 -36 -32q-7 -27 10 -49t45 -22q27 0 48 17l7 -18
q-35 -22 -77 -22q-46 0 -68.5 27t-11.5 67q7 26 27 43.5t46 17.5h41zM932 1484l-9 -45h-244l9 45h244z" />
    <glyph glyph-name="oogonekmacron" unicode="&#x1ed;" horiz-adv-x="600" 
d="M-27 192q0 90 48.5 179.5t125.5 145.5t157 56q84 0 135.5 -55.5t51.5 -143.5q0 -96 -47.5 -186t-125.5 -148q-67 -49 -135 -56q-22 -6 -29 -34q-7 -27 10 -49t45 -22q27 0 48 17l7 -18q-35 -22 -77 -22q-46 0 -68.5 27t-11.5 67q5 21 19 36q-61 10 -101 54
q-52 58 -52 152zM401 412q0 60 -29.5 99t-75.5 39q-42 0 -80.5 -27t-70.5 -79q-36 -60 -59.5 -140t-23.5 -142q0 -74 29 -114t83 -40q87 0 153 121q34 62 54 139t20 144zM477 738l-9 -45h-244l9 45h244z" />
    <glyph glyph-name="jcaron" unicode="&#x1f0;" horiz-adv-x="273" 
d="M172 585l-158 -671q-19 -83 -35 -124.5t-43 -77.5q-37 -50 -91.5 -77.5t-115.5 -27.5q-40 0 -67 12l48 70q41 -31 86 -31q37 0 70 23.5t52 65.5q14 30 29 113l128 684zM243 804l11 -15l-130 -100l-139 100l7 15l130 -48z" />
    <glyph glyph-name="DZ" unicode="&#x1f1;" horiz-adv-x="2620" 
d="M891 1289l109 48q-12 -86 -25 -141l-20 -85l-7 -31q89 -66 157 -141t118 -159t74.5 -166t24.5 -162q0 -104 -37 -191t-106.5 -152t-164 -101t-202.5 -36q-167 0 -362 68l-25 9q-74 -42 -143 -62t-141 -20q-75 0 -121.5 28.5t-46.5 74.5q0 36 25.5 62.5t71.5 41.5t107 15
q86 0 278 -53l23 -7q64 62 124 173q88 163 175 474q45 155 69 270q-73 57 -164 103t-180 72t-159 26q-83 0 -132.5 -38.5t-49.5 -103.5q0 -41 25.5 -82.5t71.5 -78.5t115 -68l-62 -61q-88 46 -137.5 117t-49.5 150q0 66 35 116.5t98 78.5t142 28q203 0 466 -165
q21 76 26 149zM518 115l27 -9q125 -38 206 -54t155 -16q104 0 188.5 50t134 139t49.5 195q0 276 -352 568q-9 -42 -44 -164q-57 -192 -96 -288q-115 -288 -268 -421zM389 62q-179 55 -283 55q-44 0 -68.5 -14.5t-24.5 -40.5q0 -28 39 -48t97 -20q117 0 240 68zM2522 79
l-52 -97q-46 -4 -53 -4q-118 0 -276 55l-155 55l-117 41l-19 7q-96 -76 -170.5 -111t-144.5 -35q-54 0 -89.5 29.5t-35.5 74.5q0 67 68.5 107.5t185.5 40.5q54 0 107 -7t111 -23l15 13q230 208 407 458.5t276 508.5l-18 4q-95 22 -174.5 36.5t-156.5 25.5t-135.5 16
t-110.5 5q-166 0 -239 -47q-32 -21 -53 -53.5t-21 -63.5q0 -67 84 -109.5t264 -64.5l-75 -70q-144 21 -223 80.5t-79 147.5q0 98 97 166q61 44 139 63t190 19q98 0 195.5 -9.5t195 -28t189.5 -44.5l12 -3q-36 -100 -105.5 -237t-147.5 -257q-99 -153 -213.5 -288
t-252.5 -263l-17 -16l26 -7q53 -16 102 -33q105 -34 141.5 -45.5t69.5 -18.5q103 -23 181 -23q35 0 77 5zM1802 147q-114 35 -203 35q-64 0 -103 -26t-39 -66q0 -27 24 -45t58 -18q52 0 107.5 24t136.5 83z" />
    <glyph glyph-name="Dz" unicode="&#x1f2;" horiz-adv-x="1924" 
d="M891 1289l109 48q-12 -86 -25 -141l-20 -85l-7 -31q89 -66 157 -141t118 -159t74.5 -166t24.5 -162q0 -104 -37 -191t-106.5 -152t-164 -101t-202.5 -36q-167 0 -362 68l-25 9q-74 -42 -143 -62t-141 -20q-75 0 -121.5 28.5t-46.5 74.5q0 36 25.5 62.5t71.5 41.5t107 15
q86 0 278 -53l23 -7q64 62 124 173q88 163 175 474q45 155 69 270q-73 57 -164 103t-180 72t-159 26q-83 0 -132.5 -38.5t-49.5 -103.5q0 -41 25.5 -82.5t71.5 -78.5t115 -68l-62 -61q-88 46 -137.5 117t-49.5 150q0 66 35 116.5t98 78.5t142 28q203 0 466 -165
q21 76 26 149zM518 115l27 -9q125 -38 206 -54t155 -16q104 0 188.5 50t134 139t49.5 195q0 276 -352 568q-9 -42 -44 -164q-57 -192 -96 -288q-115 -288 -268 -421zM389 62q-179 55 -283 55q-44 0 -68.5 -14.5t-24.5 -40.5q0 -28 39 -48t97 -20q117 0 240 68zM1521 568h327
l8 -24l-15 -18l-114 -137q-127 -154 -168 -205.5t-78 -105.5q50 -5 126 -5q66 0 132 2q19 0 62 3l-10 -79h-396l-12 26l14 16q16 18 40 46t59 69.5t56.5 67.5t33.5 41l92 117q52 66 87 113h-259z" />
    <glyph glyph-name="dz" unicode="&#x1f3;" horiz-adv-x="1124" 
d="M699 1409l-265 -1153q-21 -92 -21 -128q0 -32 11.5 -52t31.5 -20q26 0 63 39l29 29l2 2t3 2l15 -14l-8 -9q-38 -42 -39 -43l-33 -33q-25 -25 -36.5 -31.5t-25.5 -6.5q-33 0 -55 34t-22 78q0 26 14 95l11 57q-26 -63 -82 -137q-101 -130 -196 -130q-57 0 -90 41.5
t-33 112.5q0 99 52 200.5t132.5 167.5t160.5 66q59 0 110 -35l163 817zM419 491q-9 27 -37 43.5t-60 16.5q-47 0 -96.5 -42t-93.5 -119q-32 -57 -52.5 -124.5t-20.5 -122.5q0 -48 20.5 -77t56.5 -29q42 0 90.5 43t97.5 124q33 55 52 114q23 76 33 122zM721 568h327l8 -24
l-15 -18l-114 -137q-127 -154 -168 -205.5t-78 -105.5q50 -5 126 -5q66 0 132 2q19 0 62 3l-10 -79h-396l-12 26l14 16q16 18 40 46t59 69.5t56.5 67.5t33.5 41l92 117q52 66 87 113h-259z" />
    <glyph glyph-name="Gacute" unicode="&#x1f4;" horiz-adv-x="969" 
d="M712 169l-2 -2q-85 -89 -178 -135t-188 -46q-90 0 -163 47t-113.5 131t-40.5 192q0 107 32.5 219.5t95 226.5t151.5 221q121 146 259.5 232.5t247.5 86.5q46 0 82.5 -18.5t55.5 -54t19 -82.5q0 -123 -104 -237.5t-259 -162.5l-33 76q153 48 254 146t101 197q0 28 -16 54
t-43 39t-62 13q-94 0 -208 -71t-212 -188q-75 -90 -132 -199t-88 -225t-31 -219q0 -80 18 -146.5t55 -116t88 -74.5t111 -25q143 0 309 165l4 5l36 171l104 59l-62 -299q-22 -109 -37.5 -157.5t-45.5 -103.5q-48 -88 -123.5 -154.5t-171 -102.5t-192.5 -36q-114 0 -189 35
l32 71q109 -62 227 -62q59 0 111 15.5t95.5 45.5t74.5 72q27 37 45 75t34 94.5t36 150.5zM956 1565l-209 -154l-20 7l164 165z" />
    <glyph glyph-name="gacute" unicode="&#x1f5;" horiz-adv-x="620" 
d="M532 591l-153 -609q-23 -98 -40.5 -144t-42.5 -84q-47 -72 -114.5 -110.5t-145.5 -38.5q-71 0 -125 40l51 66q65 -62 129 -62q41 0 83 26t62 64q26 46 54 167l77 330q-134 -250 -272 -250q-56 0 -90.5 42.5t-34.5 108.5q0 94 53 196t133.5 169.5t156.5 67.5q71 0 118 -53
l9 35zM420 467q-39 75 -103 75q-67 0 -132 -74q-53 -62 -90.5 -155.5t-37.5 -167.5q0 -50 21.5 -78.5t60.5 -28.5q40 0 88.5 44t96.5 124q55 91 85 216zM530 814l-209 -154l-20 7l164 165z" />
    <glyph glyph-name="Ngrave" unicode="&#x1f8;" horiz-adv-x="1051" 
d="M782 0h-96l229 1040q14 62 14 92q0 34 -16.5 54t-45.5 20q-89 0 -211 -198q-48 -77 -102.5 -184t-97.5 -202.5t-87 -210.5t-78 -223l-53 -169l-6 -19h-85l6 20q66 228 149 635q32 153 56 288q33 181 33 252q0 37 -8 66.5t-22.5 44.5t-34.5 15q-81 0 -136 -200
q-43 -153 -57 -277l-78 54q20 125 62 230.5t95 164t107 58.5q64 0 100.5 -69t36.5 -191q0 -100 -19 -220q-13 -82 -28 -163l-51 -246l9 22q87 212 166.5 367t148.5 251q124 169 230 169q49 0 80.5 -34.5t31.5 -89.5q0 -47 -17 -124zM713 1625l59 -167l-19 -5l-99 155z" />
    <glyph glyph-name="ngrave" unicode="&#x1f9;" horiz-adv-x="664" 
d="M-17 -10l106 554l95 41l-86 -367q83 175 165 266t157 91q37 0 60 -24.5t23 -65.5q0 -23 -11 -65l-10 -42l-30 -122l-10 -39q-15 -60 -15 -92t11 -51.5t29 -19.5q31 0 99 74l16 -14l-10 -11q-57 -67 -84 -90.5t-50 -23.5q-31 0 -52.5 31.5t-21.5 78.5q0 32 12 95l39 212
q8 50 8 70q0 21 -11 32t-30 11q-69 0 -170 -148q-49 -71 -81 -140.5t-72 -192.5l-9 -27zM332 859l59 -167l-19 -5l-99 155z" />
    <glyph glyph-name="Aringacute" unicode="&#x1fa;" horiz-adv-x="1336" 
d="M1165 443l-95 -443h-64q-37 118 -118.5 229t-184.5 183q-68 -106 -152 -190t-178.5 -144t-196.5 -93t-200 -33q-27 0 -58 5l32 76q53 -6 80 -6q274 0 488 214q44 44 89.5 101.5t94.5 134.5q109 171 186 320l94 181q111 213 171 288.5t119 75.5q19 0 33.5 -8t22.5 -23.5
t8 -34.5q0 -14 -5 -41q-5 -36 -6 -39l-153 -719h71l-7 -34h-71zM1071 443h-349l4 -3q89 -68 153 -140t125 -172zM749 477h329l142 680q7 33 7 34q6 20 6 36q0 25 -22 25q-27 0 -65 -57t-132 -234q-14 -27 -57 -109q-36 -65 -39 -72l-96 -175q-60 -109 -73 -128zM1293 1582
q32 0 56 -24t24 -56q0 -33 -24 -56t-56 -23q-33 0 -56 23t-23 56q0 32 23 56t56 24zM1293 1551q-21 0 -35 -15t-14 -34t15 -34t34 -15t34 14t15 35t-14 35t-35 14zM1521 1801l-209 -154l-20 7l164 165z" />
    <glyph glyph-name="aringacute" unicode="&#x1fb;" horiz-adv-x="666" 
d="M537 591l-94 -366q-15 -60 -15 -94q0 -30 13 -52t32 -22q29 0 96 71l14 -14l-11 -13q-53 -61 -81.5 -85.5t-49.5 -24.5q-32 0 -55.5 33.5t-23.5 77.5q0 32 24 145l8 38q-37 -86 -99 -165q-104 -132 -199 -132q-57 0 -90 41t-33 110q0 94 53.5 197t133 169.5t154.5 66.5
q79 0 118 -58l11 38zM422 463q-12 38 -40.5 59.5t-65.5 21.5q-44 0 -93 -40.5t-90 -112.5q-32 -57 -53.5 -126t-21.5 -114q0 -51 19.5 -80t55.5 -29q46 0 96 43t99 123q30 46 47 92t38 128zM518 833q32 0 56 -24t24 -56q0 -33 -24 -56t-56 -23q-33 0 -56 23t-23 56
q0 32 23 56t56 24zM518 802q-21 0 -35 -15t-14 -34t15 -34t34 -15t34 14t15 35t-14 35t-35 14zM427 814l-209 -154l-20 7l164 165z" />
    <glyph glyph-name="AEacute" unicode="&#x1fc;" horiz-adv-x="2083" 
d="M1899 201l-24 -119q-128 -60 -250 -92t-222 -32q-83 0 -149.5 18t-113.5 52q-31 24 -53 53l-17 -81h-64q-38 120 -119 229q-82 112 -184 183q-67 -105 -152 -190t-179.5 -145t-195.5 -92.5t-200 -32.5q-14 0 -28 1.5t-30 3.5l32 76q53 -6 80 -6q274 0 488 214
q45 45 90 101.5t94 134.5q55 86 101.5 165.5t84.5 154.5l94 181q57 109 98 179.5t74 111.5t60.5 57t57.5 16q29 0 46.5 -18t17.5 -48q0 -7 -2 -21l-4 -27q-2 -13 -3.5 -23t-1.5 -9l-148 -693q57 59 136 115q88 62 201 119q-108 18 -108 112q0 135 232 301q54 39 110 71
t108.5 54.5t99.5 35t84 12.5q54 0 82.5 -30t28.5 -81q0 -32 -14 -74t-38.5 -87t-58.5 -89.5t-73 -82.5l-53 58q156 173 156 274q0 69 -82 69q-40 0 -92.5 -18t-107.5 -48.5t-108 -70t-95 -83.5t-67.5 -89.5t-25.5 -86.5q0 -29 18.5 -55t45.5 -37q14 -5 38 -8t59 -5h17
l-13 -64q-151 -64 -303 -177q-158 -117 -217 -225l-33 -154q4 -25 15 -46q17 -34 47 -58.5t71.5 -38t90.5 -13.5q53 0 112 11.5t128.5 35.5t151.5 61.5t179 89.5zM749 477h329l142 680q5 21 7 31l4 16q2 6 2 10v13q0 25 -22 25q-16 0 -32.5 -15t-43.5 -58t-69 -121.5
t-109 -205.5q-17 -32 -27.5 -49.5t-11.5 -22.5l-96 -175q-59 -108 -73 -128zM1071 443h-349l4 -3q87 -66 153 -140q32 -36 63 -78.5t62 -93.5zM1749 1598l-209 -154l-20 7l164 165z" />
    <glyph glyph-name="aeacute" unicode="&#x1fd;" horiz-adv-x="851" 
d="M736 155l20 -15q-100 -155 -244 -155q-76 0 -126 51t-50 129v8q-44 -87 -109 -137.5t-133 -50.5q-56 0 -88.5 30t-32.5 81q0 96 105 168.5t291 104.5l3.5 14t1.5 7q12 49 12 71q0 44 -21 66.5t-61 22.5q-55 0 -95.5 -39.5t-40.5 -91.5q0 -14 3 -27q-15 -3 -24 -3
q-19 0 -32 13t-13 32q0 34 28 67t74.5 53t99.5 20q124 0 142 -107q38 53 88 82t103 29q43 0 68.5 -22t25.5 -61q0 -51 -42.5 -108t-114.5 -105t-157 -75v-10q0 -71 38 -118t93 -47q101 0 188 123zM360 340q-84 -8 -178 -59q-58 -31 -92.5 -77t-34.5 -94q0 -33 22.5 -56.5
t53.5 -23.5q48 0 92 38t80 109t57 163zM417 231q59 26 91 47t70 60q92 94 92 165q0 21 -13 33.5t-37 12.5q-30 0 -63 -24.5t-59 -69.5q-33 -57 -54.5 -116.5t-26.5 -107.5zM663 814l-209 -154l-20 7l164 165z" />
    <glyph glyph-name="Ostrokeacute" unicode="&#x1fe;" horiz-adv-x="1225" 
d="M1183 858q0 -138 -46 -278.5t-129 -263.5q-71 -105 -160.5 -180.5t-189.5 -113.5t-206 -38q-93 0 -172.5 33t-136 94.5t-86.5 149t-30 190.5q0 167 61 328t164 286.5t234.5 198.5t268.5 73q127 0 224 -60t150.5 -169t53.5 -250zM1068 900q0 93 -23 167.5t-66 126t-104 79
t-141 27.5q-83 0 -164.5 -36.5t-153 -107t-128.5 -171.5q-64 -112 -105 -268.5t-41 -289.5q0 -125 40.5 -217t116.5 -142t175 -50q93 0 184.5 47t168.5 133t130 200q47 101 79 242.5t32 259.5zM1106 1426l-845 -1590l-25 14l844 1589zM820 1609l-209 -154l-20 7l164 165z
" />
    <glyph glyph-name="ostrokeacute" unicode="&#x1ff;" horiz-adv-x="600" 
d="M447 508l91 86l21 -21l-94 -90q26 -45 26 -110q0 -95 -48 -185.5t-124.5 -147.5t-156.5 -57q-44 0 -82.5 18t-65.5 53l-89 -84l-20 22l92 88q-24 47 -24 111q0 68 28 137t77 125t108 88t118 32q87 0 143 -65zM66 105q22 -97 108 -97q87 0 153 121q32 58 53 139t21 143v12
zM62 141l334 318q-24 91 -101 91q-49 0 -94.5 -39.5t-80.5 -113.5q-59 -123 -59 -236q0 -12 1 -20zM366 814l-209 -154l-20 7l164 165z" />
    <glyph glyph-name="Adblgrave" unicode="&#x200;" horiz-adv-x="1336" 
d="M1165 443l-95 -443h-64q-37 118 -118.5 229t-184.5 183q-68 -106 -152 -190t-178.5 -144t-196.5 -93t-200 -33q-27 0 -58 5l32 76q53 -6 80 -6q274 0 488 214q44 44 89.5 101.5t94.5 134.5q109 171 186 320l94 181q111 213 171 288.5t119 75.5q19 0 33.5 -8t22.5 -23.5
t8 -34.5q0 -14 -5 -41q-5 -36 -6 -39l-153 -719h71l-7 -34h-71zM1071 443h-349l4 -3q89 -68 153 -140t125 -172zM749 477h329l142 680q7 33 7 34q6 20 6 36q0 25 -22 25q-27 0 -65 -57t-132 -234q-14 -27 -57 -109q-36 -65 -39 -72l-96 -175q-60 -109 -73 -128zM1327 1616
l59 -167l-19 -5l-99 155zM1127 1616l59 -167l-19 -5l-99 155z" />
    </font>
</defs>
</svg>
